%TF.GenerationSoftware,Altium Limited,Altium Designer,22.9.1 (49)*%
G04 Layer_Color=0*
%FSLAX45Y45*%
%MOMM*%
%TF.SameCoordinates,A07B7C20-9008-4073-B72B-9E11D2315A39*%
%TF.FilePolarity,Positive*%
%TF.FileFunction,Plated,1,4,PTH,Drill*%
%TF.Part,Single*%
G01*
G75*
%TA.AperFunction,ComponentDrill*%
%ADD98O,1.20000X0.50000*%
%ADD99C,0.85000*%
%ADD100C,0.85000*%
%ADD101C,0.85000*%
%ADD102C,0.85000*%
%ADD103C,0.85000*%
%ADD104C,0.85000*%
%ADD105C,3.00000*%
%TA.AperFunction,ViaDrill,NotFilled*%
%ADD106C,0.20000*%
D98*
X13000000Y10750000D02*
D03*
Y11410000D02*
D03*
D99*
X13150000Y12300000D02*
D03*
X13262941Y12039444D02*
D03*
X12986732Y12105425D02*
D03*
X13099673Y11844869D02*
D03*
X10536732Y12505425D02*
D03*
X10423790Y12765980D02*
D03*
X10700000Y12700000D02*
D03*
X10587059Y12960555D02*
D03*
D100*
X10610523Y8528595D02*
D03*
X10886732Y8594575D02*
D03*
X10773791Y8334020D02*
D03*
X11050000Y8400000D02*
D03*
D101*
X14496967Y14072137D02*
D03*
X14645621Y14314102D02*
D03*
X14750000Y14050000D02*
D03*
X14898654Y14291965D02*
D03*
D102*
X10063127Y9638682D02*
D03*
X10345246Y9606214D02*
D03*
X10150000Y9400000D02*
D03*
X10432119Y9367532D02*
D03*
D103*
X14930202Y13557346D02*
D03*
X14922446Y13273471D02*
D03*
X14700000Y13450000D02*
D03*
X14692244Y13166125D02*
D03*
D104*
X9950000Y10654000D02*
D03*
X10204000Y10527000D02*
D03*
X9950000Y10400000D02*
D03*
X10204000Y10273000D02*
D03*
D105*
X11400000Y11800000D02*
D03*
X14000000Y13600000D02*
D03*
X14400000Y7450000D02*
D03*
D106*
X12250000Y14150000D02*
D03*
X11800000D02*
D03*
X14000000Y12700000D02*
D03*
X12730000Y11650000D02*
D03*
X12347500Y11600000D02*
D03*
X12294800Y12050000D02*
D03*
X12305200Y11850000D02*
D03*
X11250000Y8800000D02*
D03*
X10800000Y9560000D02*
D03*
X10650000Y9650000D02*
D03*
X12750000Y10750000D02*
D03*
Y11400000D02*
D03*
X12570000Y13520000D02*
D03*
X12455200Y10763410D02*
D03*
Y11285156D02*
D03*
X12494800Y10400000D02*
D03*
X12429800D02*
D03*
X12615600Y11300000D02*
D03*
X12642300Y12973900D02*
D03*
X12069800Y12930409D02*
D03*
X12305200Y12900000D02*
D03*
X12194800Y12944800D02*
D03*
X12225104Y12550000D02*
D03*
X12094800Y11213239D02*
D03*
X12058409Y12441590D02*
D03*
X12870000Y11650000D02*
D03*
X15200000Y8200000D02*
D03*
X13200000Y8500000D02*
D03*
X12450000Y8875000D02*
D03*
X10950000Y10215000D02*
D03*
X12100000Y9572500D02*
D03*
X12200000Y9550000D02*
D03*
X11800000Y9950000D02*
D03*
X12850000Y9500000D02*
D03*
X12817500Y9574265D02*
D03*
X11000000Y10150000D02*
D03*
X10577115Y10863481D02*
D03*
X10905984Y12384049D02*
D03*
X11418306Y11480341D02*
D03*
X12850000Y8395000D02*
D03*
Y8250000D02*
D03*
X12800000Y8200000D02*
D03*
X12750000Y8250000D02*
D03*
X12700000Y8200000D02*
D03*
X12650000Y8250000D02*
D03*
X12600000Y8200000D02*
D03*
X12550000Y8250000D02*
D03*
X12800000Y8650000D02*
D03*
X12600000D02*
D03*
X11750000Y9102500D02*
D03*
X11900000D02*
D03*
X11900000Y9400000D02*
D03*
X12000000Y9300000D02*
D03*
X12178410Y8931590D02*
D03*
X12800000Y9350000D02*
D03*
X12300000Y9400000D02*
D03*
X12400000Y9452500D02*
D03*
X12400000Y9345000D02*
D03*
X13050000Y8670000D02*
D03*
X11671172Y8905000D02*
D03*
X11222500Y10027500D02*
D03*
X10750000Y10100000D02*
D03*
X11900000Y8947500D02*
D03*
X11800000Y8697500D02*
D03*
X11200000Y9550000D02*
D03*
X11000000D02*
D03*
X12097130Y8697130D02*
D03*
X11700000Y8695000D02*
D03*
X12650000Y8400000D02*
D03*
X12750000D02*
D03*
X13050000Y8420000D02*
D03*
X13900000Y7000000D02*
D03*
X13800000D02*
D03*
X13700000D02*
D03*
Y7100000D02*
D03*
X13800000D02*
D03*
X13900000D02*
D03*
Y7200000D02*
D03*
X13800000D02*
D03*
X13700000D02*
D03*
X14950000Y7750000D02*
D03*
Y7850000D02*
D03*
Y7650000D02*
D03*
Y7550000D02*
D03*
Y7450000D02*
D03*
Y7350000D02*
D03*
Y7250000D02*
D03*
X14800000Y7650000D02*
D03*
Y7750000D02*
D03*
X14650000Y7150000D02*
D03*
X14800000Y7250000D02*
D03*
Y7350000D02*
D03*
Y7450000D02*
D03*
Y7550000D02*
D03*
X14650000Y7650000D02*
D03*
Y7750000D02*
D03*
X14500000Y7050000D02*
D03*
Y7150000D02*
D03*
X14300000D02*
D03*
Y7050000D02*
D03*
X14100000D02*
D03*
Y7150000D02*
D03*
Y7250000D02*
D03*
Y7350000D02*
D03*
Y7450000D02*
D03*
Y7550000D02*
D03*
Y7650000D02*
D03*
X13700000Y7350000D02*
D03*
X13800000D02*
D03*
X13900000D02*
D03*
Y7450000D02*
D03*
Y7550000D02*
D03*
Y7650000D02*
D03*
Y7750000D02*
D03*
X14499998Y7975000D02*
D03*
X14100000Y7750000D02*
D03*
X14500000D02*
D03*
X14300000D02*
D03*
X14800000Y8000000D02*
D03*
X14650000Y7850000D02*
D03*
Y8000000D02*
D03*
X15063499Y8204700D02*
D03*
X14936501D02*
D03*
X14975000Y8000000D02*
D03*
X14800000Y7850000D02*
D03*
X14099998Y7975000D02*
D03*
X14500000Y7850000D02*
D03*
X14300000D02*
D03*
X14100000D02*
D03*
X13900000D02*
D03*
X13750000Y8000000D02*
D03*
X13650000D02*
D03*
X13700000Y7825000D02*
D03*
X13550000Y7850000D02*
D03*
X13450000D02*
D03*
X13550000Y7950000D02*
D03*
Y8050000D02*
D03*
X13600000Y8150000D02*
D03*
X13450000Y7950000D02*
D03*
X15125000Y8000000D02*
D03*
X14650000Y8150000D02*
D03*
X14450000Y8250000D02*
D03*
X13900000Y7975000D02*
D03*
Y8125000D02*
D03*
X13739999Y8150000D02*
D03*
X13750000Y8350000D02*
D03*
X13300000Y8925000D02*
D03*
X13300000Y12800000D02*
D03*
X12602500Y9000000D02*
D03*
X11989599Y11489599D02*
D03*
X12700000Y13300000D02*
D03*
X12646101Y13503899D02*
D03*
X13600000Y13650000D02*
D03*
X13100000D02*
D03*
X13000000Y13500000D02*
D03*
X12750000Y13000000D02*
D03*
X11889599Y11239599D02*
D03*
X11550000Y11000000D02*
D03*
X11650000D02*
D03*
X11222500Y9800000D02*
D03*
X12253750Y10324640D02*
D03*
X12850000Y10500000D02*
D03*
X12817500Y10312500D02*
D03*
X10950000Y9762500D02*
D03*
X11150000Y13450000D02*
D03*
X13500000Y8925000D02*
D03*
X11050000Y11250000D02*
D03*
Y11750000D02*
D03*
X14300000Y8125000D02*
D03*
X13700000Y9375000D02*
D03*
X13292500Y8075000D02*
D03*
X13700000Y8880000D02*
D03*
X10000000Y12450000D02*
D03*
X10400000Y12250000D02*
D03*
X10300000Y12350000D02*
D03*
X9900000D02*
D03*
X10100000D02*
D03*
X9800000Y12250000D02*
D03*
X10000000D02*
D03*
X10200000D02*
D03*
X10300000Y12150000D02*
D03*
X10100000D02*
D03*
X9900000D02*
D03*
X10200000Y12050000D02*
D03*
X10000000D02*
D03*
X9800000D02*
D03*
X15400000Y8950000D02*
D03*
X15300000D02*
D03*
X15200000D02*
D03*
X15100000D02*
D03*
X15000000Y8950000D02*
D03*
X14900000Y8950000D02*
D03*
X14800000Y8950000D02*
D03*
X14900000Y8850000D02*
D03*
X15000000D02*
D03*
X15100000D02*
D03*
X15200000D02*
D03*
X15300000D02*
D03*
X15400000D02*
D03*
X15500000D02*
D03*
X15600000D02*
D03*
X15750000Y8600000D02*
D03*
X15750000Y8500000D02*
D03*
Y8400000D02*
D03*
Y8300000D02*
D03*
Y8200000D02*
D03*
Y8100000D02*
D03*
Y8000000D02*
D03*
Y7900000D02*
D03*
X15750000Y7800000D02*
D03*
X15650000Y7800000D02*
D03*
X15550000D02*
D03*
X15450000D02*
D03*
X15600000Y7700000D02*
D03*
X15500000D02*
D03*
X15400000D02*
D03*
X15350000Y7800000D02*
D03*
X15300000Y7700000D02*
D03*
X14350000Y8350000D02*
D03*
X14250000D02*
D03*
X13850000Y8250000D02*
D03*
X13950000D02*
D03*
X13850000Y8350000D02*
D03*
X15700000Y7700000D02*
D03*
X15600000Y7600000D02*
D03*
X15500000D02*
D03*
X15400000D02*
D03*
X15300000D02*
D03*
X14550000Y8350000D02*
D03*
X14050000Y8250000D02*
D03*
X13750000D02*
D03*
X14500000Y8125000D02*
D03*
X15550000Y7500000D02*
D03*
X15450000D02*
D03*
X15350000D02*
D03*
X14550000Y8250000D02*
D03*
X14450000Y8350000D02*
D03*
X14250000Y8250000D02*
D03*
X14050000Y8350000D02*
D03*
X15350000Y7400000D02*
D03*
X14650000Y8350000D02*
D03*
Y8250000D02*
D03*
X14350000D02*
D03*
X14150000Y8350000D02*
D03*
Y8250000D02*
D03*
X13950000Y8350000D02*
D03*
X13700002Y7675000D02*
D03*
X12105582Y13064809D02*
D03*
X12140000Y13160001D02*
D03*
X10900000Y10050000D02*
D03*
X12700000Y9000000D02*
D03*
X14800000Y8200000D02*
D03*
X12500000Y14000000D02*
D03*
X12350000Y10500000D02*
D03*
X14100000Y8125000D02*
D03*
X14750000Y9050000D02*
D03*
X13500000Y9375000D02*
D03*
X13300000D02*
D03*
X13550000Y8750000D02*
D03*
X10608082Y10791917D02*
D03*
X10100000Y11000000D02*
D03*
X11650000Y10050000D02*
D03*
X11950000Y8550000D02*
D03*
X11850000D02*
D03*
X11800000Y8500000D02*
D03*
X11750000Y8550000D02*
D03*
X11660000Y8549811D02*
D03*
X11250000Y9400000D02*
D03*
X11200000Y9350000D02*
D03*
X11150000Y9400000D02*
D03*
X11100000Y9350000D02*
D03*
X11050000Y9400000D02*
D03*
X11000000Y9350000D02*
D03*
X10950000Y9400000D02*
D03*
X11100000Y9550000D02*
D03*
X12000000Y12600000D02*
D03*
X11950000Y12700000D02*
D03*
X11595096Y12849490D02*
D03*
X11600000Y13000000D02*
D03*
X12400000Y13350000D02*
D03*
X12350000Y13400000D02*
D03*
X12250000Y13450000D02*
D03*
X12050000Y13600000D02*
D03*
X11550000Y13850000D02*
D03*
X12200000D02*
D03*
X12650000Y14050000D02*
D03*
X12800000D02*
D03*
X13450000D02*
D03*
X13250000Y13850000D02*
D03*
X13980000Y12920000D02*
D03*
X14180000Y13080000D02*
D03*
X14850000Y13900000D02*
D03*
X13850000Y14200000D02*
D03*
Y14450000D02*
D03*
Y14100000D02*
D03*
X11150000Y13600000D02*
D03*
X11550000Y12700000D02*
D03*
X10664032Y11985968D02*
D03*
X10976615Y12300000D02*
D03*
X11488308Y12811691D02*
D03*
X10550000Y11950000D02*
D03*
X10850000Y12500000D02*
D03*
X10250000Y11900000D02*
D03*
X10363500Y11886500D02*
D03*
X10600000Y11850000D02*
D03*
X9850000D02*
D03*
X10900000Y11000000D02*
D03*
X11286500Y11036500D02*
D03*
X11413500Y11036500D02*
D03*
X12050000Y10350000D02*
D03*
X13050000Y11000000D02*
D03*
Y10900000D02*
D03*
X12950000D02*
D03*
X13050000Y11150000D02*
D03*
Y11250000D02*
D03*
X12950000Y11150000D02*
D03*
Y11000000D02*
D03*
Y11250000D02*
D03*
X11650000Y10200000D02*
D03*
X13350000Y7100000D02*
D03*
X12950000Y9300000D02*
D03*
X11900000Y8700000D02*
D03*
X10850000Y10025000D02*
D03*
X13450000Y7000000D02*
D03*
X13350000D02*
D03*
X13450000Y7100000D02*
D03*
X13250000Y7000000D02*
D03*
Y7100000D02*
D03*
X13450000Y7200000D02*
D03*
X13350000D02*
D03*
X13250000D02*
D03*
X15400000Y8200000D02*
D03*
Y8100000D02*
D03*
X15500000Y8200000D02*
D03*
Y8100000D02*
D03*
X15600000Y8200000D02*
D03*
Y8100000D02*
D03*
X15600000Y8000000D02*
D03*
X15500000D02*
D03*
X15400000D02*
D03*
X9850000Y11050000D02*
D03*
%TF.MD5,eff941da20f6ce16f5e449ee07cb9af2*%
M02*
