%TF.GenerationSoftware,Altium Limited,Altium Designer,22.9.1 (49)*%
G04 Layer_Color=8388736*
%FSLAX45Y45*%
%MOMM*%
%TF.SameCoordinates,A07B7C20-9008-4073-B72B-9E11D2315A39*%
%TF.FilePolarity,Negative*%
%TF.FileFunction,Soldermask,Top*%
%TF.Part,Single*%
G01*
G75*
%TA.AperFunction,SMDPad,CuDef*%
%ADD12R,1.35000X0.40000*%
%ADD13R,1.90000X1.90000*%
%ADD14R,1.40000X1.60000*%
%ADD17R,0.53340X1.46170*%
%ADD30R,0.50080X1.35890*%
%ADD31R,1.35890X0.50080*%
%ADD32R,0.22860X0.71120*%
%ADD35R,0.80000X0.80000*%
%TA.AperFunction,ComponentPad*%
G04:AMPARAMS|DCode=49|XSize=0.9mm|YSize=1.6mm|CornerRadius=0.45mm|HoleSize=0mm|Usage=FLASHONLY|Rotation=90.000|XOffset=0mm|YOffset=0mm|HoleType=Round|Shape=RoundedRectangle|*
%AMROUNDEDRECTD49*
21,1,0.90000,0.70000,0,0,90.0*
21,1,0.00000,1.60000,0,0,90.0*
1,1,0.90000,0.35000,0.00000*
1,1,0.90000,0.35000,0.00000*
1,1,0.90000,-0.35000,0.00000*
1,1,0.90000,-0.35000,0.00000*
%
%ADD49ROUNDEDRECTD49*%
%TA.AperFunction,SMDPad,CuDef*%
%ADD60R,1.50000X1.20000*%
%ADD61R,0.90000X1.00000*%
%TA.AperFunction,ComponentPad*%
%ADD62P,2.06192X4X275.0*%
%ADD63C,1.45800*%
%ADD64C,1.65000*%
%ADD65P,2.06192X4X355.0*%
%ADD66P,2.06192X4X400.0*%
%ADD67P,2.06192X4X335.0*%
%ADD68P,2.06192X4X250.0*%
%ADD69R,1.45800X1.45800*%
%ADD70C,4.10000*%
%TA.AperFunction,SMDPad,CuDef*%
%ADD80R,2.89000X0.84000*%
%ADD81R,0.80000X1.00000*%
%ADD82R,1.00000X0.80000*%
%ADD83R,5.10000X1.40000*%
%ADD84R,0.90000X1.40000*%
%ADD85R,0.70000X1.20000*%
%ADD86R,1.10000X0.80000*%
%ADD87R,1.20000X1.50000*%
%ADD88R,1.00000X0.90000*%
%ADD89R,5.40000X1.50000*%
%ADD90R,3.20320X3.20320*%
G36*
X11192500Y9785000D02*
Y9735000D01*
X11182500Y9725000D01*
X11167500D01*
X11157500Y9735000D01*
Y9785000D01*
X11167500Y9795000D01*
X11182500D01*
X11192500Y9785000D01*
D02*
G37*
G36*
X11142500D02*
Y9735000D01*
X11132500Y9725000D01*
X11117500D01*
X11107500Y9735000D01*
Y9785000D01*
X11117500Y9795000D01*
X11132500D01*
X11142500Y9785000D01*
D02*
G37*
G36*
X11092500D02*
Y9735000D01*
X11082500Y9725000D01*
X11067500D01*
X11057500Y9735000D01*
Y9785000D01*
X11067500Y9795000D01*
X11082500D01*
X11092500Y9785000D01*
D02*
G37*
G36*
X11042500D02*
Y9735000D01*
X11032500Y9725000D01*
X11017500D01*
X11007500Y9735000D01*
Y9785000D01*
X11017500Y9795000D01*
X11032500D01*
X11042500Y9785000D01*
D02*
G37*
G36*
X11275000Y9715000D02*
Y9700000D01*
X11265000Y9690000D01*
X11215000D01*
X11205000Y9700000D01*
Y9715000D01*
X11215000Y9725000D01*
X11265000D01*
X11275000Y9715000D01*
D02*
G37*
G36*
X10995000D02*
Y9700000D01*
X10985000Y9690000D01*
X10935000D01*
X10925000Y9700000D01*
Y9715000D01*
X10935000Y9725000D01*
X10985000D01*
X10995000Y9715000D01*
D02*
G37*
G36*
X11275000Y9665000D02*
Y9650000D01*
X11265000Y9640000D01*
X11215000D01*
X11205000Y9650000D01*
Y9665000D01*
X11215000Y9675000D01*
X11265000D01*
X11275000Y9665000D01*
D02*
G37*
G36*
X10995000D02*
Y9650000D01*
X10985000Y9640000D01*
X10935000D01*
X10925000Y9650000D01*
Y9665000D01*
X10935000Y9675000D01*
X10985000D01*
X10995000Y9665000D01*
D02*
G37*
G36*
X11275000Y9615000D02*
Y9600000D01*
X11265000Y9590000D01*
X11215000D01*
X11205000Y9600000D01*
Y9615000D01*
X11215000Y9625000D01*
X11265000D01*
X11275000Y9615000D01*
D02*
G37*
G36*
X10995000D02*
Y9600000D01*
X10985000Y9590000D01*
X10935000D01*
X10925000Y9600000D01*
Y9615000D01*
X10935000Y9625000D01*
X10985000D01*
X10995000Y9615000D01*
D02*
G37*
G36*
X11235000Y9562503D02*
X11265000D01*
X11270000Y9557503D01*
Y9542503D01*
X11265000Y9537503D01*
X11235000D01*
Y9530003D01*
X11117500Y9530003D01*
X11112500Y9535003D01*
X11112500Y9565003D01*
X11117500Y9570003D01*
X11235000D01*
Y9562503D01*
D02*
G37*
G36*
X11087500Y9565000D02*
X11087500Y9535000D01*
X11082500Y9530000D01*
X10965000D01*
Y9537500D01*
X10935000Y9537500D01*
X10930000Y9542500D01*
Y9557500D01*
X10935000Y9562500D01*
X10965000Y9562500D01*
Y9570000D01*
X11082500D01*
X11087500Y9565000D01*
D02*
G37*
G36*
X11235000Y9492501D02*
X11265000D01*
X11270000Y9487501D01*
Y9472502D01*
X11265000Y9467502D01*
X11235000Y9467502D01*
Y9460002D01*
X11117500D01*
X11112500Y9465002D01*
X11112500Y9495002D01*
X11117500Y9500002D01*
X11235000D01*
Y9492501D01*
D02*
G37*
G36*
X11087502Y9494998D02*
X11087502Y9464998D01*
X11082502Y9459998D01*
X10965002D01*
Y9467498D01*
X10935002D01*
X10930002Y9472498D01*
Y9487498D01*
X10935002Y9492498D01*
X10965002Y9492498D01*
Y9499998D01*
X11082502D01*
X11087502Y9494998D01*
D02*
G37*
G36*
X11235000Y9422500D02*
X11265000Y9422500D01*
X11270000Y9417500D01*
Y9402500D01*
X11265000Y9397500D01*
X11235000D01*
Y9390000D01*
X11187500D01*
Y9305000D01*
X11182500Y9300000D01*
X11167500D01*
X11162500Y9305000D01*
Y9390000D01*
X11137500D01*
Y9305000D01*
X11132500Y9300000D01*
X11117500D01*
X11112500Y9305000D01*
Y9390000D01*
X11087500D01*
Y9305000D01*
X11082500Y9300000D01*
X11067500D01*
X11062500Y9305000D01*
Y9390000D01*
X11037500D01*
Y9305000D01*
X11032500Y9300000D01*
X11017500D01*
X11012500Y9305000D01*
Y9390000D01*
X10965000D01*
Y9397500D01*
X10935000D01*
X10930000Y9402500D01*
Y9417500D01*
X10935000Y9422500D01*
X10965000D01*
Y9430000D01*
X11235000D01*
Y9422500D01*
D02*
G37*
G36*
X11902500Y8927500D02*
Y8877500D01*
X11892500Y8867500D01*
X11877500D01*
X11867500Y8877500D01*
Y8927500D01*
X11877500Y8937500D01*
X11892500D01*
X11902500Y8927500D01*
D02*
G37*
G36*
X11852500D02*
Y8877500D01*
X11842500Y8867500D01*
X11827500D01*
X11817500Y8877500D01*
Y8927500D01*
X11827500Y8937500D01*
X11842500D01*
X11852500Y8927500D01*
D02*
G37*
G36*
X11802500D02*
Y8877500D01*
X11792500Y8867500D01*
X11777500D01*
X11767500Y8877500D01*
Y8927500D01*
X11777500Y8937500D01*
X11792500D01*
X11802500Y8927500D01*
D02*
G37*
G36*
X11752500D02*
Y8877500D01*
X11742500Y8867500D01*
X11727500D01*
X11717500Y8877500D01*
Y8927500D01*
X11727500Y8937500D01*
X11742500D01*
X11752500Y8927500D01*
D02*
G37*
G36*
X11985000Y8857500D02*
Y8842500D01*
X11975000Y8832500D01*
X11925000D01*
X11915000Y8842500D01*
Y8857500D01*
X11925000Y8867500D01*
X11975000D01*
X11985000Y8857500D01*
D02*
G37*
G36*
X11705000D02*
Y8842500D01*
X11695000Y8832500D01*
X11645000D01*
X11635000Y8842500D01*
Y8857500D01*
X11645000Y8867500D01*
X11695000D01*
X11705000Y8857500D01*
D02*
G37*
G36*
X11985000Y8807500D02*
Y8792500D01*
X11975000Y8782500D01*
X11925000D01*
X11915000Y8792500D01*
Y8807500D01*
X11925000Y8817500D01*
X11975000D01*
X11985000Y8807500D01*
D02*
G37*
G36*
X11705000D02*
Y8792500D01*
X11695000Y8782500D01*
X11645000D01*
X11635000Y8792500D01*
Y8807500D01*
X11645000Y8817500D01*
X11695000D01*
X11705000Y8807500D01*
D02*
G37*
G36*
X11985000Y8757500D02*
Y8742500D01*
X11975000Y8732500D01*
X11925000D01*
X11915000Y8742500D01*
Y8757500D01*
X11925000Y8767500D01*
X11975000D01*
X11985000Y8757500D01*
D02*
G37*
G36*
X11705000D02*
Y8742500D01*
X11695000Y8732500D01*
X11645000D01*
X11635000Y8742500D01*
Y8757500D01*
X11645000Y8767500D01*
X11695000D01*
X11705000Y8757500D01*
D02*
G37*
G36*
X11945000Y8705003D02*
X11975000D01*
X11980000Y8700003D01*
Y8685003D01*
X11975000Y8680003D01*
X11945000D01*
Y8672503D01*
X11827500Y8672503D01*
X11822500Y8677503D01*
X11822500Y8707503D01*
X11827500Y8712503D01*
X11945000D01*
Y8705003D01*
D02*
G37*
G36*
X11797500Y8707500D02*
X11797500Y8677500D01*
X11792500Y8672500D01*
X11675000D01*
Y8680000D01*
X11645000Y8680000D01*
X11640000Y8685000D01*
Y8700000D01*
X11645000Y8705000D01*
X11675000Y8705000D01*
Y8712500D01*
X11792500D01*
X11797500Y8707500D01*
D02*
G37*
G36*
X11945000Y8635002D02*
X11975000D01*
X11980000Y8630002D01*
Y8615002D01*
X11975000Y8610002D01*
X11945000Y8610002D01*
Y8602502D01*
X11827500D01*
X11822500Y8607502D01*
X11822500Y8637502D01*
X11827500Y8642502D01*
X11945000D01*
Y8635002D01*
D02*
G37*
G36*
X11797502Y8637498D02*
X11797502Y8607498D01*
X11792502Y8602498D01*
X11675002D01*
Y8609999D01*
X11645002D01*
X11640002Y8614999D01*
Y8629998D01*
X11645002Y8634998D01*
X11675002Y8634998D01*
Y8642498D01*
X11792502D01*
X11797502Y8637498D01*
D02*
G37*
G36*
X12782500Y8627500D02*
Y8577500D01*
X12772500Y8567500D01*
X12757500D01*
X12747500Y8577500D01*
Y8627500D01*
X12757500Y8637500D01*
X12772500D01*
X12782500Y8627500D01*
D02*
G37*
G36*
X12732500D02*
Y8577500D01*
X12722500Y8567500D01*
X12707500D01*
X12697500Y8577500D01*
Y8627500D01*
X12707500Y8637500D01*
X12722500D01*
X12732500Y8627500D01*
D02*
G37*
G36*
X12682500D02*
Y8577500D01*
X12672500Y8567500D01*
X12657500D01*
X12647500Y8577500D01*
Y8627500D01*
X12657500Y8637500D01*
X12672500D01*
X12682500Y8627500D01*
D02*
G37*
G36*
X12632500D02*
Y8577500D01*
X12622500Y8567500D01*
X12607500D01*
X12597500Y8577500D01*
Y8627500D01*
X12607500Y8637500D01*
X12622500D01*
X12632500Y8627500D01*
D02*
G37*
G36*
X12864999Y8557500D02*
Y8542500D01*
X12855000Y8532500D01*
X12805000D01*
X12795000Y8542500D01*
Y8557500D01*
X12805000Y8567500D01*
X12855000D01*
X12864999Y8557500D01*
D02*
G37*
G36*
X12585000D02*
Y8542500D01*
X12575000Y8532500D01*
X12525000D01*
X12515000Y8542500D01*
Y8557500D01*
X12525000Y8567500D01*
X12575000D01*
X12585000Y8557500D01*
D02*
G37*
G36*
X12864999Y8507500D02*
Y8492500D01*
X12855000Y8482500D01*
X12805000D01*
X12795000Y8492500D01*
Y8507500D01*
X12805000Y8517500D01*
X12855000D01*
X12864999Y8507500D01*
D02*
G37*
G36*
X12585000D02*
Y8492500D01*
X12575000Y8482500D01*
X12525000D01*
X12515000Y8492500D01*
Y8507500D01*
X12525000Y8517500D01*
X12575000D01*
X12585000Y8507500D01*
D02*
G37*
G36*
X11945000Y8565000D02*
X11975000Y8565000D01*
X11980000Y8560000D01*
Y8545000D01*
X11975000Y8540000D01*
X11945000D01*
Y8532500D01*
X11897500D01*
Y8447500D01*
X11892500Y8442500D01*
X11877500D01*
X11872500Y8447500D01*
Y8532500D01*
X11847500D01*
Y8447500D01*
X11842500Y8442500D01*
X11827500D01*
X11822500Y8447500D01*
Y8532500D01*
X11797500D01*
Y8447500D01*
X11792500Y8442500D01*
X11777500D01*
X11772500Y8447500D01*
Y8532500D01*
X11747500D01*
Y8447500D01*
X11742500Y8442500D01*
X11727500D01*
X11722500Y8447500D01*
Y8532500D01*
X11675000D01*
Y8540000D01*
X11645000D01*
X11640000Y8545000D01*
Y8560000D01*
X11645000Y8565000D01*
X11675000D01*
Y8572500D01*
X11945000D01*
Y8565000D01*
D02*
G37*
G36*
X12864999Y8457500D02*
Y8442500D01*
X12855000Y8432500D01*
X12805000D01*
X12795000Y8442500D01*
Y8457500D01*
X12805000Y8467500D01*
X12855000D01*
X12864999Y8457500D01*
D02*
G37*
G36*
X12585000D02*
Y8442500D01*
X12575000Y8432500D01*
X12525000D01*
X12515000Y8442500D01*
Y8457500D01*
X12525000Y8467500D01*
X12575000D01*
X12585000Y8457500D01*
D02*
G37*
G36*
X12825000Y8405003D02*
X12855000D01*
X12860001Y8400003D01*
Y8385003D01*
X12855000Y8380003D01*
X12825000D01*
Y8372503D01*
X12707500Y8372503D01*
X12702500Y8377503D01*
X12702500Y8407503D01*
X12707500Y8412503D01*
X12825000D01*
Y8405003D01*
D02*
G37*
G36*
X12677500Y8407500D02*
X12677500Y8377500D01*
X12672500Y8372500D01*
X12555000D01*
Y8380000D01*
X12525000Y8380000D01*
X12520000Y8385000D01*
Y8400000D01*
X12525000Y8405000D01*
X12555000Y8405000D01*
Y8412500D01*
X12672500D01*
X12677500Y8407500D01*
D02*
G37*
G36*
X12825000Y8335001D02*
X12855000D01*
X12860001Y8330001D01*
Y8315001D01*
X12855000Y8310002D01*
X12825000Y8310001D01*
Y8302502D01*
X12707500D01*
X12702500Y8307502D01*
X12702500Y8337501D01*
X12707500Y8342501D01*
X12825000D01*
Y8335001D01*
D02*
G37*
G36*
X12677502Y8337498D02*
X12677502Y8307498D01*
X12672502Y8302498D01*
X12555002D01*
Y8309998D01*
X12525002D01*
X12520002Y8314998D01*
Y8329998D01*
X12525002Y8334998D01*
X12555002Y8334998D01*
Y8342498D01*
X12672502D01*
X12677502Y8337498D01*
D02*
G37*
G36*
X12825000Y8265000D02*
X12855000Y8265000D01*
X12860001Y8260000D01*
Y8245000D01*
X12855000Y8240000D01*
X12825000D01*
Y8232500D01*
X12777500D01*
Y8147500D01*
X12772500Y8142500D01*
X12757500D01*
X12752500Y8147500D01*
Y8232500D01*
X12727500D01*
Y8147500D01*
X12722500Y8142500D01*
X12707500D01*
X12702500Y8147500D01*
Y8232500D01*
X12677500D01*
Y8147500D01*
X12672500Y8142500D01*
X12657500D01*
X12652500Y8147500D01*
Y8232500D01*
X12627500D01*
Y8147500D01*
X12622500Y8142500D01*
X12607500D01*
X12602500Y8147500D01*
Y8232500D01*
X12555000D01*
Y8240000D01*
X12525000D01*
X12520000Y8245000D01*
Y8260000D01*
X12525000Y8265000D01*
X12555000D01*
Y8272500D01*
X12825000D01*
Y8265000D01*
D02*
G37*
D12*
X12732500Y10950000D02*
D03*
Y11015000D02*
D03*
Y11080000D02*
D03*
Y11145000D02*
D03*
Y11210000D02*
D03*
D13*
X13000000Y10960000D02*
D03*
Y11200000D02*
D03*
D14*
X12755000Y10760000D02*
D03*
Y11400000D02*
D03*
D17*
X12944501Y9677525D02*
D03*
X12817500D02*
D03*
X12690500D02*
D03*
X12563500D02*
D03*
X12436500D02*
D03*
X12309500D02*
D03*
X12182500D02*
D03*
X12055500D02*
D03*
Y10222475D02*
D03*
X12182500D02*
D03*
X12309500D02*
D03*
X12436500D02*
D03*
X12563500D02*
D03*
X12690500D02*
D03*
X12817500D02*
D03*
X12944501D02*
D03*
X11794500Y10327525D02*
D03*
X11667500D02*
D03*
X11540500D02*
D03*
X11413500D02*
D03*
X11286500D02*
D03*
X11159500D02*
D03*
X11032500D02*
D03*
X10905500D02*
D03*
Y10872475D02*
D03*
X11032500D02*
D03*
X11159500D02*
D03*
X11286500D02*
D03*
X11413500D02*
D03*
X11540500D02*
D03*
X11667500D02*
D03*
X11794500D02*
D03*
X10744500Y11177525D02*
D03*
X10617500D02*
D03*
X10490500D02*
D03*
X10363500D02*
D03*
X10236500D02*
D03*
X10109500D02*
D03*
X9982500D02*
D03*
X9855500D02*
D03*
Y11722475D02*
D03*
X9982500D02*
D03*
X10109500D02*
D03*
X10236500D02*
D03*
X10363500D02*
D03*
X10490500D02*
D03*
X10617500D02*
D03*
X10744500D02*
D03*
D30*
X12730000Y13627354D02*
D03*
X12650000D02*
D03*
X12570000D02*
D03*
X12490000D02*
D03*
X12410000D02*
D03*
X12330000D02*
D03*
X12250000D02*
D03*
X12170000D02*
D03*
Y12772645D02*
D03*
X12250000D02*
D03*
X12330000D02*
D03*
X12410000D02*
D03*
X12490000D02*
D03*
X12570000D02*
D03*
X12650000D02*
D03*
X12730000D02*
D03*
D31*
X12022645Y13480000D02*
D03*
Y13400000D02*
D03*
Y13320000D02*
D03*
Y13239999D02*
D03*
Y13160001D02*
D03*
Y13080000D02*
D03*
Y13000000D02*
D03*
Y12920000D02*
D03*
X12877354D02*
D03*
Y13000000D02*
D03*
Y13080000D02*
D03*
Y13160001D02*
D03*
Y13239999D02*
D03*
Y13320000D02*
D03*
Y13400000D02*
D03*
Y13480000D02*
D03*
D32*
X13449986Y8300000D02*
D03*
X13500000D02*
D03*
X13550014D02*
D03*
X13600024D02*
D03*
Y8460020D02*
D03*
X13550014D02*
D03*
X13500000D02*
D03*
X13449986D02*
D03*
D35*
X12425000Y11750000D02*
D03*
X12275000D02*
D03*
X11825000Y13850000D02*
D03*
X11675000D02*
D03*
X11425000Y13450000D02*
D03*
X11275000D02*
D03*
X11425000Y13600000D02*
D03*
X11275000D02*
D03*
D49*
X13000000Y10750000D02*
D03*
Y11410000D02*
D03*
D60*
X13700000Y7675000D02*
D03*
Y7825000D02*
D03*
X13899998Y8125000D02*
D03*
Y7975000D02*
D03*
X14099998Y8125000D02*
D03*
Y7975000D02*
D03*
X14299998Y8125000D02*
D03*
Y7975000D02*
D03*
X14499998Y8125000D02*
D03*
Y7975000D02*
D03*
X13300000Y9375000D02*
D03*
Y9225000D02*
D03*
X13500000Y9375000D02*
D03*
Y9225000D02*
D03*
X13700000Y9375000D02*
D03*
Y9225000D02*
D03*
X13500000Y9075000D02*
D03*
Y8925000D02*
D03*
X13300000D02*
D03*
Y9075000D02*
D03*
D61*
X10790000Y9570000D02*
D03*
X10650000D02*
D03*
X11570000Y11400000D02*
D03*
X11430000D02*
D03*
X13180000Y8750000D02*
D03*
X13320000D02*
D03*
X12620000Y10750000D02*
D03*
X12480000D02*
D03*
X13580000Y8600000D02*
D03*
X13720000D02*
D03*
X13600000Y8150000D02*
D03*
X13739999D02*
D03*
X11870000Y13000000D02*
D03*
X11730000D02*
D03*
X11730000Y12850000D02*
D03*
X11870000D02*
D03*
X10720000Y11000000D02*
D03*
X10580000D02*
D03*
X12630000Y8050000D02*
D03*
X12770000D02*
D03*
X11080000Y9150000D02*
D03*
X11220000D02*
D03*
X11730000Y8350000D02*
D03*
X11870000D02*
D03*
D62*
X13150000Y12300000D02*
D03*
X10536732Y12505425D02*
D03*
D63*
X13262941Y12039444D02*
D03*
X12986732Y12105425D02*
D03*
X13099673Y11844869D02*
D03*
X10886732Y8594575D02*
D03*
X10773791Y8334020D02*
D03*
X11050000Y8400000D02*
D03*
X14645621Y14314102D02*
D03*
X14750000Y14050000D02*
D03*
X14898654Y14291965D02*
D03*
X10345246Y9606214D02*
D03*
X10150000Y9400000D02*
D03*
X10432119Y9367532D02*
D03*
X14922446Y13273471D02*
D03*
X14700000Y13450000D02*
D03*
X14692244Y13166125D02*
D03*
X10204000Y10527000D02*
D03*
X9950000Y10400000D02*
D03*
X10204000Y10273000D02*
D03*
X10423790Y12765980D02*
D03*
X10700000Y12700000D02*
D03*
X10587059Y12960555D02*
D03*
D64*
X13377879Y12291544D02*
D03*
X10658420Y8751543D02*
D03*
X14373187Y14263654D02*
D03*
X10184389Y9831802D02*
D03*
X15133156Y13453375D02*
D03*
X10130000Y10794000D02*
D03*
X10308854Y12513880D02*
D03*
D65*
X10610523Y8528595D02*
D03*
D66*
X14496967Y14072137D02*
D03*
D67*
X10063127Y9638682D02*
D03*
D68*
X14930202Y13557346D02*
D03*
D69*
X9950000Y10654000D02*
D03*
D70*
X11400000Y11800000D02*
D03*
X14000000Y13600000D02*
D03*
X14400000Y7450000D02*
D03*
D80*
X13246500Y14073000D02*
D03*
X13653500D02*
D03*
X13246500Y13946001D02*
D03*
X13653500D02*
D03*
X13246500Y14453999D02*
D03*
X13653500D02*
D03*
X13246500Y14327000D02*
D03*
X13653500D02*
D03*
X13246500Y14200000D02*
D03*
X13653200D02*
D03*
D81*
X12425000Y11600000D02*
D03*
X12275000D02*
D03*
X13325000Y8470000D02*
D03*
X13175000D02*
D03*
X13175000Y8600000D02*
D03*
X13325000D02*
D03*
X12125000Y13850000D02*
D03*
X11975000D02*
D03*
X11725000Y13450000D02*
D03*
X11575000D02*
D03*
X11725000Y13600000D02*
D03*
X11575000D02*
D03*
X11495000Y8780000D02*
D03*
X11345000D02*
D03*
D82*
X13300000Y8300000D02*
D03*
Y8150000D02*
D03*
X13450000Y7975000D02*
D03*
Y8125000D02*
D03*
X12750000Y8775000D02*
D03*
Y8925000D02*
D03*
X11150000Y9875000D02*
D03*
Y10025000D02*
D03*
X11900000Y9025000D02*
D03*
Y9175000D02*
D03*
X12600000Y8775000D02*
D03*
Y8925000D02*
D03*
X11000000Y9875000D02*
D03*
Y10025000D02*
D03*
X11750000Y9025000D02*
D03*
Y9175000D02*
D03*
X12450000Y8650000D02*
D03*
Y8800000D02*
D03*
X10850000Y9800000D02*
D03*
Y9950000D02*
D03*
D83*
X15000000Y8700000D02*
D03*
D84*
X15190500Y8204700D02*
D03*
X15063499D02*
D03*
X14936501D02*
D03*
X14809500D02*
D03*
D85*
X12553200Y10900000D02*
D03*
X12350000D02*
D03*
Y11154000D02*
D03*
X12553200D02*
D03*
X12451600D02*
D03*
D86*
X11750000Y11590000D02*
D03*
Y11400000D02*
D03*
X11990000Y11590000D02*
D03*
Y11495000D02*
D03*
Y11400000D02*
D03*
D87*
X15125000Y8000000D02*
D03*
X14975000D02*
D03*
D88*
X13450000Y8730000D02*
D03*
Y8590000D02*
D03*
X12150000Y11400000D02*
D03*
Y11260000D02*
D03*
X13700000Y9020000D02*
D03*
Y8880000D02*
D03*
X12800000Y13780000D02*
D03*
Y13920000D02*
D03*
X12500000Y13920000D02*
D03*
Y13780000D02*
D03*
X12150000Y12480000D02*
D03*
Y12620000D02*
D03*
X12650000Y13920000D02*
D03*
Y13780000D02*
D03*
X12950000Y9520000D02*
D03*
Y9380000D02*
D03*
Y10520000D02*
D03*
Y10380000D02*
D03*
X11800000Y10170000D02*
D03*
Y10030000D02*
D03*
Y11220000D02*
D03*
Y11080000D02*
D03*
X10750000Y12070000D02*
D03*
Y11930000D02*
D03*
X13050000Y8570000D02*
D03*
Y8430000D02*
D03*
X12150000Y8850000D02*
D03*
Y8710000D02*
D03*
D89*
X14100000Y8606300D02*
D03*
Y9000000D02*
D03*
D90*
X13800000Y7100000D02*
D03*
X13350000D02*
D03*
X15500000Y8100000D02*
D03*
Y8600000D02*
D03*
X12500000Y7800000D02*
D03*
X10837300Y9100000D02*
D03*
X11600000Y8100000D02*
D03*
X12900000Y7800000D02*
D03*
X11450000Y9100000D02*
D03*
X12000000Y8100000D02*
D03*
%TF.MD5,6506ea120b0be0cd5ba1eb06284835a1*%
M02*
