%TF.GenerationSoftware,Altium Limited,Altium Designer,22.9.1 (49)*%
G04 Layer_Physical_Order=2*
G04 Layer_Color=36540*
%FSLAX45Y45*%
%MOMM*%
%TF.SameCoordinates,A07B7C20-9008-4073-B72B-9E11D2315A39*%
%TF.FilePolarity,Positive*%
%TF.FileFunction,Copper,L2,Inr,Signal*%
%TF.Part,Single*%
G01*
G75*
%TA.AperFunction,ComponentPad*%
G04:AMPARAMS|DCode=49|XSize=0.9mm|YSize=1.6mm|CornerRadius=0.45mm|HoleSize=0mm|Usage=FLASHONLY|Rotation=90.000|XOffset=0mm|YOffset=0mm|HoleType=Round|Shape=RoundedRectangle|*
%AMROUNDEDRECTD49*
21,1,0.90000,0.70000,0,0,90.0*
21,1,0.00000,1.60000,0,0,90.0*
1,1,0.90000,0.35000,0.00000*
1,1,0.90000,0.35000,0.00000*
1,1,0.90000,-0.35000,0.00000*
1,1,0.90000,-0.35000,0.00000*
%
%ADD49ROUNDEDRECTD49*%
%ADD50P,1.92050X4X275.0*%
%ADD51C,1.35800*%
%ADD52C,1.55000*%
%ADD53P,1.92050X4X355.0*%
%ADD54P,1.92050X4X400.0*%
%ADD55P,1.92050X4X335.0*%
%ADD56P,1.92050X4X250.0*%
%ADD57R,1.35800X1.35800*%
%ADD58C,4.00000*%
%TA.AperFunction,ViaPad*%
%ADD59C,0.45000*%
G36*
X13653273Y14820036D02*
X13845305Y14807401D01*
X14036491Y14785500D01*
X14226407Y14754382D01*
X14414597Y14714125D01*
X14600607Y14664822D01*
X14784032Y14606583D01*
X14964424Y14539548D01*
X15141367Y14463872D01*
X15314439Y14379736D01*
X15483249Y14287332D01*
X15561037Y14239726D01*
X15580663Y14206882D01*
X15618050Y14128801D01*
X15648103Y14047617D01*
X15670569Y13964009D01*
X15685255Y13878696D01*
X15692039Y13792392D01*
X15690862Y13705827D01*
X15681735Y13619740D01*
X15664734Y13534856D01*
X15640005Y13451891D01*
X15607755Y13371552D01*
X15568259Y13294518D01*
X15521851Y13221439D01*
X15468922Y13152934D01*
X15409920Y13089581D01*
X15345346Y13031921D01*
X15275748Y12980441D01*
X15201711Y12935571D01*
X15123866Y12897699D01*
X15042867Y12867140D01*
X14959404Y12844154D01*
X14874181Y12828937D01*
X14787924Y12821616D01*
X14701353Y12822253D01*
X14658282Y12826549D01*
X14657413Y12826463D01*
X14656558Y12826646D01*
X14653477Y12826082D01*
X14650365Y12825780D01*
X14649593Y12825368D01*
X14648732Y12825211D01*
X14569417Y12793708D01*
X14569041Y12793465D01*
X14568605Y12793365D01*
X14412862Y12723570D01*
X14412376Y12723225D01*
X14411804Y12723059D01*
X14260342Y12644404D01*
X14259877Y12644032D01*
X14259315Y12643833D01*
X14112639Y12556579D01*
X14112196Y12556181D01*
X14111646Y12555949D01*
X13970242Y12460388D01*
X13969823Y12459964D01*
X13969289Y12459702D01*
X13833626Y12356150D01*
X13833232Y12355702D01*
X13832712Y12355410D01*
X13703246Y12244211D01*
X13702876Y12243742D01*
X13702374Y12243420D01*
X13579532Y12124944D01*
X13579192Y12124455D01*
X13578709Y12124104D01*
X13462898Y11998746D01*
X13462585Y11998237D01*
X13462125Y11997859D01*
X13353731Y11866034D01*
X13353448Y11865509D01*
X13353011Y11865105D01*
X13252394Y11727253D01*
X13252142Y11726712D01*
X13251727Y11726283D01*
X13159224Y11582861D01*
X13159059Y11582444D01*
X13158762Y11582110D01*
X13115649Y11508459D01*
X13115190Y11507131D01*
X13114407Y11505961D01*
X13113899Y11503404D01*
X13113046Y11500940D01*
X13113130Y11499537D01*
X13112856Y11498158D01*
Y11413906D01*
X13100156Y11413074D01*
X13099368Y11419050D01*
X13098328Y11426969D01*
X13091777Y11442780D01*
X13081358Y11456358D01*
X13067780Y11466777D01*
X13051968Y11473327D01*
X13035001Y11475561D01*
X12964999D01*
X12948032Y11473327D01*
X12932219Y11466777D01*
X12918642Y11456358D01*
X12908223Y11442780D01*
X12901672Y11426969D01*
X12899438Y11410000D01*
X12901672Y11393032D01*
X12908223Y11377220D01*
X12918642Y11363642D01*
X12932219Y11353223D01*
X12948032Y11346673D01*
X12964999Y11344439D01*
X13035001D01*
X13051968Y11346673D01*
X13067780Y11353223D01*
X13081358Y11363642D01*
X13091777Y11377220D01*
X13098328Y11393032D01*
X13100156Y11406926D01*
X13112856Y11406094D01*
X13112856Y10753905D01*
X13100156Y10753073D01*
X13099368Y10759051D01*
X13098328Y10766968D01*
X13091777Y10782780D01*
X13081358Y10796358D01*
X13067780Y10806777D01*
X13051968Y10813327D01*
X13035001Y10815561D01*
X12964999D01*
X12948032Y10813327D01*
X12932219Y10806777D01*
X12918642Y10796358D01*
X12908223Y10782780D01*
X12901672Y10766968D01*
X12899438Y10750000D01*
X12901672Y10733031D01*
X12908223Y10717220D01*
X12918642Y10703642D01*
X12932219Y10693223D01*
X12948032Y10686673D01*
X12964999Y10684439D01*
X13035001D01*
X13051968Y10686673D01*
X13067780Y10693223D01*
X13081358Y10703642D01*
X13091777Y10717220D01*
X13098328Y10733031D01*
X13100156Y10746927D01*
X13112856Y10746095D01*
Y10221686D01*
X13113257Y10219672D01*
X13113266Y10217618D01*
X13114026Y10215808D01*
X13114407Y10213883D01*
X13115550Y10212175D01*
X13116344Y10210281D01*
X13149451Y10161214D01*
X13143489Y10150000D01*
X12000000D01*
Y10800000D01*
X10850000D01*
Y11650000D01*
X9600410D01*
X9592303Y11659776D01*
X9594876Y11673446D01*
X9639574Y11860625D01*
X9693268Y12045430D01*
X9755828Y12227418D01*
X9827112Y12406172D01*
X9906951Y12581272D01*
X9995161Y12752313D01*
X10091532Y12918886D01*
X10195841Y13080608D01*
X10307845Y13237100D01*
X10427278Y13387994D01*
X10553868Y13532944D01*
X10687315Y13671605D01*
X10827307Y13803653D01*
X10973514Y13928781D01*
X11125602Y14046700D01*
X11283208Y14157126D01*
X11445969Y14259808D01*
X11613503Y14354507D01*
X11785415Y14440996D01*
X11961303Y14519073D01*
X12140766Y14588562D01*
X12323373Y14649295D01*
X12508709Y14701134D01*
X12696328Y14743953D01*
X12885796Y14777655D01*
X13076671Y14802161D01*
X13268509Y14817413D01*
X13460857Y14823376D01*
X13653273Y14820036D01*
D02*
G37*
G36*
X10788267Y11238267D02*
X10750000Y11200000D01*
Y10400000D01*
X11850000D01*
Y9750000D01*
X13503586D01*
X13581845Y9678198D01*
X13582397Y9677861D01*
X13582812Y9677364D01*
X13704552Y9578964D01*
X13705124Y9578663D01*
X13705569Y9578193D01*
X13833228Y9487604D01*
X13833818Y9487340D01*
X13834291Y9486898D01*
X13967369Y9404477D01*
X13967975Y9404250D01*
X13968475Y9403839D01*
X14106450Y9329907D01*
X14107069Y9329718D01*
X14107594Y9329339D01*
X14249925Y9264188D01*
X14250555Y9264038D01*
X14251102Y9263693D01*
X14397232Y9207576D01*
X14397870Y9207466D01*
X14398438Y9207156D01*
X14547794Y9160295D01*
X14548436Y9160225D01*
X14549022Y9159951D01*
X14701018Y9122528D01*
X14701665Y9122499D01*
X14702266Y9122262D01*
X14856306Y9094425D01*
X14856952Y9094437D01*
X14857568Y9094238D01*
X15013048Y9076096D01*
X15013693Y9076147D01*
X15014320Y9075987D01*
X15170630Y9067612D01*
X15171111Y9067681D01*
X15171587Y9067583D01*
X15247559Y9067084D01*
X15286374Y9057915D01*
X15366347Y9031003D01*
X15443489Y8996807D01*
X15517137Y8955622D01*
X15586659Y8907801D01*
X15651459Y8853755D01*
X15710982Y8793945D01*
X15764716Y8728886D01*
X15812202Y8659134D01*
X15853032Y8585289D01*
X15886855Y8507984D01*
X15913382Y8427883D01*
X15932385Y8345669D01*
X15943703Y8262049D01*
X15947237Y8177741D01*
X15942955Y8093467D01*
X15930898Y8009954D01*
X15911163Y7927913D01*
X15883926Y7848047D01*
X15849419Y7771046D01*
X15807935Y7697566D01*
X15759831Y7628239D01*
X15705522Y7563659D01*
X15645470Y7504379D01*
X15613802Y7478439D01*
X15533531Y7427682D01*
X15366095Y7332813D01*
X15194272Y7246149D01*
X15018459Y7167888D01*
X14839069Y7098216D01*
X14656523Y7037295D01*
X14523164Y6999847D01*
X14519003Y7011870D01*
X14524074Y7013970D01*
X14536031Y7025926D01*
X14542500Y7041546D01*
Y7058454D01*
X14536031Y7074074D01*
X14524074Y7086030D01*
X14508453Y7092500D01*
X14491547D01*
X14475926Y7086030D01*
X14463969Y7074074D01*
X14457500Y7058454D01*
Y7041546D01*
X14463969Y7025926D01*
X14475926Y7013970D01*
X14491547Y7007500D01*
X14503442D01*
X14505191Y6994800D01*
X14471248Y6985269D01*
X14283673Y6942257D01*
X14094237Y6908360D01*
X13903386Y6883658D01*
X13711563Y6868209D01*
X13519215Y6862049D01*
X13326801Y6865191D01*
X13134763Y6877630D01*
X12943542Y6899335D01*
X12753600Y6930256D01*
X12565372Y6970321D01*
X12379302Y7019435D01*
X12195828Y7077483D01*
X12015364Y7144335D01*
X11838345Y7219827D01*
X11665184Y7303787D01*
X11496282Y7396017D01*
X11332032Y7496303D01*
X11172824Y7604409D01*
X11019026Y7720084D01*
X10870998Y7843056D01*
X10729089Y7973035D01*
X10593622Y8109726D01*
X10464920Y8252805D01*
X10343288Y8401931D01*
X10229003Y8556763D01*
X10122333Y8716941D01*
X10023532Y8882082D01*
X9932824Y9051811D01*
X9850425Y9225723D01*
X9776530Y9403409D01*
X9711307Y9584466D01*
X9654912Y9768457D01*
X9607473Y9954968D01*
X9569104Y10143544D01*
X9539894Y10333759D01*
X9519911Y10525160D01*
X9509202Y10717309D01*
X9507791Y10909749D01*
X9515682Y11102023D01*
X9528942Y11250000D01*
X10783406D01*
X10788267Y11238267D01*
D02*
G37*
%LPC*%
G36*
X14641754Y14402676D02*
X14618961Y14398659D01*
X14597984Y14388876D01*
X14580255Y14373999D01*
X14566980Y14355040D01*
X14559064Y14333292D01*
X14557047Y14310236D01*
X14561066Y14287442D01*
X14570847Y14266466D01*
X14585724Y14248737D01*
X14604683Y14235461D01*
X14626431Y14227547D01*
X14649487Y14225528D01*
X14672281Y14229547D01*
X14693257Y14239330D01*
X14710986Y14254205D01*
X14724261Y14273164D01*
X14732178Y14294913D01*
X14734195Y14317970D01*
X14730176Y14340762D01*
X14720393Y14361739D01*
X14705518Y14379468D01*
X14686559Y14392743D01*
X14664810Y14400659D01*
X14641754Y14402676D01*
D02*
G37*
G36*
X14894788Y14380539D02*
X14871994Y14376520D01*
X14851018Y14366739D01*
X14833289Y14351862D01*
X14820013Y14332903D01*
X14812097Y14311154D01*
X14810080Y14288098D01*
X14814099Y14265305D01*
X14823880Y14244328D01*
X14838757Y14226599D01*
X14857716Y14213324D01*
X14879465Y14205408D01*
X14902521Y14203391D01*
X14925314Y14207410D01*
X14946291Y14217191D01*
X14964020Y14232068D01*
X14977295Y14251027D01*
X14985211Y14272775D01*
X14987228Y14295831D01*
X14983209Y14318625D01*
X14973428Y14339601D01*
X14958551Y14357330D01*
X14939592Y14370605D01*
X14917844Y14378522D01*
X14894788Y14380539D01*
D02*
G37*
G36*
X14368898Y14361902D02*
X14364658Y14361154D01*
X14360352D01*
X14352063Y14358934D01*
X14343616Y14357443D01*
X14339713Y14355624D01*
X14335553Y14354510D01*
X14328123Y14350220D01*
X14320349Y14346594D01*
X14317050Y14343826D01*
X14313321Y14341673D01*
X14307254Y14335606D01*
X14300682Y14330093D01*
X14298212Y14326566D01*
X14295168Y14323521D01*
X14290878Y14316092D01*
X14285957Y14309064D01*
X14284485Y14305017D01*
X14282332Y14301288D01*
X14280112Y14293002D01*
X14277177Y14284940D01*
X14276802Y14280649D01*
X14275687Y14276491D01*
Y14267912D01*
X14274939Y14259364D01*
X14275687Y14255124D01*
Y14250818D01*
X14277908Y14242531D01*
X14279398Y14234084D01*
X14281216Y14230180D01*
X14282332Y14226021D01*
X14286621Y14218591D01*
X14290247Y14210815D01*
X14293015Y14207516D01*
X14295168Y14203789D01*
X14301234Y14197720D01*
X14306749Y14191150D01*
X14310275Y14188680D01*
X14313321Y14185635D01*
X14320750Y14181346D01*
X14327779Y14176425D01*
X14331825Y14174953D01*
X14335553Y14172800D01*
X14343839Y14170580D01*
X14351901Y14167644D01*
X14356192Y14167268D01*
X14360352Y14166154D01*
X14368930D01*
X14377477Y14165407D01*
X14381717Y14166154D01*
X14386023D01*
X14394312Y14168375D01*
X14402759Y14169865D01*
X14406662Y14171684D01*
X14410822Y14172800D01*
X14418251Y14177089D01*
X14426025Y14180714D01*
X14429324Y14183482D01*
X14433054Y14185635D01*
X14439120Y14191702D01*
X14445692Y14197215D01*
X14448161Y14200745D01*
X14451207Y14203789D01*
X14455496Y14211217D01*
X14460417Y14218245D01*
X14461890Y14222292D01*
X14464043Y14226021D01*
X14466263Y14234306D01*
X14469197Y14242371D01*
X14469572Y14246660D01*
X14470686Y14250818D01*
Y14259396D01*
X14471436Y14267944D01*
X14470686Y14272185D01*
Y14276491D01*
X14468466Y14284778D01*
X14466977Y14293227D01*
X14465157Y14297128D01*
X14464043Y14301288D01*
X14459753Y14308717D01*
X14456126Y14316493D01*
X14453360Y14319792D01*
X14451207Y14323521D01*
X14445140Y14329588D01*
X14439626Y14336159D01*
X14436098Y14338629D01*
X14433054Y14341673D01*
X14425624Y14345963D01*
X14418596Y14350883D01*
X14414549Y14352357D01*
X14410822Y14354510D01*
X14402534Y14356731D01*
X14394472Y14359665D01*
X14390182Y14360040D01*
X14386023Y14361154D01*
X14377444D01*
X14368898Y14361902D01*
D02*
G37*
G36*
X13458453Y14092500D02*
X13441547D01*
X13425926Y14086031D01*
X13413969Y14074074D01*
X13407500Y14058453D01*
Y14041547D01*
X13413969Y14025926D01*
X13425926Y14013969D01*
X13441547Y14007500D01*
X13458453D01*
X13474074Y14013969D01*
X13486031Y14025926D01*
X13492500Y14041547D01*
Y14058453D01*
X13486031Y14074074D01*
X13474074Y14086031D01*
X13458453Y14092500D01*
D02*
G37*
G36*
X14746133Y14138574D02*
X14723340Y14134555D01*
X14702364Y14124774D01*
X14684634Y14109897D01*
X14671359Y14090938D01*
X14663443Y14069189D01*
X14661426Y14046133D01*
X14665445Y14023340D01*
X14675226Y14002364D01*
X14690103Y13984634D01*
X14709062Y13971359D01*
X14730811Y13963443D01*
X14753867Y13961426D01*
X14776660Y13965445D01*
X14797636Y13975226D01*
X14815366Y13990103D01*
X14828641Y14009062D01*
X14836557Y14030811D01*
X14838574Y14053867D01*
X14834555Y14076660D01*
X14824774Y14097636D01*
X14809897Y14115366D01*
X14790938Y14128641D01*
X14769189Y14136557D01*
X14746133Y14138574D01*
D02*
G37*
G36*
X14858453Y13942500D02*
X14841547D01*
X14825926Y13936031D01*
X14813969Y13924074D01*
X14807500Y13908453D01*
Y13891547D01*
X14813969Y13875926D01*
X14825926Y13863969D01*
X14841547Y13857500D01*
X14858453D01*
X14874074Y13863969D01*
X14886031Y13875926D01*
X14892500Y13891547D01*
Y13908453D01*
X14886031Y13924074D01*
X14874074Y13936031D01*
X14858453Y13942500D01*
D02*
G37*
G36*
X13258453Y13892500D02*
X13241547D01*
X13225926Y13886031D01*
X13213969Y13874074D01*
X13207500Y13858453D01*
Y13841547D01*
X13213969Y13825926D01*
X13225926Y13813969D01*
X13241547Y13807500D01*
X13258453D01*
X13274074Y13813969D01*
X13286031Y13825926D01*
X13292500Y13841547D01*
Y13858453D01*
X13286031Y13874074D01*
X13274074Y13886031D01*
X13258453Y13892500D01*
D02*
G37*
G36*
X12208454D02*
X12191547D01*
X12175926Y13886031D01*
X12163971Y13874074D01*
X12157500Y13858453D01*
Y13841547D01*
X12163971Y13825926D01*
X12175926Y13813969D01*
X12191547Y13807500D01*
X12208454D01*
X12224074Y13813969D01*
X12236030Y13825926D01*
X12242500Y13841547D01*
Y13858453D01*
X12236030Y13874074D01*
X12224074Y13886031D01*
X12208454Y13892500D01*
D02*
G37*
G36*
X13608453Y13692500D02*
X13591547D01*
X13575926Y13686031D01*
X13563969Y13674074D01*
X13557500Y13658453D01*
Y13641547D01*
X13563969Y13625926D01*
X13575926Y13613969D01*
X13591547Y13607500D01*
X13608453D01*
X13624074Y13613969D01*
X13636031Y13625926D01*
X13642500Y13641547D01*
Y13658453D01*
X13636031Y13674074D01*
X13624074Y13686031D01*
X13608453Y13692500D01*
D02*
G37*
G36*
X13108453D02*
X13091547D01*
X13075926Y13686031D01*
X13063969Y13674074D01*
X13057500Y13658453D01*
Y13641547D01*
X13063969Y13625926D01*
X13075926Y13613969D01*
X13091547Y13607500D01*
X13108453D01*
X13124074Y13613969D01*
X13136031Y13625926D01*
X13142500Y13641547D01*
Y13658453D01*
X13136031Y13674074D01*
X13124074Y13686031D01*
X13108453Y13692500D01*
D02*
G37*
G36*
X12058454Y13642500D02*
X12041546D01*
X12025926Y13636031D01*
X12013970Y13624074D01*
X12007500Y13608453D01*
Y13591547D01*
X12013970Y13575926D01*
X12025926Y13563969D01*
X12041546Y13557500D01*
X12058454D01*
X12074074Y13563969D01*
X12086030Y13575926D01*
X12092500Y13591547D01*
Y13608453D01*
X12086030Y13624074D01*
X12074074Y13636031D01*
X12058454Y13642500D01*
D02*
G37*
G36*
X12578454Y13562500D02*
X12561546D01*
X12545926Y13556030D01*
X12533970Y13544073D01*
X12527500Y13528455D01*
Y13511546D01*
X12533970Y13495926D01*
X12545926Y13483971D01*
X12561546Y13477499D01*
X12578454D01*
X12594074Y13483971D01*
X12596089Y13485985D01*
X12608546Y13483508D01*
X12610071Y13479825D01*
X12622027Y13467870D01*
X12637647Y13461398D01*
X12654554D01*
X12670175Y13467870D01*
X12682130Y13479825D01*
X12688600Y13495445D01*
Y13512354D01*
X12682130Y13527972D01*
X12670175Y13539929D01*
X12654554Y13546399D01*
X12637647D01*
X12622027Y13539929D01*
X12620011Y13537914D01*
X12607555Y13540392D01*
X12606030Y13544073D01*
X12594074Y13556030D01*
X12578454Y13562500D01*
D02*
G37*
G36*
X12258454Y13492500D02*
X12241546D01*
X12225926Y13486031D01*
X12213970Y13474074D01*
X12207500Y13458453D01*
Y13441547D01*
X12213970Y13425926D01*
X12225926Y13413969D01*
X12241546Y13407500D01*
X12258454D01*
X12274074Y13413969D01*
X12286030Y13425926D01*
X12292500Y13441547D01*
Y13458453D01*
X12286030Y13474074D01*
X12274074Y13486031D01*
X12258454Y13492500D01*
D02*
G37*
G36*
X14021667Y13820000D02*
X13978333D01*
X13935828Y13811545D01*
X13895792Y13794962D01*
X13859758Y13770885D01*
X13829115Y13740242D01*
X13805038Y13704208D01*
X13788455Y13664172D01*
X13780000Y13621667D01*
Y13578333D01*
X13788455Y13535828D01*
X13805038Y13495792D01*
X13829115Y13459758D01*
X13859758Y13429115D01*
X13895792Y13405038D01*
X13935828Y13388455D01*
X13978333Y13380000D01*
X14021667D01*
X14064172Y13388455D01*
X14104208Y13405038D01*
X14140242Y13429115D01*
X14170885Y13459758D01*
X14194962Y13495792D01*
X14211545Y13535828D01*
X14220000Y13578333D01*
Y13621667D01*
X14211545Y13664172D01*
X14194962Y13704208D01*
X14170885Y13740242D01*
X14140242Y13770885D01*
X14104208Y13794962D01*
X14064172Y13811545D01*
X14021667Y13820000D01*
D02*
G37*
G36*
X14696133Y13538574D02*
X14673340Y13534555D01*
X14652364Y13524774D01*
X14634634Y13509897D01*
X14621359Y13490938D01*
X14613443Y13469189D01*
X14611426Y13446133D01*
X14615445Y13423340D01*
X14625226Y13402364D01*
X14640103Y13384634D01*
X14659062Y13371359D01*
X14680811Y13363443D01*
X14703867Y13361426D01*
X14726660Y13365445D01*
X14747636Y13375226D01*
X14765366Y13390105D01*
X14778641Y13409062D01*
X14786557Y13430811D01*
X14788574Y13453867D01*
X14784555Y13476660D01*
X14774774Y13497636D01*
X14759897Y13515366D01*
X14740938Y13528641D01*
X14719189Y13536557D01*
X14696133Y13538574D01*
D02*
G37*
G36*
X15128867Y13551624D02*
X15124628Y13550876D01*
X15120320D01*
X15112033Y13548656D01*
X15103584Y13547166D01*
X15099683Y13545346D01*
X15095523Y13544232D01*
X15088094Y13539943D01*
X15080318Y13536317D01*
X15077019Y13533548D01*
X15073289Y13531396D01*
X15067224Y13525330D01*
X15060652Y13519815D01*
X15058182Y13516287D01*
X15055138Y13513243D01*
X15050848Y13505814D01*
X15045927Y13498785D01*
X15044453Y13494739D01*
X15042300Y13491010D01*
X15040080Y13482726D01*
X15037146Y13474661D01*
X15036771Y13470372D01*
X15035657Y13466212D01*
Y13457632D01*
X15034909Y13449088D01*
X15035657Y13444847D01*
Y13440540D01*
X15037877Y13432253D01*
X15039368Y13423805D01*
X15041187Y13419902D01*
X15042300Y13415742D01*
X15046590Y13408315D01*
X15050217Y13400539D01*
X15052985Y13397240D01*
X15055138Y13393510D01*
X15061203Y13387444D01*
X15066718Y13380872D01*
X15070245Y13378403D01*
X15073289Y13375357D01*
X15080719Y13371068D01*
X15087747Y13366147D01*
X15091794Y13364674D01*
X15095523Y13362521D01*
X15103809Y13360301D01*
X15111871Y13357365D01*
X15116161Y13356992D01*
X15120320Y13355878D01*
X15128902D01*
X15137447Y13355128D01*
X15141685Y13355878D01*
X15145993D01*
X15154280Y13358096D01*
X15162727Y13359587D01*
X15166631Y13361407D01*
X15170790Y13362521D01*
X15178220Y13366811D01*
X15185995Y13370436D01*
X15189294Y13373204D01*
X15193024Y13375357D01*
X15199089Y13381422D01*
X15205661Y13386938D01*
X15208131Y13390465D01*
X15211176Y13393510D01*
X15215465Y13400938D01*
X15220386Y13407967D01*
X15221860Y13412013D01*
X15224013Y13415742D01*
X15226231Y13424028D01*
X15229167Y13432091D01*
X15229543Y13436382D01*
X15230656Y13440540D01*
Y13449121D01*
X15231404Y13457666D01*
X15230656Y13461906D01*
Y13466212D01*
X15228436Y13474500D01*
X15226945Y13482948D01*
X15225127Y13486852D01*
X15224013Y13491010D01*
X15219724Y13498439D01*
X15216096Y13506215D01*
X15213329Y13509514D01*
X15211176Y13513243D01*
X15205110Y13519308D01*
X15199596Y13525880D01*
X15196066Y13528351D01*
X15193024Y13531396D01*
X15185593Y13535686D01*
X15178566Y13540607D01*
X15174519Y13542079D01*
X15170790Y13544232D01*
X15162505Y13546452D01*
X15154440Y13549387D01*
X15150153Y13549762D01*
X15145993Y13550876D01*
X15137411D01*
X15128867Y13551624D01*
D02*
G37*
G36*
X12358454Y13442500D02*
X12341546D01*
X12325926Y13436031D01*
X12313970Y13424074D01*
X12307500Y13408453D01*
Y13391547D01*
X12313970Y13375926D01*
X12325926Y13363969D01*
X12341546Y13357500D01*
X12357500D01*
Y13341547D01*
X12363970Y13325926D01*
X12375926Y13313969D01*
X12391546Y13307500D01*
X12408454D01*
X12424074Y13313969D01*
X12436030Y13325926D01*
X12442500Y13341547D01*
Y13358453D01*
X12436030Y13374074D01*
X12424074Y13386031D01*
X12408454Y13392500D01*
X12392500D01*
Y13408453D01*
X12386030Y13424074D01*
X12374074Y13436031D01*
X12358454Y13442500D01*
D02*
G37*
G36*
X12708454Y13342500D02*
X12691546D01*
X12675926Y13336031D01*
X12663970Y13324074D01*
X12657500Y13308453D01*
Y13291547D01*
X12663970Y13275926D01*
X12675926Y13263969D01*
X12691546Y13257500D01*
X12708454D01*
X12724074Y13263969D01*
X12736030Y13275926D01*
X12742500Y13291547D01*
Y13308453D01*
X12736030Y13324074D01*
X12724074Y13336031D01*
X12708454Y13342500D01*
D02*
G37*
G36*
X14918579Y13362044D02*
X14895786Y13358026D01*
X14874809Y13348244D01*
X14857080Y13333366D01*
X14843805Y13314407D01*
X14835889Y13292661D01*
X14833871Y13269603D01*
X14837891Y13246809D01*
X14847672Y13225835D01*
X14862549Y13208105D01*
X14881508Y13194829D01*
X14903256Y13186914D01*
X14926312Y13184897D01*
X14949106Y13188914D01*
X14970082Y13198697D01*
X14987811Y13213574D01*
X15001086Y13232533D01*
X15009003Y13254282D01*
X15011020Y13277338D01*
X15007001Y13300131D01*
X14997220Y13321107D01*
X14982343Y13338837D01*
X14963383Y13352112D01*
X14941635Y13360027D01*
X14918579Y13362044D01*
D02*
G37*
G36*
X12148454Y13202499D02*
X12131546D01*
X12115926Y13196030D01*
X12103970Y13184074D01*
X12097500Y13168454D01*
Y13151546D01*
X12103970Y13135925D01*
X12115926Y13123970D01*
X12131546Y13117500D01*
X12148454D01*
X12164074Y13123970D01*
X12176030Y13135925D01*
X12182500Y13151546D01*
Y13168454D01*
X12176030Y13184074D01*
X12164074Y13196030D01*
X12148454Y13202499D01*
D02*
G37*
G36*
X14688377Y13254700D02*
X14665584Y13250681D01*
X14644608Y13240900D01*
X14626878Y13226022D01*
X14613603Y13207063D01*
X14605687Y13185315D01*
X14603670Y13162257D01*
X14607689Y13139465D01*
X14617470Y13118489D01*
X14632347Y13100760D01*
X14651306Y13087485D01*
X14673055Y13079568D01*
X14696111Y13077551D01*
X14718904Y13081570D01*
X14739880Y13091351D01*
X14757610Y13106229D01*
X14770885Y13125188D01*
X14778801Y13146936D01*
X14780818Y13169994D01*
X14776799Y13192786D01*
X14767018Y13213762D01*
X14752141Y13231491D01*
X14733182Y13244768D01*
X14711433Y13252682D01*
X14688377Y13254700D01*
D02*
G37*
G36*
X14188454Y13122501D02*
X14171545D01*
X14155927Y13116029D01*
X14143970Y13104074D01*
X14137500Y13088454D01*
Y13071545D01*
X14143970Y13055927D01*
X14155927Y13043970D01*
X14171545Y13037500D01*
X14188454D01*
X14204074Y13043970D01*
X14216029Y13055927D01*
X14222501Y13071545D01*
Y13088454D01*
X14216029Y13104074D01*
X14204074Y13116029D01*
X14188454Y13122501D01*
D02*
G37*
G36*
X12758454Y13042500D02*
X12741546D01*
X12725926Y13036031D01*
X12713970Y13024074D01*
X12707500Y13008453D01*
Y12991547D01*
X12713970Y12975926D01*
X12725926Y12963969D01*
X12741546Y12957500D01*
X12758454D01*
X12774074Y12963969D01*
X12786030Y12975926D01*
X12792500Y12991547D01*
Y13008453D01*
X12786030Y13024074D01*
X12774074Y13036031D01*
X12758454Y13042500D01*
D02*
G37*
G36*
X12650754Y13016400D02*
X12633846D01*
X12618226Y13009930D01*
X12606270Y12997974D01*
X12599800Y12982355D01*
Y12965446D01*
X12606270Y12949826D01*
X12618226Y12937869D01*
X12633846Y12931400D01*
X12650754D01*
X12666374Y12937869D01*
X12678330Y12949826D01*
X12684800Y12965446D01*
Y12982355D01*
X12678330Y12997974D01*
X12666374Y13009930D01*
X12650754Y13016400D01*
D02*
G37*
G36*
X12203253Y12987300D02*
X12186346D01*
X12170726Y12980830D01*
X12158770Y12968874D01*
X12152300Y12953253D01*
Y12936346D01*
X12158770Y12920726D01*
X12170726Y12908771D01*
X12186346Y12902299D01*
X12203253D01*
X12218874Y12908771D01*
X12230829Y12920726D01*
X12237300Y12936346D01*
Y12953253D01*
X12230829Y12968874D01*
X12218874Y12980830D01*
X12203253Y12987300D01*
D02*
G37*
G36*
X13988454Y12962500D02*
X13971545D01*
X13955927Y12956030D01*
X13943970Y12944073D01*
X13937500Y12928455D01*
Y12911546D01*
X13943970Y12895926D01*
X13955927Y12883971D01*
X13971545Y12877499D01*
X13988454D01*
X14004074Y12883971D01*
X14016029Y12895926D01*
X14022501Y12911546D01*
Y12928455D01*
X14016029Y12944073D01*
X14004074Y12956030D01*
X13988454Y12962500D01*
D02*
G37*
G36*
X10590926Y13049130D02*
X10567869Y13047112D01*
X10546121Y13039195D01*
X10527162Y13025922D01*
X10512285Y13008192D01*
X10502504Y12987216D01*
X10498484Y12964423D01*
X10500502Y12941367D01*
X10508418Y12919618D01*
X10521693Y12900659D01*
X10539422Y12885782D01*
X10560398Y12875999D01*
X10583191Y12871980D01*
X10606248Y12873999D01*
X10627997Y12881915D01*
X10646955Y12895190D01*
X10661832Y12912920D01*
X10671614Y12933894D01*
X10675633Y12956688D01*
X10673615Y12979745D01*
X10665700Y13001492D01*
X10652424Y13020451D01*
X10634695Y13035329D01*
X10613719Y13045111D01*
X10590926Y13049130D01*
D02*
G37*
G36*
X12313654Y12942500D02*
X12296746D01*
X12281126Y12936031D01*
X12269170Y12924074D01*
X12262700Y12908453D01*
Y12891547D01*
X12269170Y12875926D01*
X12281126Y12863969D01*
X12296746Y12857500D01*
X12313654D01*
X12329274Y12863969D01*
X12341230Y12875926D01*
X12347700Y12891547D01*
Y12908453D01*
X12341230Y12924074D01*
X12329274Y12936031D01*
X12313654Y12942500D01*
D02*
G37*
G36*
X11496761Y12854192D02*
X11479854D01*
X11464234Y12847722D01*
X11452278Y12835767D01*
X11445808Y12820146D01*
Y12803239D01*
X11452278Y12787618D01*
X11464234Y12775663D01*
X11479854Y12769193D01*
X11496761D01*
X11512382Y12775663D01*
X11524337Y12787618D01*
X11530808Y12803239D01*
Y12820146D01*
X11524337Y12835767D01*
X11512382Y12847722D01*
X11496761Y12854192D01*
D02*
G37*
G36*
X13308453Y12842500D02*
X13291547D01*
X13275926Y12836031D01*
X13263969Y12824074D01*
X13257500Y12808453D01*
Y12791546D01*
X13263969Y12775926D01*
X13275926Y12763970D01*
X13291547Y12757500D01*
X13308453D01*
X13324074Y12763970D01*
X13336031Y12775926D01*
X13342500Y12791546D01*
Y12808453D01*
X13336031Y12824074D01*
X13324074Y12836031D01*
X13308453Y12842500D01*
D02*
G37*
G36*
X10427658Y12854555D02*
X10404601Y12852538D01*
X10382852Y12844621D01*
X10363894Y12831346D01*
X10349017Y12813615D01*
X10339235Y12792640D01*
X10335216Y12769847D01*
X10337234Y12746791D01*
X10345149Y12725042D01*
X10358425Y12706084D01*
X10376154Y12691207D01*
X10397130Y12681425D01*
X10419923Y12677406D01*
X10442980Y12679423D01*
X10464728Y12687339D01*
X10483687Y12700614D01*
X10498564Y12718344D01*
X10508346Y12739320D01*
X10512365Y12762113D01*
X10510347Y12785170D01*
X10502431Y12806918D01*
X10489156Y12825877D01*
X10471427Y12840755D01*
X10450451Y12850536D01*
X10427658Y12854555D01*
D02*
G37*
G36*
X11958454Y12742500D02*
X11941546D01*
X11925926Y12736030D01*
X11913970Y12724074D01*
X11907500Y12708454D01*
Y12691546D01*
X11913970Y12675926D01*
X11925926Y12663970D01*
X11941546Y12657500D01*
X11958454D01*
X11974074Y12663970D01*
X11986030Y12675926D01*
X11992500Y12691546D01*
Y12708454D01*
X11986030Y12724074D01*
X11974074Y12736030D01*
X11958454Y12742500D01*
D02*
G37*
G36*
X11558454D02*
X11541546D01*
X11525926Y12736030D01*
X11513970Y12724074D01*
X11507500Y12708454D01*
Y12691546D01*
X11513970Y12675926D01*
X11525926Y12663970D01*
X11541546Y12657500D01*
X11558454D01*
X11574074Y12663970D01*
X11586030Y12675926D01*
X11592500Y12691546D01*
Y12708454D01*
X11586030Y12724074D01*
X11574074Y12736030D01*
X11558454Y12742500D01*
D02*
G37*
G36*
X10703867Y12788574D02*
X10680811Y12786557D01*
X10659062Y12778641D01*
X10640103Y12765366D01*
X10625226Y12747636D01*
X10615445Y12726660D01*
X10611426Y12703867D01*
X10613443Y12680811D01*
X10621359Y12659062D01*
X10634634Y12640103D01*
X10652364Y12625226D01*
X10673340Y12615445D01*
X10696133Y12611426D01*
X10719189Y12613443D01*
X10740938Y12621359D01*
X10759897Y12634634D01*
X10774774Y12652364D01*
X10784555Y12673340D01*
X10788574Y12696133D01*
X10786557Y12719189D01*
X10778641Y12740938D01*
X10765366Y12759897D01*
X10747636Y12774774D01*
X10726660Y12784555D01*
X10703867Y12788574D01*
D02*
G37*
G36*
X12008454Y12642500D02*
X11991546D01*
X11975926Y12636030D01*
X11963970Y12624074D01*
X11957500Y12608454D01*
Y12591546D01*
X11963970Y12575926D01*
X11975926Y12563970D01*
X11991546Y12557500D01*
X12008454D01*
X12024074Y12563970D01*
X12036030Y12575926D01*
X12042500Y12591546D01*
Y12608454D01*
X12036030Y12624074D01*
X12024074Y12636030D01*
X12008454Y12642500D01*
D02*
G37*
G36*
X12233558Y12592500D02*
X12216650D01*
X12201030Y12586030D01*
X12189074Y12574074D01*
X12182604Y12558454D01*
Y12541546D01*
X12189074Y12525926D01*
X12201030Y12513970D01*
X12216650Y12507500D01*
X12233558D01*
X12249178Y12513970D01*
X12261134Y12525926D01*
X12267604Y12541546D01*
Y12558454D01*
X12261134Y12574074D01*
X12249178Y12586030D01*
X12233558Y12592500D01*
D02*
G37*
G36*
X10858454Y12542500D02*
X10841546D01*
X10825926Y12536030D01*
X10813970Y12524074D01*
X10807500Y12508454D01*
Y12491546D01*
X10813970Y12475926D01*
X10825926Y12463970D01*
X10841546Y12457500D01*
X10858454D01*
X10874074Y12463970D01*
X10886030Y12475926D01*
X10892500Y12491546D01*
Y12508454D01*
X10886030Y12524074D01*
X10874074Y12536030D01*
X10858454Y12542500D01*
D02*
G37*
G36*
X10313143Y12612128D02*
X10304596Y12611380D01*
X10296018D01*
X10291859Y12610266D01*
X10287569Y12609890D01*
X10279506Y12606955D01*
X10271220Y12604735D01*
X10267491Y12602582D01*
X10263445Y12601110D01*
X10256417Y12596189D01*
X10248987Y12591899D01*
X10245942Y12588854D01*
X10242415Y12586385D01*
X10236901Y12579813D01*
X10230834Y12573746D01*
X10228681Y12570017D01*
X10225914Y12566719D01*
X10222288Y12558943D01*
X10217998Y12551514D01*
X10216884Y12547355D01*
X10215064Y12543452D01*
X10213574Y12535002D01*
X10211354Y12526716D01*
Y12522410D01*
X10210606Y12518170D01*
X10211354Y12509622D01*
Y12501044D01*
X10212468Y12496885D01*
X10212843Y12492595D01*
X10215778Y12484532D01*
X10217998Y12476246D01*
X10220151Y12472518D01*
X10221624Y12468471D01*
X10226544Y12461444D01*
X10230834Y12454014D01*
X10233879Y12450969D01*
X10236349Y12447442D01*
X10242921Y12441927D01*
X10248987Y12435861D01*
X10252717Y12433707D01*
X10256015Y12430940D01*
X10263790Y12427314D01*
X10271220Y12423025D01*
X10275379Y12421910D01*
X10279282Y12420090D01*
X10287732Y12418600D01*
X10296018Y12416380D01*
X10300323D01*
X10304564Y12415632D01*
X10313111Y12416380D01*
X10321690D01*
X10325849Y12417494D01*
X10330139Y12417870D01*
X10338201Y12420804D01*
X10346487Y12423025D01*
X10350216Y12425178D01*
X10354263Y12426650D01*
X10361290Y12431571D01*
X10368720Y12435861D01*
X10371765Y12438906D01*
X10375292Y12441375D01*
X10380806Y12447947D01*
X10386873Y12454014D01*
X10389026Y12457743D01*
X10391794Y12461041D01*
X10395420Y12468817D01*
X10399709Y12476246D01*
X10400823Y12480405D01*
X10402643Y12484308D01*
X10404133Y12492758D01*
X10406354Y12501044D01*
Y12505350D01*
X10407101Y12509590D01*
X10406354Y12518138D01*
Y12526716D01*
X10405239Y12530875D01*
X10404864Y12535165D01*
X10401929Y12543228D01*
X10399709Y12551514D01*
X10397556Y12555242D01*
X10396083Y12559289D01*
X10391163Y12566316D01*
X10386873Y12573746D01*
X10383828Y12576791D01*
X10381358Y12580318D01*
X10374787Y12585833D01*
X10368720Y12591899D01*
X10364991Y12594053D01*
X10361692Y12596820D01*
X10353917Y12600446D01*
X10346487Y12604735D01*
X10342329Y12605850D01*
X10338425Y12607670D01*
X10329976Y12609160D01*
X10321690Y12611380D01*
X10317384D01*
X10313143Y12612128D01*
D02*
G37*
G36*
X10914438Y12426549D02*
X10897531D01*
X10881910Y12420079D01*
X10869955Y12408123D01*
X10863484Y12392503D01*
Y12375595D01*
X10869955Y12359975D01*
X10881910Y12348019D01*
X10897531Y12341549D01*
X10914438D01*
X10930058Y12348019D01*
X10942014Y12359975D01*
X10948484Y12375595D01*
Y12392503D01*
X10942014Y12408123D01*
X10930058Y12420079D01*
X10914438Y12426549D01*
D02*
G37*
G36*
X10985069Y12342500D02*
X10968162D01*
X10952541Y12336030D01*
X10940586Y12324074D01*
X10934116Y12308454D01*
Y12291546D01*
X10940586Y12275926D01*
X10952541Y12263970D01*
X10968162Y12257500D01*
X10985069D01*
X11000689Y12263970D01*
X11012645Y12275926D01*
X11019115Y12291546D01*
Y12308454D01*
X11012645Y12324074D01*
X11000689Y12336030D01*
X10985069Y12342500D01*
D02*
G37*
G36*
X13382169Y12389792D02*
X13373621Y12389044D01*
X13365042D01*
X13360884Y12387930D01*
X13356593Y12387555D01*
X13348531Y12384620D01*
X13340245Y12382400D01*
X13336516Y12380247D01*
X13332471Y12378774D01*
X13325443Y12373854D01*
X13318011Y12369564D01*
X13314967Y12366519D01*
X13311440Y12364049D01*
X13305927Y12357477D01*
X13299860Y12351411D01*
X13297707Y12347681D01*
X13294939Y12344383D01*
X13291313Y12336608D01*
X13287022Y12329178D01*
X13285909Y12325019D01*
X13284090Y12321116D01*
X13282599Y12312667D01*
X13280379Y12304381D01*
Y12300075D01*
X13279631Y12295834D01*
X13280379Y12287287D01*
Y12278708D01*
X13281493Y12274549D01*
X13281868Y12270259D01*
X13284802Y12262197D01*
X13287022Y12253911D01*
X13289175Y12250182D01*
X13290649Y12246136D01*
X13295569Y12239108D01*
X13299860Y12231678D01*
X13302904Y12228633D01*
X13305374Y12225106D01*
X13311945Y12219592D01*
X13318011Y12213525D01*
X13321741Y12211372D01*
X13325040Y12208604D01*
X13332816Y12204978D01*
X13340245Y12200689D01*
X13344405Y12199575D01*
X13348306Y12197755D01*
X13356757Y12196265D01*
X13365042Y12194044D01*
X13369348D01*
X13373589Y12193297D01*
X13382137Y12194044D01*
X13390715D01*
X13394873Y12195159D01*
X13399162Y12195534D01*
X13407227Y12198469D01*
X13415512Y12200689D01*
X13419241Y12202842D01*
X13423286Y12204315D01*
X13430315Y12209235D01*
X13437746Y12213525D01*
X13440790Y12216570D01*
X13444318Y12219040D01*
X13449831Y12225611D01*
X13455898Y12231678D01*
X13458051Y12235407D01*
X13460818Y12238706D01*
X13464444Y12246481D01*
X13468735Y12253911D01*
X13469849Y12258069D01*
X13471667Y12261973D01*
X13473158Y12270422D01*
X13475378Y12278708D01*
Y12283014D01*
X13476126Y12287255D01*
X13475378Y12295802D01*
Y12304381D01*
X13474265Y12308539D01*
X13473889Y12312829D01*
X13470953Y12320892D01*
X13468735Y12329178D01*
X13466582Y12332907D01*
X13465108Y12336953D01*
X13460188Y12343981D01*
X13455898Y12351411D01*
X13452853Y12354456D01*
X13450383Y12357983D01*
X13443813Y12363497D01*
X13437746Y12369564D01*
X13434016Y12371717D01*
X13430717Y12374485D01*
X13422942Y12378110D01*
X13415512Y12382400D01*
X13411353Y12383514D01*
X13407449Y12385334D01*
X13399001Y12386824D01*
X13390715Y12389044D01*
X13386409D01*
X13382169Y12389792D01*
D02*
G37*
G36*
X12990599Y12193999D02*
X12967543Y12191981D01*
X12945795Y12184066D01*
X12926836Y12170790D01*
X12911958Y12153061D01*
X12902177Y12132085D01*
X12898158Y12109292D01*
X12900175Y12086235D01*
X12908092Y12064487D01*
X12921365Y12045528D01*
X12939096Y12030651D01*
X12960072Y12020870D01*
X12982864Y12016850D01*
X13005920Y12018868D01*
X13027670Y12026784D01*
X13046629Y12040059D01*
X13061507Y12057788D01*
X13071288Y12078765D01*
X13075307Y12101557D01*
X13073289Y12124614D01*
X13065373Y12146363D01*
X13052098Y12165321D01*
X13034367Y12180198D01*
X13013393Y12189980D01*
X12990599Y12193999D01*
D02*
G37*
G36*
X12303254Y12092500D02*
X12286346D01*
X12270726Y12086030D01*
X12258770Y12074074D01*
X12252300Y12058454D01*
Y12041546D01*
X12258770Y12025926D01*
X12270726Y12013970D01*
X12286346Y12007500D01*
X12303254D01*
X12318874Y12013970D01*
X12330830Y12025926D01*
X12337300Y12041546D01*
Y12058454D01*
X12330830Y12074074D01*
X12318874Y12086030D01*
X12303254Y12092500D01*
D02*
G37*
G36*
X13266808Y12128018D02*
X13243752Y12126001D01*
X13222003Y12118085D01*
X13203044Y12104810D01*
X13188167Y12087080D01*
X13178386Y12066104D01*
X13174367Y12043311D01*
X13176384Y12020255D01*
X13184300Y11998506D01*
X13197575Y11979547D01*
X13215305Y11964670D01*
X13236281Y11954889D01*
X13259074Y11950870D01*
X13282130Y11952887D01*
X13303879Y11960803D01*
X13322838Y11974078D01*
X13337715Y11991808D01*
X13347496Y12012784D01*
X13351515Y12035577D01*
X13349498Y12058633D01*
X13341582Y12080382D01*
X13328307Y12099341D01*
X13310577Y12114218D01*
X13289601Y12123999D01*
X13266808Y12128018D01*
D02*
G37*
G36*
X10558454Y11992500D02*
X10541546D01*
X10525926Y11986030D01*
X10513970Y11974074D01*
X10507500Y11958454D01*
Y11941546D01*
X10513970Y11925926D01*
X10525926Y11913970D01*
X10541546Y11907500D01*
X10558454D01*
X10574074Y11913970D01*
X10586030Y11925926D01*
X10592500Y11941546D01*
Y11958454D01*
X10586030Y11974074D01*
X10574074Y11986030D01*
X10558454Y11992500D01*
D02*
G37*
G36*
X10258454Y11942500D02*
X10241546D01*
X10225926Y11936030D01*
X10213970Y11924074D01*
X10207500Y11908454D01*
Y11891546D01*
X10213970Y11875926D01*
X10225926Y11863970D01*
X10241546Y11857500D01*
X10258454D01*
X10274074Y11863970D01*
X10286030Y11875926D01*
X10292500Y11891546D01*
Y11908454D01*
X10286030Y11924074D01*
X10274074Y11936030D01*
X10258454Y11942500D01*
D02*
G37*
G36*
X10371954Y11929000D02*
X10355046D01*
X10339426Y11922530D01*
X10327470Y11910574D01*
X10321000Y11894954D01*
Y11878046D01*
X10327470Y11862426D01*
X10339426Y11850470D01*
X10355046Y11844000D01*
X10371954D01*
X10387574Y11850470D01*
X10399530Y11862426D01*
X10406000Y11878046D01*
Y11894954D01*
X10399530Y11910574D01*
X10387574Y11922530D01*
X10371954Y11929000D01*
D02*
G37*
G36*
X13103540Y11933443D02*
X13080484Y11931426D01*
X13058736Y11923510D01*
X13039777Y11910235D01*
X13024899Y11892505D01*
X13015118Y11871529D01*
X13011099Y11848736D01*
X13013116Y11825680D01*
X13021033Y11803931D01*
X13034306Y11784972D01*
X13052037Y11770095D01*
X13073013Y11760314D01*
X13095805Y11756295D01*
X13118863Y11758312D01*
X13140611Y11766228D01*
X13159570Y11779503D01*
X13174448Y11797233D01*
X13184229Y11818209D01*
X13188248Y11841002D01*
X13186230Y11864058D01*
X13178314Y11885807D01*
X13165039Y11904766D01*
X13147308Y11919643D01*
X13126334Y11929424D01*
X13103540Y11933443D01*
D02*
G37*
G36*
X11058454Y11792500D02*
X11041546D01*
X11025926Y11786030D01*
X11013970Y11774074D01*
X11007500Y11758454D01*
Y11741546D01*
X11013970Y11725926D01*
X11025926Y11713970D01*
X11041546Y11707500D01*
X11058454D01*
X11074074Y11713970D01*
X11086030Y11725926D01*
X11092500Y11741546D01*
Y11758454D01*
X11086030Y11774074D01*
X11074074Y11786030D01*
X11058454Y11792500D01*
D02*
G37*
G36*
X12738454Y11692500D02*
X12721547D01*
X12705926Y11686029D01*
X12693971Y11674074D01*
X12687500Y11658453D01*
Y11641546D01*
X12693971Y11625926D01*
X12705926Y11613970D01*
X12721547Y11607500D01*
X12738454D01*
X12754074Y11613970D01*
X12766030Y11625926D01*
X12772500Y11641546D01*
Y11658453D01*
X12766030Y11674074D01*
X12754074Y11686029D01*
X12738454Y11692500D01*
D02*
G37*
G36*
X11421668Y12020000D02*
X11378332D01*
X11335828Y12011545D01*
X11295791Y11994961D01*
X11259758Y11970885D01*
X11229115Y11940242D01*
X11205039Y11904209D01*
X11188455Y11864172D01*
X11180000Y11821668D01*
Y11778332D01*
X11188455Y11735828D01*
X11205039Y11695791D01*
X11229115Y11659758D01*
X11259758Y11629115D01*
X11295791Y11605039D01*
X11335828Y11588455D01*
X11378332Y11580000D01*
X11421668D01*
X11464172Y11588455D01*
X11504209Y11605039D01*
X11540242Y11629115D01*
X11570885Y11659758D01*
X11594961Y11695791D01*
X11611545Y11735828D01*
X11620000Y11778332D01*
Y11821668D01*
X11611545Y11864172D01*
X11594961Y11904209D01*
X11570885Y11940242D01*
X11540242Y11970885D01*
X11504209Y11994961D01*
X11464172Y12011545D01*
X11421668Y12020000D01*
D02*
G37*
G36*
X12355953Y11642500D02*
X12339046D01*
X12323426Y11636030D01*
X12311470Y11624074D01*
X12305000Y11608454D01*
Y11591547D01*
X12311470Y11575926D01*
X12323426Y11563971D01*
X12339046Y11557500D01*
X12355953D01*
X12371574Y11563971D01*
X12383529Y11575926D01*
X12390000Y11591547D01*
Y11608454D01*
X12383529Y11624074D01*
X12371574Y11636030D01*
X12355953Y11642500D01*
D02*
G37*
G36*
X11058454Y11292500D02*
X11041546D01*
X11025926Y11286030D01*
X11013970Y11274074D01*
X11007500Y11258454D01*
Y11241546D01*
X11013970Y11225926D01*
X11025926Y11213970D01*
X11041546Y11207500D01*
X11058454D01*
X11074074Y11213970D01*
X11086030Y11225926D01*
X11092500Y11241546D01*
Y11258454D01*
X11086030Y11274074D01*
X11074074Y11286030D01*
X11058454Y11292500D01*
D02*
G37*
G36*
X11421954Y11079000D02*
X11405046D01*
X11389426Y11072530D01*
X11377470Y11060574D01*
X11371000Y11044954D01*
Y11028047D01*
X11377470Y11012426D01*
X11389426Y11000471D01*
X11405046Y10994000D01*
X11421954D01*
X11437574Y11000471D01*
X11449530Y11012426D01*
X11456000Y11028047D01*
Y11044954D01*
X11449530Y11060574D01*
X11437574Y11072530D01*
X11421954Y11079000D01*
D02*
G37*
G36*
X11294954Y11079000D02*
X11278046D01*
X11262426Y11072530D01*
X11250470Y11060574D01*
X11244000Y11044954D01*
Y11028046D01*
X11250470Y11012426D01*
X11262426Y11000470D01*
X11278046Y10994000D01*
X11294954D01*
X11310574Y11000470D01*
X11322530Y11012426D01*
X11329000Y11028046D01*
Y11044954D01*
X11322530Y11060574D01*
X11310574Y11072530D01*
X11294954Y11079000D01*
D02*
G37*
G36*
X11558454Y11042500D02*
X11541546D01*
X11525926Y11036030D01*
X11513970Y11024074D01*
X11507500Y11008454D01*
Y10991546D01*
X11513970Y10975926D01*
X11525926Y10963970D01*
X11541546Y10957500D01*
X11558454D01*
X11574074Y10963970D01*
X11586030Y10975926D01*
X11592500Y10991546D01*
Y11008454D01*
X11586030Y11024074D01*
X11574074Y11036030D01*
X11558454Y11042500D01*
D02*
G37*
G36*
X12358454Y10542500D02*
X12341546D01*
X12325926Y10536030D01*
X12313970Y10524074D01*
X12307500Y10508454D01*
Y10491546D01*
X12313970Y10475926D01*
X12325926Y10463970D01*
X12341546Y10457500D01*
X12358454D01*
X12374074Y10463970D01*
X12386030Y10475926D01*
X12392500Y10491546D01*
Y10508454D01*
X12386030Y10524074D01*
X12374074Y10536030D01*
X12358454Y10542500D01*
D02*
G37*
G36*
X12503254Y10442500D02*
X12486346D01*
X12470726Y10436030D01*
X12462300Y10427604D01*
X12453874Y10436030D01*
X12438254Y10442500D01*
X12421347D01*
X12405726Y10436030D01*
X12393770Y10424074D01*
X12387300Y10408454D01*
Y10391546D01*
X12393770Y10375926D01*
X12405726Y10363970D01*
X12421347Y10357500D01*
X12438254D01*
X12453874Y10363970D01*
X12462300Y10372396D01*
X12470726Y10363970D01*
X12486346Y10357500D01*
X12503254D01*
X12518874Y10363970D01*
X12530830Y10375926D01*
X12537300Y10391546D01*
Y10408454D01*
X12530830Y10424074D01*
X12518874Y10436030D01*
X12503254Y10442500D01*
D02*
G37*
G36*
X12262204Y10367140D02*
X12245297D01*
X12229676Y10360669D01*
X12217721Y10348714D01*
X12211250Y10333093D01*
Y10316186D01*
X12217721Y10300566D01*
X12229676Y10288610D01*
X12245297Y10282140D01*
X12262204D01*
X12277824Y10288610D01*
X12289780Y10300566D01*
X12296250Y10316186D01*
Y10333093D01*
X12289780Y10348714D01*
X12277824Y10360669D01*
X12262204Y10367140D01*
D02*
G37*
G36*
X10108454Y11042500D02*
X10091546D01*
X10075926Y11036030D01*
X10063970Y11024074D01*
X10057500Y11008454D01*
Y10991546D01*
X10063970Y10975926D01*
X10075926Y10963970D01*
X10091546Y10957500D01*
X10108454D01*
X10124074Y10963970D01*
X10136030Y10975926D01*
X10142500Y10991546D01*
Y11008454D01*
X10136030Y11024074D01*
X10124074Y11036030D01*
X10108454Y11042500D01*
D02*
G37*
G36*
X10616536Y10834417D02*
X10599629D01*
X10584008Y10827947D01*
X10572053Y10815992D01*
X10565582Y10800371D01*
Y10783464D01*
X10572053Y10767843D01*
X10584008Y10755888D01*
X10599629Y10749418D01*
X10616536D01*
X10632156Y10755888D01*
X10644112Y10767843D01*
X10650582Y10783464D01*
Y10800371D01*
X10644112Y10815992D01*
X10632156Y10827947D01*
X10616536Y10834417D01*
D02*
G37*
G36*
X10142836Y10891500D02*
X10117164D01*
X10092366Y10884855D01*
X10070134Y10872019D01*
X10051980Y10853866D01*
X10039145Y10831633D01*
X10032500Y10806836D01*
Y10781164D01*
X10038878Y10757359D01*
X10035433Y10745609D01*
Y10745609D01*
X10035433Y10745608D01*
D01*
X10032832Y10741900D01*
X10028837Y10741900D01*
X9862100D01*
Y10566100D01*
X10037900D01*
Y10731218D01*
X10037900Y10733121D01*
X10043073Y10734507D01*
Y10734507D01*
X10043074Y10734508D01*
Y10734507D01*
X10054914Y10731200D01*
X10070134Y10715980D01*
X10092366Y10703144D01*
X10117164Y10696500D01*
X10142836D01*
X10167633Y10703144D01*
X10189866Y10715980D01*
X10208019Y10734133D01*
X10220855Y10756366D01*
X10227500Y10781164D01*
Y10806836D01*
X10220855Y10831633D01*
X10208019Y10853866D01*
X10189866Y10872019D01*
X10167633Y10884855D01*
X10142836Y10891500D01*
D02*
G37*
G36*
X10215572Y10614900D02*
X10192428D01*
X10170072Y10608909D01*
X10150028Y10597337D01*
X10133662Y10580972D01*
X10122090Y10560928D01*
X10116100Y10538572D01*
Y10515428D01*
X10122090Y10493072D01*
X10133662Y10473028D01*
X10150028Y10456662D01*
X10170072Y10445090D01*
X10192428Y10439100D01*
X10215572D01*
X10237928Y10445090D01*
X10257972Y10456662D01*
X10274337Y10473028D01*
X10285910Y10493072D01*
X10291900Y10515428D01*
Y10538572D01*
X10285910Y10560928D01*
X10274337Y10580972D01*
X10257972Y10597337D01*
X10237928Y10608909D01*
X10215572Y10614900D01*
D02*
G37*
G36*
Y10360900D02*
X10192428D01*
X10170072Y10354909D01*
X10150028Y10343337D01*
X10133662Y10326972D01*
X10122090Y10306928D01*
X10116100Y10284572D01*
Y10261428D01*
X10122090Y10239072D01*
X10133662Y10219028D01*
X10150028Y10202662D01*
X10170072Y10191090D01*
X10192428Y10185100D01*
X10215572D01*
X10237928Y10191090D01*
X10257972Y10202662D01*
X10274337Y10219028D01*
X10285910Y10239072D01*
X10291900Y10261428D01*
Y10284572D01*
X10285910Y10306928D01*
X10274337Y10326972D01*
X10257972Y10343337D01*
X10237928Y10354909D01*
X10215572Y10360900D01*
D02*
G37*
G36*
X11008454Y10192500D02*
X10991546D01*
X10975926Y10186030D01*
X10963970Y10174074D01*
X10957500Y10158454D01*
Y10141546D01*
X10963970Y10125926D01*
X10975926Y10113970D01*
X10991546Y10107500D01*
X11008454D01*
X11024074Y10113970D01*
X11036030Y10125926D01*
X11042500Y10141546D01*
Y10158454D01*
X11036030Y10174074D01*
X11024074Y10186030D01*
X11008454Y10192500D01*
D02*
G37*
G36*
X10758454Y10142500D02*
X10741546D01*
X10725926Y10136030D01*
X10713970Y10124074D01*
X10707500Y10108454D01*
Y10091546D01*
X10713970Y10075926D01*
X10725926Y10063970D01*
X10741546Y10057500D01*
X10758454D01*
X10774074Y10063970D01*
X10786030Y10075926D01*
X10792500Y10091546D01*
Y10108454D01*
X10786030Y10124074D01*
X10774074Y10136030D01*
X10758454Y10142500D01*
D02*
G37*
G36*
X11658454Y10092500D02*
X11641546D01*
X11625926Y10086030D01*
X11613970Y10074074D01*
X11607500Y10058454D01*
Y10041546D01*
X11613970Y10025926D01*
X11625926Y10013970D01*
X11641546Y10007500D01*
X11658454D01*
X11674074Y10013970D01*
X11686030Y10025926D01*
X11692500Y10041546D01*
Y10058454D01*
X11686030Y10074074D01*
X11674074Y10086030D01*
X11658454Y10092500D01*
D02*
G37*
G36*
X10188679Y9930050D02*
X10180134Y9929302D01*
X10171553D01*
X10167394Y9928188D01*
X10163104Y9927813D01*
X10155041Y9924878D01*
X10146755Y9922658D01*
X10143027Y9920505D01*
X10138980Y9919032D01*
X10131953Y9914111D01*
X10124523Y9909822D01*
X10121478Y9906776D01*
X10117951Y9904307D01*
X10112436Y9897735D01*
X10106370Y9891669D01*
X10104217Y9887940D01*
X10101449Y9884641D01*
X10097823Y9876865D01*
X10093534Y9869436D01*
X10092419Y9865277D01*
X10090599Y9861374D01*
X10089110Y9852925D01*
X10086889Y9844638D01*
Y9840332D01*
X10086142Y9836092D01*
X10086889Y9827547D01*
Y9818966D01*
X10088004Y9814807D01*
X10088379Y9810517D01*
X10091314Y9802455D01*
X10093534Y9794169D01*
X10095687Y9790440D01*
X10097159Y9786393D01*
X10102080Y9779366D01*
X10106370Y9771936D01*
X10109415Y9768891D01*
X10111595Y9765777D01*
X10112284Y9753641D01*
D01*
X10111568Y9750624D01*
X10110778Y9749567D01*
X10108961Y9748905D01*
X9950465Y9691217D01*
X10010592Y9526019D01*
X10175790Y9586146D01*
X10119960Y9739536D01*
X10121128Y9741183D01*
X10131550Y9748862D01*
X10139327Y9745236D01*
X10146755Y9740947D01*
X10150914Y9739833D01*
X10154817Y9738013D01*
X10163266Y9736523D01*
X10171553Y9734302D01*
X10175860D01*
X10180099Y9733555D01*
X10188645Y9734302D01*
X10197225D01*
X10201384Y9735417D01*
X10205674Y9735792D01*
X10213737Y9738727D01*
X10222023Y9740947D01*
X10225751Y9743100D01*
X10229798Y9744573D01*
X10236825Y9749493D01*
X10244255Y9753783D01*
X10247301Y9756828D01*
X10250828Y9759298D01*
X10256342Y9765870D01*
X10262408Y9771936D01*
X10264561Y9775665D01*
X10267329Y9778963D01*
X10270956Y9786740D01*
X10275244Y9794169D01*
X10276359Y9798327D01*
X10278179Y9802231D01*
X10279669Y9810679D01*
X10281889Y9818966D01*
Y9823273D01*
X10282637Y9827512D01*
X10281889Y9836058D01*
Y9844638D01*
X10280774Y9848797D01*
X10280399Y9853087D01*
X10277465Y9861150D01*
X10275244Y9869436D01*
X10273091Y9873165D01*
X10271619Y9877211D01*
X10266698Y9884238D01*
X10262408Y9891669D01*
X10259363Y9894714D01*
X10256894Y9898241D01*
X10250322Y9903755D01*
X10244255Y9909822D01*
X10240527Y9911974D01*
X10237228Y9914742D01*
X10229451Y9918369D01*
X10222023Y9922658D01*
X10217864Y9923772D01*
X10213961Y9925592D01*
X10205512Y9927082D01*
X10197225Y9929302D01*
X10192918D01*
X10188679Y9930050D01*
D02*
G37*
G36*
X10349113Y9694788D02*
X10326057Y9692771D01*
X10304308Y9684855D01*
X10285349Y9671580D01*
X10270472Y9653850D01*
X10260691Y9632874D01*
X10256672Y9610081D01*
X10258689Y9587025D01*
X10266605Y9565276D01*
X10279880Y9546317D01*
X10297610Y9531440D01*
X10318585Y9521659D01*
X10341379Y9517640D01*
X10364435Y9519657D01*
X10386184Y9527573D01*
X10405143Y9540848D01*
X10420020Y9558578D01*
X10429801Y9579554D01*
X10433820Y9602347D01*
X10431803Y9625403D01*
X10423887Y9647152D01*
X10410612Y9666111D01*
X10392882Y9680988D01*
X10371906Y9690769D01*
X10349113Y9694788D01*
D02*
G37*
G36*
X10808454Y9602500D02*
X10791546D01*
X10775926Y9596030D01*
X10763970Y9584074D01*
X10757500Y9568454D01*
Y9551547D01*
X10763970Y9535926D01*
X10775926Y9523971D01*
X10791546Y9517500D01*
X10808454D01*
X10824074Y9523971D01*
X10836030Y9535926D01*
X10842500Y9551547D01*
Y9568454D01*
X10836030Y9584074D01*
X10824074Y9596030D01*
X10808454Y9602500D01*
D02*
G37*
G36*
X12208454Y9592500D02*
X12191546D01*
X12175926Y9586030D01*
X12163970Y9574074D01*
X12157500Y9558454D01*
Y9541546D01*
X12163970Y9525926D01*
X12175926Y9513970D01*
X12191546Y9507500D01*
X12208454D01*
X12224074Y9513970D01*
X12236030Y9525926D01*
X12242500Y9541546D01*
Y9558454D01*
X12236030Y9574074D01*
X12224074Y9586030D01*
X12208454Y9592500D01*
D02*
G37*
G36*
X11208454D02*
X11191546D01*
X11175926Y9586030D01*
X11163970Y9574074D01*
X11157500Y9558454D01*
Y9541546D01*
X11163970Y9525926D01*
X11175926Y9513970D01*
X11191546Y9507500D01*
X11208454D01*
X11224074Y9513970D01*
X11236030Y9525926D01*
X11242500Y9541546D01*
Y9558454D01*
X11236030Y9574074D01*
X11224074Y9586030D01*
X11208454Y9592500D01*
D02*
G37*
G36*
X11108454D02*
X11091546D01*
X11075926Y9586030D01*
X11063970Y9574074D01*
X11057500Y9558454D01*
Y9541546D01*
X11063970Y9525926D01*
X11075926Y9513970D01*
X11091546Y9507500D01*
X11108454D01*
X11124074Y9513970D01*
X11136030Y9525926D01*
X11142500Y9541546D01*
Y9558454D01*
X11136030Y9574074D01*
X11124074Y9586030D01*
X11108454Y9592500D01*
D02*
G37*
G36*
X11008454D02*
X10991546D01*
X10975926Y9586030D01*
X10963970Y9574074D01*
X10957500Y9558454D01*
Y9541546D01*
X10963970Y9525926D01*
X10975926Y9513970D01*
X10991546Y9507500D01*
X11008454D01*
X11024074Y9513970D01*
X11036030Y9525926D01*
X11042500Y9541546D01*
Y9558454D01*
X11036030Y9574074D01*
X11024074Y9586030D01*
X11008454Y9592500D01*
D02*
G37*
G36*
X12858453Y9542500D02*
X12841547D01*
X12825926Y9536030D01*
X12813969Y9524074D01*
X12807500Y9508454D01*
Y9491546D01*
X12813969Y9475926D01*
X12825926Y9463970D01*
X12841547Y9457500D01*
X12858453D01*
X12874074Y9463970D01*
X12886031Y9475926D01*
X12892500Y9491546D01*
Y9508454D01*
X12886031Y9524074D01*
X12874074Y9536030D01*
X12858453Y9542500D01*
D02*
G37*
G36*
X12408454Y9495000D02*
X12391546D01*
X12375926Y9488530D01*
X12363970Y9476574D01*
X12357500Y9460954D01*
Y9444046D01*
X12363970Y9428426D01*
X12375926Y9416470D01*
X12391546Y9410000D01*
X12408454D01*
X12424074Y9416470D01*
X12436030Y9428426D01*
X12442500Y9444046D01*
Y9460954D01*
X12436030Y9476574D01*
X12424074Y9488530D01*
X12408454Y9495000D01*
D02*
G37*
G36*
X12308454Y9442500D02*
X12291546D01*
X12275926Y9436030D01*
X12263970Y9424074D01*
X12257500Y9408454D01*
Y9391546D01*
X12263970Y9375926D01*
X12275926Y9363970D01*
X12291546Y9357500D01*
X12308454D01*
X12324074Y9363970D01*
X12336030Y9375926D01*
X12342500Y9391546D01*
Y9408454D01*
X12336030Y9424074D01*
X12324074Y9436030D01*
X12308454Y9442500D01*
D02*
G37*
G36*
X11908454D02*
X11891546D01*
X11875926Y9436030D01*
X11863970Y9424074D01*
X11857500Y9408454D01*
Y9391546D01*
X11863970Y9375926D01*
X11875926Y9363970D01*
X11891546Y9357500D01*
X11908454D01*
X11924074Y9363970D01*
X11936030Y9375926D01*
X11942500Y9391546D01*
Y9408454D01*
X11936030Y9424074D01*
X11924074Y9436030D01*
X11908454Y9442500D01*
D02*
G37*
G36*
X12808453Y9392500D02*
X12791546D01*
X12775926Y9386030D01*
X12763970Y9374074D01*
X12757500Y9358454D01*
Y9341546D01*
X12763970Y9325926D01*
X12775926Y9313970D01*
X12791546Y9307500D01*
X12808453D01*
X12824074Y9313970D01*
X12836031Y9325926D01*
X12842500Y9341546D01*
Y9358454D01*
X12836031Y9374074D01*
X12824074Y9386030D01*
X12808453Y9392500D01*
D02*
G37*
G36*
X12408453Y9387500D02*
X12391546D01*
X12375926Y9381029D01*
X12363970Y9369074D01*
X12357500Y9353453D01*
Y9336546D01*
X12363970Y9320926D01*
X12375926Y9308970D01*
X12391546Y9302500D01*
X12408453D01*
X12424074Y9308970D01*
X12436029Y9320926D01*
X12442500Y9336546D01*
Y9353453D01*
X12436029Y9369074D01*
X12424074Y9381029D01*
X12408453Y9387500D01*
D02*
G37*
G36*
X10435986Y9456106D02*
X10412930Y9454089D01*
X10391181Y9446173D01*
X10372222Y9432898D01*
X10357345Y9415168D01*
X10347564Y9394192D01*
X10343545Y9371399D01*
X10345562Y9348343D01*
X10353478Y9326594D01*
X10366753Y9307635D01*
X10384483Y9292758D01*
X10405458Y9282977D01*
X10428252Y9278958D01*
X10451308Y9280975D01*
X10473057Y9288891D01*
X10492016Y9302166D01*
X10506893Y9319896D01*
X10516674Y9340872D01*
X10520693Y9363665D01*
X10518676Y9386721D01*
X10510760Y9408470D01*
X10497485Y9427429D01*
X10479755Y9442306D01*
X10458779Y9452087D01*
X10435986Y9456106D01*
D02*
G37*
G36*
X12008454Y9342500D02*
X11991546D01*
X11975926Y9336030D01*
X11963970Y9324074D01*
X11957500Y9308454D01*
Y9291546D01*
X11963970Y9275926D01*
X11975926Y9263970D01*
X11991546Y9257500D01*
X12008454D01*
X12024074Y9263970D01*
X12036030Y9275926D01*
X12042500Y9291546D01*
Y9308454D01*
X12036030Y9324074D01*
X12024074Y9336030D01*
X12008454Y9342500D01*
D02*
G37*
G36*
X11908454Y8742500D02*
X11891546D01*
X11875926Y8736030D01*
X11863970Y8724074D01*
X11857500Y8708454D01*
Y8691546D01*
X11863970Y8675926D01*
X11875926Y8663970D01*
X11891546Y8657500D01*
X11908454D01*
X11924074Y8663970D01*
X11936030Y8675926D01*
X11942500Y8691546D01*
Y8708454D01*
X11936030Y8724074D01*
X11924074Y8736030D01*
X11908454Y8742500D01*
D02*
G37*
G36*
X11808453Y8740000D02*
X11791546D01*
X11775925Y8733530D01*
X11763970Y8721574D01*
X11757500Y8705954D01*
Y8689046D01*
X11763970Y8673426D01*
X11775925Y8661470D01*
X11791546Y8655000D01*
X11808453D01*
X11824074Y8661470D01*
X11836029Y8673426D01*
X11842499Y8689046D01*
Y8705954D01*
X11836029Y8721574D01*
X11824074Y8733530D01*
X11808453Y8740000D01*
D02*
G37*
G36*
X12105584Y8739630D02*
X12088676D01*
X12073056Y8733160D01*
X12061100Y8721204D01*
X12054630Y8705584D01*
Y8688677D01*
X12061100Y8673056D01*
X12073056Y8661101D01*
X12088676Y8654630D01*
X12105584D01*
X12121204Y8661101D01*
X12133160Y8673056D01*
X12139630Y8688677D01*
Y8705584D01*
X12133160Y8721204D01*
X12121204Y8733160D01*
X12105584Y8739630D01*
D02*
G37*
G36*
X10654131Y8849791D02*
X10649890Y8849043D01*
X10645584D01*
X10637298Y8846823D01*
X10628849Y8845333D01*
X10624945Y8843512D01*
X10620787Y8842398D01*
X10613357Y8838109D01*
X10605582Y8834483D01*
X10602283Y8831715D01*
X10598554Y8829562D01*
X10592487Y8823495D01*
X10585916Y8817981D01*
X10583446Y8814454D01*
X10580401Y8811409D01*
X10576111Y8803979D01*
X10571191Y8796952D01*
X10569718Y8792905D01*
X10567565Y8789176D01*
X10565345Y8780890D01*
X10562410Y8772828D01*
X10562035Y8768538D01*
X10560920Y8764379D01*
Y8755800D01*
X10560173Y8747253D01*
X10560920Y8743012D01*
Y8738707D01*
X10563141Y8730421D01*
X10564631Y8721971D01*
X10566451Y8718068D01*
X10567565Y8713909D01*
X10571854Y8706480D01*
X10575480Y8698704D01*
X10578248Y8695406D01*
X10580401Y8691677D01*
X10586468Y8685610D01*
X10591982Y8679038D01*
X10595509Y8676568D01*
X10598554Y8673523D01*
X10605984Y8669234D01*
X10613012Y8664313D01*
X10617058Y8662840D01*
X10620787Y8660688D01*
X10629073Y8658467D01*
X10637135Y8655533D01*
X10641426Y8655157D01*
X10645584Y8654043D01*
X10654163D01*
X10662710Y8653295D01*
X10666951Y8654043D01*
X10671257D01*
X10679543Y8656263D01*
X10687992Y8657753D01*
X10691895Y8659573D01*
X10696054Y8660688D01*
X10703484Y8664977D01*
X10711259Y8668603D01*
X10714557Y8671370D01*
X10718287Y8673523D01*
X10724353Y8679590D01*
X10730925Y8685105D01*
X10733395Y8688632D01*
X10736440Y8691677D01*
X10740730Y8699107D01*
X10745650Y8706134D01*
X10747123Y8710180D01*
X10749276Y8713909D01*
X10751496Y8722195D01*
X10754431Y8730258D01*
X10754806Y8734548D01*
X10755920Y8738707D01*
Y8747285D01*
X10756668Y8755832D01*
X10755920Y8760073D01*
Y8764379D01*
X10753700Y8772665D01*
X10752210Y8781115D01*
X10750390Y8785018D01*
X10749276Y8789176D01*
X10744986Y8796606D01*
X10741361Y8804381D01*
X10738593Y8807680D01*
X10736440Y8811409D01*
X10730373Y8817476D01*
X10724859Y8824048D01*
X10721332Y8826517D01*
X10718287Y8829562D01*
X10710857Y8833852D01*
X10703829Y8838773D01*
X10699783Y8840245D01*
X10696054Y8842398D01*
X10687768Y8844618D01*
X10679705Y8847553D01*
X10675415Y8847928D01*
X10671257Y8849043D01*
X10662678D01*
X10654131Y8849791D01*
D02*
G37*
G36*
X11708454Y8737500D02*
X11691546D01*
X11675926Y8731030D01*
X11663970Y8719074D01*
X11657500Y8703454D01*
Y8686546D01*
X11663970Y8670926D01*
X11675926Y8658970D01*
X11691546Y8652500D01*
X11708454D01*
X11724074Y8658970D01*
X11736030Y8670926D01*
X11742500Y8686546D01*
Y8703454D01*
X11736030Y8719074D01*
X11724074Y8731030D01*
X11708454Y8737500D01*
D02*
G37*
G36*
X10882865Y8683149D02*
X10860072Y8679130D01*
X10839096Y8669349D01*
X10821366Y8654472D01*
X10808091Y8635513D01*
X10800175Y8613764D01*
X10798158Y8590708D01*
X10802177Y8567915D01*
X10811958Y8546939D01*
X10826835Y8529209D01*
X10845794Y8515934D01*
X10867543Y8508018D01*
X10890599Y8506001D01*
X10913392Y8510020D01*
X10934368Y8519801D01*
X10952098Y8534678D01*
X10965373Y8553637D01*
X10973289Y8575386D01*
X10975306Y8598442D01*
X10971287Y8621235D01*
X10961506Y8642211D01*
X10946629Y8659941D01*
X10927670Y8673216D01*
X10905921Y8681132D01*
X10882865Y8683149D01*
D02*
G37*
G36*
X13058453Y8462500D02*
X13041547D01*
X13025926Y8456030D01*
X13013969Y8444074D01*
X13007500Y8428454D01*
Y8411546D01*
X13013969Y8395926D01*
X13025926Y8383970D01*
X13041547Y8377500D01*
X13058453D01*
X13074074Y8383970D01*
X13086031Y8395926D01*
X13092500Y8411546D01*
Y8428454D01*
X13086031Y8444074D01*
X13074074Y8456030D01*
X13058453Y8462500D01*
D02*
G37*
G36*
X12758454Y8442500D02*
X12741546D01*
X12725926Y8436030D01*
X12713970Y8424074D01*
X12707500Y8408454D01*
Y8391546D01*
X12713970Y8375926D01*
X12725926Y8363970D01*
X12741546Y8357500D01*
X12758454D01*
X12774074Y8363970D01*
X12786030Y8375926D01*
X12792500Y8391546D01*
Y8408454D01*
X12786030Y8424074D01*
X12774074Y8436030D01*
X12758454Y8442500D01*
D02*
G37*
G36*
X12658454D02*
X12641546D01*
X12625926Y8436030D01*
X12613970Y8424074D01*
X12607500Y8408454D01*
Y8391546D01*
X12613970Y8375926D01*
X12625926Y8363970D01*
X12641546Y8357500D01*
X12658454D01*
X12674074Y8363970D01*
X12686030Y8375926D01*
X12692500Y8391546D01*
Y8408454D01*
X12686030Y8424074D01*
X12674074Y8436030D01*
X12658454Y8442500D01*
D02*
G37*
G36*
X12858453Y8437500D02*
X12841547D01*
X12825926Y8431029D01*
X12813969Y8419074D01*
X12807500Y8403453D01*
Y8386546D01*
X12813969Y8370926D01*
X12825926Y8358970D01*
X12841547Y8352500D01*
X12858453D01*
X12874074Y8358970D01*
X12886031Y8370926D01*
X12892500Y8386546D01*
Y8403453D01*
X12886031Y8419074D01*
X12874074Y8431029D01*
X12858453Y8437500D01*
D02*
G37*
G36*
X11046133Y8488574D02*
X11023340Y8484555D01*
X11002364Y8474774D01*
X10984634Y8459897D01*
X10971359Y8440938D01*
X10963443Y8419189D01*
X10961426Y8396133D01*
X10965445Y8373340D01*
X10975226Y8352364D01*
X10990103Y8334634D01*
X11009062Y8321359D01*
X11030811Y8313443D01*
X11053867Y8311426D01*
X11076660Y8315445D01*
X11097636Y8325226D01*
X11115366Y8340103D01*
X11128641Y8359062D01*
X11136557Y8380811D01*
X11138574Y8403867D01*
X11134555Y8426660D01*
X11124774Y8447636D01*
X11109897Y8465366D01*
X11090938Y8478641D01*
X11069189Y8486557D01*
X11046133Y8488574D01*
D02*
G37*
G36*
X10769924Y8422594D02*
X10747131Y8418575D01*
X10726155Y8408793D01*
X10708425Y8393916D01*
X10695150Y8374958D01*
X10687234Y8353209D01*
X10685217Y8330153D01*
X10689236Y8307360D01*
X10699017Y8286383D01*
X10713894Y8268654D01*
X10732853Y8255379D01*
X10754602Y8247463D01*
X10777658Y8245446D01*
X10800451Y8249465D01*
X10821427Y8259246D01*
X10839157Y8274123D01*
X10852432Y8293082D01*
X10860348Y8314830D01*
X10862365Y8337887D01*
X10858346Y8360680D01*
X10848565Y8381656D01*
X10833688Y8399386D01*
X10814729Y8412661D01*
X10792980Y8420577D01*
X10769924Y8422594D01*
D02*
G37*
G36*
X15071954Y8247200D02*
X15055046D01*
X15039426Y8240730D01*
X15027470Y8228774D01*
X15021001Y8213154D01*
Y8196246D01*
X15027470Y8180626D01*
X15039426Y8168670D01*
X15055046Y8162200D01*
X15071954D01*
X15087573Y8168670D01*
X15099530Y8180626D01*
X15106000Y8196246D01*
Y8213154D01*
X15099530Y8228774D01*
X15087573Y8240730D01*
X15071954Y8247200D01*
D02*
G37*
G36*
X14944954D02*
X14928046D01*
X14912427Y8240730D01*
X14900470Y8228774D01*
X14894000Y8213154D01*
Y8196246D01*
X14900470Y8180626D01*
X14912427Y8168670D01*
X14928046Y8162200D01*
X14944954D01*
X14960574Y8168670D01*
X14972530Y8180626D01*
X14978999Y8196246D01*
Y8213154D01*
X14972530Y8228774D01*
X14960574Y8240730D01*
X14944954Y8247200D01*
D02*
G37*
G36*
X14808453Y8242500D02*
X14791547D01*
X14775926Y8236030D01*
X14763969Y8224074D01*
X14757500Y8208454D01*
Y8191546D01*
X14763969Y8175926D01*
X14775926Y8163970D01*
X14791547Y8157500D01*
X14808453D01*
X14824074Y8163970D01*
X14836031Y8175926D01*
X14842500Y8191546D01*
Y8208454D01*
X14836031Y8224074D01*
X14824074Y8236030D01*
X14808453Y8242500D01*
D02*
G37*
G36*
X13608453Y8192500D02*
X13591547D01*
X13575926Y8186030D01*
X13563969Y8174074D01*
X13557500Y8158454D01*
Y8141546D01*
X13563969Y8125926D01*
X13575926Y8113970D01*
X13591547Y8107500D01*
X13608453D01*
X13624074Y8113970D01*
X13636031Y8125926D01*
X13642500Y8141546D01*
Y8158454D01*
X13636031Y8174074D01*
X13624074Y8186030D01*
X13608453Y8192500D01*
D02*
G37*
G36*
X13558453Y8092500D02*
X13541547D01*
X13525926Y8086030D01*
X13513969Y8074074D01*
X13507500Y8058454D01*
Y8041546D01*
X13513969Y8025926D01*
X13525926Y8013970D01*
X13541547Y8007500D01*
X13558453D01*
X13574074Y8013970D01*
X13586031Y8025926D01*
X13592500Y8041546D01*
Y8058454D01*
X13586031Y8074074D01*
X13574074Y8086030D01*
X13558453Y8092500D01*
D02*
G37*
G36*
X14983453Y8042500D02*
X14966547D01*
X14950926Y8036030D01*
X14938971Y8024074D01*
X14932500Y8008454D01*
Y7991547D01*
X14938971Y7975926D01*
X14950926Y7963971D01*
X14966547Y7957500D01*
X14983453D01*
X14999074Y7963971D01*
X15011031Y7975926D01*
X15017500Y7991547D01*
Y8008454D01*
X15011031Y8024074D01*
X14999074Y8036030D01*
X14983453Y8042500D01*
D02*
G37*
G36*
X14808453Y8042500D02*
X14791547D01*
X14775926Y8036030D01*
X14763969Y8024074D01*
X14757500Y8008454D01*
Y7991546D01*
X14763969Y7975926D01*
X14775926Y7963970D01*
X14791547Y7957500D01*
X14808453D01*
X14824074Y7963970D01*
X14836031Y7975926D01*
X14842500Y7991546D01*
Y8008454D01*
X14836031Y8024074D01*
X14824074Y8036030D01*
X14808453Y8042500D01*
D02*
G37*
G36*
X14658453D02*
X14641547D01*
X14625926Y8036030D01*
X14613969Y8024074D01*
X14607500Y8008454D01*
Y7991546D01*
X14613969Y7975926D01*
X14625926Y7963970D01*
X14641547Y7957500D01*
X14658453D01*
X14674074Y7963970D01*
X14686031Y7975926D01*
X14692500Y7991546D01*
Y8008454D01*
X14686031Y8024074D01*
X14674074Y8036030D01*
X14658453Y8042500D01*
D02*
G37*
G36*
X13758453D02*
X13741547D01*
X13725926Y8036030D01*
X13713969Y8024074D01*
X13707500Y8008454D01*
Y7991546D01*
X13713969Y7975926D01*
X13725926Y7963970D01*
X13741547Y7957500D01*
X13758453D01*
X13774074Y7963970D01*
X13786031Y7975926D01*
X13792500Y7991546D01*
Y8008454D01*
X13786031Y8024074D01*
X13774074Y8036030D01*
X13758453Y8042500D01*
D02*
G37*
G36*
X13658453D02*
X13641547D01*
X13625926Y8036030D01*
X13613969Y8024074D01*
X13607500Y8008454D01*
Y7991546D01*
X13613969Y7975926D01*
X13625926Y7963970D01*
X13641547Y7957500D01*
X13658453D01*
X13674074Y7963970D01*
X13686031Y7975926D01*
X13692500Y7991546D01*
Y8008454D01*
X13686031Y8024074D01*
X13674074Y8036030D01*
X13658453Y8042500D01*
D02*
G37*
G36*
X14508453Y8017500D02*
X14491547D01*
X14475925Y8011030D01*
X14463969Y7999074D01*
X14457500Y7983454D01*
Y7966546D01*
X14463969Y7950926D01*
X14475925Y7938970D01*
X14491547Y7932500D01*
X14508453D01*
X14524072Y7938970D01*
X14536029Y7950926D01*
X14542499Y7966546D01*
Y7983454D01*
X14536029Y7999074D01*
X14524072Y8011030D01*
X14508453Y8017500D01*
D02*
G37*
G36*
X14108453D02*
X14091547D01*
X14075925Y8011030D01*
X14063969Y7999074D01*
X14057500Y7983454D01*
Y7966546D01*
X14063969Y7950926D01*
X14075925Y7938970D01*
X14091547Y7932500D01*
X14108453D01*
X14124072Y7938970D01*
X14136029Y7950926D01*
X14142499Y7966546D01*
Y7983454D01*
X14136029Y7999074D01*
X14124072Y8011030D01*
X14108453Y8017500D01*
D02*
G37*
G36*
X13908453D02*
X13891547D01*
X13875926Y8011030D01*
X13863969Y7999074D01*
X13857500Y7983454D01*
Y7966546D01*
X13863969Y7950926D01*
X13875926Y7938970D01*
X13891547Y7932500D01*
X13908453D01*
X13924074Y7938970D01*
X13936029Y7950926D01*
X13942499Y7966546D01*
Y7983454D01*
X13936029Y7999074D01*
X13924074Y8011030D01*
X13908453Y8017500D01*
D02*
G37*
G36*
X13558453Y7992500D02*
X13541547D01*
X13525926Y7986030D01*
X13513969Y7974074D01*
X13507500Y7958454D01*
Y7941546D01*
X13513969Y7925926D01*
X13525926Y7913970D01*
X13541547Y7907500D01*
X13558453D01*
X13574074Y7913970D01*
X13586031Y7925926D01*
X13592500Y7941546D01*
Y7958454D01*
X13586031Y7974074D01*
X13574074Y7986030D01*
X13558453Y7992500D01*
D02*
G37*
G36*
X13458453D02*
X13441547D01*
X13425926Y7986030D01*
X13413969Y7974074D01*
X13407500Y7958454D01*
Y7941546D01*
X13413969Y7925926D01*
X13425926Y7913970D01*
X13441547Y7907500D01*
X13458453D01*
X13474074Y7913970D01*
X13486031Y7925926D01*
X13492500Y7941546D01*
Y7958454D01*
X13486031Y7974074D01*
X13474074Y7986030D01*
X13458453Y7992500D01*
D02*
G37*
G36*
X14958453Y7892500D02*
X14941547D01*
X14925926Y7886030D01*
X14913969Y7874074D01*
X14907500Y7858454D01*
Y7841546D01*
X14913969Y7825926D01*
X14925926Y7813970D01*
X14941547Y7807500D01*
X14958453D01*
X14974074Y7813970D01*
X14986031Y7825926D01*
X14992500Y7841546D01*
Y7858454D01*
X14986031Y7874074D01*
X14974074Y7886030D01*
X14958453Y7892500D01*
D02*
G37*
G36*
X14808453D02*
X14791547D01*
X14775926Y7886030D01*
X14763969Y7874074D01*
X14757500Y7858454D01*
Y7841546D01*
X14763969Y7825926D01*
X14775926Y7813970D01*
X14791547Y7807500D01*
X14808453D01*
X14824074Y7813970D01*
X14836031Y7825926D01*
X14842500Y7841546D01*
Y7858454D01*
X14836031Y7874074D01*
X14824074Y7886030D01*
X14808453Y7892500D01*
D02*
G37*
G36*
X14658453D02*
X14641547D01*
X14625926Y7886030D01*
X14613969Y7874074D01*
X14607500Y7858454D01*
Y7841546D01*
X14613969Y7825926D01*
X14625926Y7813970D01*
X14641547Y7807500D01*
X14658453D01*
X14674074Y7813970D01*
X14686031Y7825926D01*
X14692500Y7841546D01*
Y7858454D01*
X14686031Y7874074D01*
X14674074Y7886030D01*
X14658453Y7892500D01*
D02*
G37*
G36*
X14508453D02*
X14491547D01*
X14475926Y7886030D01*
X14463969Y7874074D01*
X14457500Y7858454D01*
Y7841546D01*
X14463969Y7825926D01*
X14475926Y7813970D01*
X14491547Y7807500D01*
X14508453D01*
X14524074Y7813970D01*
X14536031Y7825926D01*
X14542500Y7841546D01*
Y7858454D01*
X14536031Y7874074D01*
X14524074Y7886030D01*
X14508453Y7892500D01*
D02*
G37*
G36*
X14308453D02*
X14291547D01*
X14275926Y7886030D01*
X14263969Y7874074D01*
X14257500Y7858454D01*
Y7841546D01*
X14263969Y7825926D01*
X14275926Y7813970D01*
X14291547Y7807500D01*
X14308453D01*
X14324074Y7813970D01*
X14336031Y7825926D01*
X14342500Y7841546D01*
Y7858454D01*
X14336031Y7874074D01*
X14324074Y7886030D01*
X14308453Y7892500D01*
D02*
G37*
G36*
X14108453D02*
X14091547D01*
X14075926Y7886030D01*
X14063969Y7874074D01*
X14057500Y7858454D01*
Y7841546D01*
X14063969Y7825926D01*
X14075926Y7813970D01*
X14091547Y7807500D01*
X14108453D01*
X14124074Y7813970D01*
X14136031Y7825926D01*
X14142500Y7841546D01*
Y7858454D01*
X14136031Y7874074D01*
X14124074Y7886030D01*
X14108453Y7892500D01*
D02*
G37*
G36*
X13908453D02*
X13891547D01*
X13875926Y7886030D01*
X13863969Y7874074D01*
X13857500Y7858454D01*
Y7841546D01*
X13863969Y7825926D01*
X13875926Y7813970D01*
X13891547Y7807500D01*
X13908453D01*
X13924074Y7813970D01*
X13936031Y7825926D01*
X13942500Y7841546D01*
Y7858454D01*
X13936031Y7874074D01*
X13924074Y7886030D01*
X13908453Y7892500D01*
D02*
G37*
G36*
X13558453D02*
X13541547D01*
X13525926Y7886030D01*
X13513969Y7874074D01*
X13507500Y7858454D01*
Y7841546D01*
X13513969Y7825926D01*
X13525926Y7813970D01*
X13541547Y7807500D01*
X13558453D01*
X13574074Y7813970D01*
X13586031Y7825926D01*
X13592500Y7841546D01*
Y7858454D01*
X13586031Y7874074D01*
X13574074Y7886030D01*
X13558453Y7892500D01*
D02*
G37*
G36*
X13458453D02*
X13441547D01*
X13425926Y7886030D01*
X13413969Y7874074D01*
X13407500Y7858454D01*
Y7841546D01*
X13413969Y7825926D01*
X13425926Y7813970D01*
X13441547Y7807500D01*
X13458453D01*
X13474074Y7813970D01*
X13486031Y7825926D01*
X13492500Y7841546D01*
Y7858454D01*
X13486031Y7874074D01*
X13474074Y7886030D01*
X13458453Y7892500D01*
D02*
G37*
G36*
X13708453Y7867500D02*
X13691547D01*
X13675926Y7861029D01*
X13663971Y7849074D01*
X13657500Y7833453D01*
Y7816546D01*
X13663971Y7800926D01*
X13675926Y7788970D01*
X13691547Y7782500D01*
X13708453D01*
X13724074Y7788970D01*
X13736031Y7800926D01*
X13742500Y7816546D01*
Y7833453D01*
X13736031Y7849074D01*
X13724074Y7861029D01*
X13708453Y7867500D01*
D02*
G37*
G36*
X14958453Y7792500D02*
X14941547D01*
X14925926Y7786030D01*
X14913969Y7774074D01*
X14907500Y7758454D01*
Y7741546D01*
X14913969Y7725926D01*
X14925926Y7713970D01*
X14941547Y7707500D01*
X14958453D01*
X14974074Y7713970D01*
X14986031Y7725926D01*
X14992500Y7741546D01*
Y7758454D01*
X14986031Y7774074D01*
X14974074Y7786030D01*
X14958453Y7792500D01*
D02*
G37*
G36*
X14808453D02*
X14791547D01*
X14775926Y7786030D01*
X14763969Y7774074D01*
X14757500Y7758454D01*
Y7741546D01*
X14763969Y7725926D01*
X14775926Y7713970D01*
X14791547Y7707500D01*
X14808453D01*
X14824074Y7713970D01*
X14836031Y7725926D01*
X14842500Y7741546D01*
Y7758454D01*
X14836031Y7774074D01*
X14824074Y7786030D01*
X14808453Y7792500D01*
D02*
G37*
G36*
X14658453D02*
X14641547D01*
X14625926Y7786030D01*
X14613969Y7774074D01*
X14607500Y7758454D01*
Y7741546D01*
X14613969Y7725926D01*
X14625926Y7713970D01*
X14641547Y7707500D01*
X14658453D01*
X14674074Y7713970D01*
X14686031Y7725926D01*
X14692500Y7741546D01*
Y7758454D01*
X14686031Y7774074D01*
X14674074Y7786030D01*
X14658453Y7792500D01*
D02*
G37*
G36*
X14508453D02*
X14491547D01*
X14475926Y7786030D01*
X14463969Y7774074D01*
X14457500Y7758454D01*
Y7741546D01*
X14463969Y7725926D01*
X14475926Y7713970D01*
X14491547Y7707500D01*
X14508453D01*
X14524074Y7713970D01*
X14536031Y7725926D01*
X14542500Y7741546D01*
Y7758454D01*
X14536031Y7774074D01*
X14524074Y7786030D01*
X14508453Y7792500D01*
D02*
G37*
G36*
X14308453D02*
X14291547D01*
X14275926Y7786030D01*
X14263969Y7774074D01*
X14257500Y7758454D01*
Y7741546D01*
X14263969Y7725926D01*
X14275926Y7713970D01*
X14291547Y7707500D01*
X14308453D01*
X14324074Y7713970D01*
X14336031Y7725926D01*
X14342500Y7741546D01*
Y7758454D01*
X14336031Y7774074D01*
X14324074Y7786030D01*
X14308453Y7792500D01*
D02*
G37*
G36*
X14108453D02*
X14091547D01*
X14075926Y7786030D01*
X14063969Y7774074D01*
X14057500Y7758454D01*
Y7741546D01*
X14063969Y7725926D01*
X14075926Y7713970D01*
X14091547Y7707500D01*
X14108453D01*
X14124074Y7713970D01*
X14136031Y7725926D01*
X14142500Y7741546D01*
Y7758454D01*
X14136031Y7774074D01*
X14124074Y7786030D01*
X14108453Y7792500D01*
D02*
G37*
G36*
X13908453D02*
X13891547D01*
X13875926Y7786030D01*
X13863969Y7774074D01*
X13857500Y7758454D01*
Y7741546D01*
X13863969Y7725926D01*
X13875926Y7713970D01*
X13891547Y7707500D01*
X13908453D01*
X13924074Y7713970D01*
X13936031Y7725926D01*
X13942500Y7741546D01*
Y7758454D01*
X13936031Y7774074D01*
X13924074Y7786030D01*
X13908453Y7792500D01*
D02*
G37*
G36*
X14958453Y7692500D02*
X14941547D01*
X14925926Y7686030D01*
X14913969Y7674074D01*
X14907500Y7658454D01*
Y7641546D01*
X14913969Y7625926D01*
X14925926Y7613970D01*
X14941547Y7607500D01*
X14958453D01*
X14974074Y7613970D01*
X14986031Y7625926D01*
X14992500Y7641546D01*
Y7658454D01*
X14986031Y7674074D01*
X14974074Y7686030D01*
X14958453Y7692500D01*
D02*
G37*
G36*
X14808453D02*
X14791547D01*
X14775926Y7686030D01*
X14763969Y7674074D01*
X14757500Y7658454D01*
Y7641546D01*
X14763969Y7625926D01*
X14775926Y7613970D01*
X14791547Y7607500D01*
X14808453D01*
X14824074Y7613970D01*
X14836031Y7625926D01*
X14842500Y7641546D01*
Y7658454D01*
X14836031Y7674074D01*
X14824074Y7686030D01*
X14808453Y7692500D01*
D02*
G37*
G36*
X14658453D02*
X14641547D01*
X14625926Y7686030D01*
X14613969Y7674074D01*
X14607500Y7658454D01*
Y7641546D01*
X14613969Y7625926D01*
X14625926Y7613970D01*
X14641547Y7607500D01*
X14658453D01*
X14674074Y7613970D01*
X14686031Y7625926D01*
X14692500Y7641546D01*
Y7658454D01*
X14686031Y7674074D01*
X14674074Y7686030D01*
X14658453Y7692500D01*
D02*
G37*
G36*
X14108453D02*
X14091547D01*
X14075926Y7686030D01*
X14063969Y7674074D01*
X14057500Y7658454D01*
Y7641546D01*
X14063969Y7625926D01*
X14075926Y7613970D01*
X14091547Y7607500D01*
X14108453D01*
X14124074Y7613970D01*
X14136031Y7625926D01*
X14142500Y7641546D01*
Y7658454D01*
X14136031Y7674074D01*
X14124074Y7686030D01*
X14108453Y7692500D01*
D02*
G37*
G36*
X13908453D02*
X13891547D01*
X13875926Y7686030D01*
X13863969Y7674074D01*
X13857500Y7658454D01*
Y7641546D01*
X13863969Y7625926D01*
X13875926Y7613970D01*
X13891547Y7607500D01*
X13908453D01*
X13924074Y7613970D01*
X13936031Y7625926D01*
X13942500Y7641546D01*
Y7658454D01*
X13936031Y7674074D01*
X13924074Y7686030D01*
X13908453Y7692500D01*
D02*
G37*
G36*
X14958453Y7592500D02*
X14941547D01*
X14925926Y7586030D01*
X14913969Y7574074D01*
X14907500Y7558454D01*
Y7541546D01*
X14913969Y7525926D01*
X14925926Y7513970D01*
X14941547Y7507500D01*
X14958453D01*
X14974074Y7513970D01*
X14986031Y7525926D01*
X14992500Y7541546D01*
Y7558454D01*
X14986031Y7574074D01*
X14974074Y7586030D01*
X14958453Y7592500D01*
D02*
G37*
G36*
X14808453D02*
X14791547D01*
X14775926Y7586030D01*
X14763969Y7574074D01*
X14757500Y7558454D01*
Y7541546D01*
X14763969Y7525926D01*
X14775926Y7513970D01*
X14791547Y7507500D01*
X14808453D01*
X14824074Y7513970D01*
X14836031Y7525926D01*
X14842500Y7541546D01*
Y7558454D01*
X14836031Y7574074D01*
X14824074Y7586030D01*
X14808453Y7592500D01*
D02*
G37*
G36*
X14108453D02*
X14091547D01*
X14075926Y7586030D01*
X14063969Y7574074D01*
X14057500Y7558454D01*
Y7541546D01*
X14063969Y7525926D01*
X14075926Y7513970D01*
X14091547Y7507500D01*
X14108453D01*
X14124074Y7513970D01*
X14136031Y7525926D01*
X14142500Y7541546D01*
Y7558454D01*
X14136031Y7574074D01*
X14124074Y7586030D01*
X14108453Y7592500D01*
D02*
G37*
G36*
X13908453D02*
X13891547D01*
X13875926Y7586030D01*
X13863969Y7574074D01*
X13857500Y7558454D01*
Y7541546D01*
X13863969Y7525926D01*
X13875926Y7513970D01*
X13891547Y7507500D01*
X13908453D01*
X13924074Y7513970D01*
X13936031Y7525926D01*
X13942500Y7541546D01*
Y7558454D01*
X13936031Y7574074D01*
X13924074Y7586030D01*
X13908453Y7592500D01*
D02*
G37*
G36*
X14958453Y7492500D02*
X14941547D01*
X14925926Y7486030D01*
X14913969Y7474074D01*
X14907500Y7458454D01*
Y7441546D01*
X14913969Y7425926D01*
X14925926Y7413970D01*
X14941547Y7407500D01*
X14958453D01*
X14974074Y7413970D01*
X14986031Y7425926D01*
X14992500Y7441546D01*
Y7458454D01*
X14986031Y7474074D01*
X14974074Y7486030D01*
X14958453Y7492500D01*
D02*
G37*
G36*
X14808453D02*
X14791547D01*
X14775926Y7486030D01*
X14763969Y7474074D01*
X14757500Y7458454D01*
Y7441546D01*
X14763969Y7425926D01*
X14775926Y7413970D01*
X14791547Y7407500D01*
X14808453D01*
X14824074Y7413970D01*
X14836031Y7425926D01*
X14842500Y7441546D01*
Y7458454D01*
X14836031Y7474074D01*
X14824074Y7486030D01*
X14808453Y7492500D01*
D02*
G37*
G36*
X14108453D02*
X14091547D01*
X14075926Y7486030D01*
X14063969Y7474074D01*
X14057500Y7458454D01*
Y7441546D01*
X14063969Y7425926D01*
X14075926Y7413970D01*
X14091547Y7407500D01*
X14108453D01*
X14124074Y7413970D01*
X14136031Y7425926D01*
X14142500Y7441546D01*
Y7458454D01*
X14136031Y7474074D01*
X14124074Y7486030D01*
X14108453Y7492500D01*
D02*
G37*
G36*
X13908453D02*
X13891547D01*
X13875926Y7486030D01*
X13863969Y7474074D01*
X13857500Y7458454D01*
Y7441546D01*
X13863969Y7425926D01*
X13875926Y7413970D01*
X13891547Y7407500D01*
X13908453D01*
X13924074Y7413970D01*
X13936031Y7425926D01*
X13942500Y7441546D01*
Y7458454D01*
X13936031Y7474074D01*
X13924074Y7486030D01*
X13908453Y7492500D01*
D02*
G37*
G36*
X14958453Y7392500D02*
X14941547D01*
X14925926Y7386030D01*
X14913969Y7374074D01*
X14907500Y7358454D01*
Y7341546D01*
X14913969Y7325926D01*
X14925926Y7313970D01*
X14941547Y7307500D01*
X14958453D01*
X14974074Y7313970D01*
X14986031Y7325926D01*
X14992500Y7341546D01*
Y7358454D01*
X14986031Y7374074D01*
X14974074Y7386030D01*
X14958453Y7392500D01*
D02*
G37*
G36*
X14808453D02*
X14791547D01*
X14775926Y7386030D01*
X14763969Y7374074D01*
X14757500Y7358454D01*
Y7341546D01*
X14763969Y7325926D01*
X14775926Y7313970D01*
X14791547Y7307500D01*
X14808453D01*
X14824074Y7313970D01*
X14836031Y7325926D01*
X14842500Y7341546D01*
Y7358454D01*
X14836031Y7374074D01*
X14824074Y7386030D01*
X14808453Y7392500D01*
D02*
G37*
G36*
X14108453D02*
X14091547D01*
X14075926Y7386030D01*
X14063969Y7374074D01*
X14057500Y7358454D01*
Y7341546D01*
X14063969Y7325926D01*
X14075926Y7313970D01*
X14091547Y7307500D01*
X14108453D01*
X14124074Y7313970D01*
X14136031Y7325926D01*
X14142500Y7341546D01*
Y7358454D01*
X14136031Y7374074D01*
X14124074Y7386030D01*
X14108453Y7392500D01*
D02*
G37*
G36*
X13908453D02*
X13891547D01*
X13875926Y7386030D01*
X13863969Y7374074D01*
X13857500Y7358454D01*
Y7341546D01*
X13863969Y7325926D01*
X13875926Y7313970D01*
X13891547Y7307500D01*
X13908453D01*
X13924074Y7313970D01*
X13936031Y7325926D01*
X13942500Y7341546D01*
Y7358454D01*
X13936031Y7374074D01*
X13924074Y7386030D01*
X13908453Y7392500D01*
D02*
G37*
G36*
X13808453D02*
X13791547D01*
X13775926Y7386030D01*
X13763969Y7374074D01*
X13757500Y7358454D01*
Y7341546D01*
X13763969Y7325926D01*
X13775926Y7313970D01*
X13791547Y7307500D01*
X13808453D01*
X13824074Y7313970D01*
X13836031Y7325926D01*
X13842500Y7341546D01*
Y7358454D01*
X13836031Y7374074D01*
X13824074Y7386030D01*
X13808453Y7392500D01*
D02*
G37*
G36*
X13708453D02*
X13691547D01*
X13675926Y7386030D01*
X13663969Y7374074D01*
X13657500Y7358454D01*
Y7341546D01*
X13663969Y7325926D01*
X13675926Y7313970D01*
X13691547Y7307500D01*
X13708453D01*
X13724074Y7313970D01*
X13736031Y7325926D01*
X13742500Y7341546D01*
Y7358454D01*
X13736031Y7374074D01*
X13724074Y7386030D01*
X13708453Y7392500D01*
D02*
G37*
G36*
X14421667Y7670000D02*
X14378333D01*
X14335828Y7661546D01*
X14295792Y7644961D01*
X14259758Y7620885D01*
X14229115Y7590242D01*
X14205038Y7554209D01*
X14188454Y7514172D01*
X14180000Y7471668D01*
Y7428332D01*
X14188454Y7385829D01*
X14205038Y7345791D01*
X14229115Y7309758D01*
X14259758Y7279115D01*
X14295792Y7255039D01*
X14335828Y7238455D01*
X14378333Y7230000D01*
X14421667D01*
X14464171Y7238455D01*
X14504208Y7255039D01*
X14540242Y7279115D01*
X14570885Y7309758D01*
X14594962Y7345791D01*
X14611545Y7385829D01*
X14620000Y7428332D01*
Y7471668D01*
X14611545Y7514172D01*
X14594962Y7554209D01*
X14570885Y7590242D01*
X14540242Y7620885D01*
X14504208Y7644961D01*
X14464171Y7661546D01*
X14421667Y7670000D01*
D02*
G37*
G36*
X14958453Y7292500D02*
X14941547D01*
X14925926Y7286030D01*
X14913969Y7274074D01*
X14907500Y7258454D01*
Y7241546D01*
X14913969Y7225926D01*
X14925926Y7213970D01*
X14941547Y7207500D01*
X14958453D01*
X14974074Y7213970D01*
X14986031Y7225926D01*
X14992500Y7241546D01*
Y7258454D01*
X14986031Y7274074D01*
X14974074Y7286030D01*
X14958453Y7292500D01*
D02*
G37*
G36*
X14808453D02*
X14791547D01*
X14775926Y7286030D01*
X14763969Y7274074D01*
X14757500Y7258454D01*
Y7241546D01*
X14763969Y7225926D01*
X14775926Y7213970D01*
X14791547Y7207500D01*
X14808453D01*
X14824074Y7213970D01*
X14836031Y7225926D01*
X14842500Y7241546D01*
Y7258454D01*
X14836031Y7274074D01*
X14824074Y7286030D01*
X14808453Y7292500D01*
D02*
G37*
G36*
X14108453D02*
X14091547D01*
X14075926Y7286030D01*
X14063969Y7274074D01*
X14057500Y7258454D01*
Y7241546D01*
X14063969Y7225926D01*
X14075926Y7213970D01*
X14091547Y7207500D01*
X14108453D01*
X14124074Y7213970D01*
X14136031Y7225926D01*
X14142500Y7241546D01*
Y7258454D01*
X14136031Y7274074D01*
X14124074Y7286030D01*
X14108453Y7292500D01*
D02*
G37*
G36*
X13908453Y7242500D02*
X13891547D01*
X13875926Y7236030D01*
X13863969Y7224074D01*
X13857500Y7208454D01*
Y7191546D01*
X13863969Y7175926D01*
X13875926Y7163970D01*
X13891547Y7157500D01*
X13908453D01*
X13924074Y7163970D01*
X13936031Y7175926D01*
X13942500Y7191546D01*
Y7208454D01*
X13936031Y7224074D01*
X13924074Y7236030D01*
X13908453Y7242500D01*
D02*
G37*
G36*
X13808453D02*
X13791547D01*
X13775926Y7236030D01*
X13763969Y7224074D01*
X13757500Y7208454D01*
Y7191546D01*
X13763969Y7175926D01*
X13775926Y7163970D01*
X13791547Y7157500D01*
X13808453D01*
X13824074Y7163970D01*
X13836031Y7175926D01*
X13842500Y7191546D01*
Y7208454D01*
X13836031Y7224074D01*
X13824074Y7236030D01*
X13808453Y7242500D01*
D02*
G37*
G36*
X13708453D02*
X13691547D01*
X13675926Y7236030D01*
X13663969Y7224074D01*
X13657500Y7208454D01*
Y7191546D01*
X13663969Y7175926D01*
X13675926Y7163970D01*
X13691547Y7157500D01*
X13708453D01*
X13724074Y7163970D01*
X13736031Y7175926D01*
X13742500Y7191546D01*
Y7208454D01*
X13736031Y7224074D01*
X13724074Y7236030D01*
X13708453Y7242500D01*
D02*
G37*
G36*
X14658453Y7192500D02*
X14641547D01*
X14625926Y7186030D01*
X14613969Y7174074D01*
X14607500Y7158454D01*
Y7141546D01*
X14613969Y7125926D01*
X14625926Y7113970D01*
X14641547Y7107500D01*
X14658453D01*
X14674074Y7113970D01*
X14686031Y7125926D01*
X14692500Y7141546D01*
Y7158454D01*
X14686031Y7174074D01*
X14674074Y7186030D01*
X14658453Y7192500D01*
D02*
G37*
G36*
X14508453D02*
X14491547D01*
X14475926Y7186030D01*
X14463969Y7174074D01*
X14457500Y7158454D01*
Y7141546D01*
X14463969Y7125926D01*
X14475926Y7113970D01*
X14491547Y7107500D01*
X14508453D01*
X14524074Y7113970D01*
X14536031Y7125926D01*
X14542500Y7141546D01*
Y7158454D01*
X14536031Y7174074D01*
X14524074Y7186030D01*
X14508453Y7192500D01*
D02*
G37*
G36*
X14308453D02*
X14291547D01*
X14275926Y7186030D01*
X14263969Y7174074D01*
X14257500Y7158454D01*
Y7141546D01*
X14263969Y7125926D01*
X14275926Y7113970D01*
X14291547Y7107500D01*
X14308453D01*
X14324074Y7113970D01*
X14336031Y7125926D01*
X14342500Y7141546D01*
Y7158454D01*
X14336031Y7174074D01*
X14324074Y7186030D01*
X14308453Y7192500D01*
D02*
G37*
G36*
X14108453D02*
X14091547D01*
X14075926Y7186030D01*
X14063969Y7174074D01*
X14057500Y7158454D01*
Y7141546D01*
X14063969Y7125926D01*
X14075926Y7113970D01*
X14091547Y7107500D01*
X14108453D01*
X14124074Y7113970D01*
X14136031Y7125926D01*
X14142500Y7141546D01*
Y7158454D01*
X14136031Y7174074D01*
X14124074Y7186030D01*
X14108453Y7192500D01*
D02*
G37*
G36*
X13908453Y7142500D02*
X13891547D01*
X13875926Y7136030D01*
X13863969Y7124074D01*
X13857500Y7108454D01*
Y7091546D01*
X13863969Y7075926D01*
X13875926Y7063970D01*
X13891547Y7057500D01*
X13908453D01*
X13924074Y7063970D01*
X13936031Y7075926D01*
X13942500Y7091546D01*
Y7108454D01*
X13936031Y7124074D01*
X13924074Y7136030D01*
X13908453Y7142500D01*
D02*
G37*
G36*
X13808453D02*
X13791547D01*
X13775926Y7136030D01*
X13763969Y7124074D01*
X13757500Y7108454D01*
Y7091546D01*
X13763969Y7075926D01*
X13775926Y7063970D01*
X13791547Y7057500D01*
X13808453D01*
X13824074Y7063970D01*
X13836029Y7075926D01*
X13842500Y7091546D01*
Y7108454D01*
X13836029Y7124074D01*
X13824074Y7136030D01*
X13808453Y7142500D01*
D02*
G37*
G36*
X13708453D02*
X13691547D01*
X13675926Y7136030D01*
X13663969Y7124074D01*
X13657500Y7108454D01*
Y7091546D01*
X13663969Y7075926D01*
X13675926Y7063970D01*
X13691547Y7057500D01*
X13708453D01*
X13724074Y7063970D01*
X13736031Y7075926D01*
X13742500Y7091546D01*
Y7108454D01*
X13736031Y7124074D01*
X13724074Y7136030D01*
X13708453Y7142500D01*
D02*
G37*
G36*
X14308453Y7092500D02*
X14291547D01*
X14275926Y7086030D01*
X14263969Y7074074D01*
X14257500Y7058454D01*
Y7041546D01*
X14263969Y7025926D01*
X14275926Y7013970D01*
X14291547Y7007500D01*
X14308453D01*
X14324074Y7013970D01*
X14336031Y7025926D01*
X14342500Y7041546D01*
Y7058454D01*
X14336031Y7074074D01*
X14324074Y7086030D01*
X14308453Y7092500D01*
D02*
G37*
G36*
X14108453D02*
X14091547D01*
X14075926Y7086030D01*
X14063969Y7074074D01*
X14057500Y7058454D01*
Y7041546D01*
X14063969Y7025926D01*
X14075926Y7013970D01*
X14091547Y7007500D01*
X14108453D01*
X14124074Y7013970D01*
X14136031Y7025926D01*
X14142500Y7041546D01*
Y7058454D01*
X14136031Y7074074D01*
X14124074Y7086030D01*
X14108453Y7092500D01*
D02*
G37*
G36*
X13908453Y7042500D02*
X13891547D01*
X13875926Y7036030D01*
X13863969Y7024074D01*
X13857500Y7008454D01*
Y6991546D01*
X13863969Y6975926D01*
X13875926Y6963970D01*
X13891547Y6957500D01*
X13908453D01*
X13924074Y6963970D01*
X13936031Y6975926D01*
X13942500Y6991546D01*
Y7008454D01*
X13936031Y7024074D01*
X13924074Y7036030D01*
X13908453Y7042500D01*
D02*
G37*
G36*
X13808453D02*
X13791547D01*
X13775926Y7036030D01*
X13763969Y7024074D01*
X13757500Y7008454D01*
Y6991546D01*
X13763969Y6975926D01*
X13775926Y6963970D01*
X13791547Y6957500D01*
X13808453D01*
X13824074Y6963970D01*
X13836031Y6975926D01*
X13842500Y6991546D01*
Y7008454D01*
X13836031Y7024074D01*
X13824074Y7036030D01*
X13808453Y7042500D01*
D02*
G37*
G36*
X13708453D02*
X13691547D01*
X13675926Y7036030D01*
X13663969Y7024074D01*
X13657500Y7008454D01*
Y6991546D01*
X13663969Y6975926D01*
X13675926Y6963970D01*
X13691547Y6957500D01*
X13708453D01*
X13724074Y6963970D01*
X13736031Y6975926D01*
X13742500Y6991546D01*
Y7008454D01*
X13736031Y7024074D01*
X13724074Y7036030D01*
X13708453Y7042500D01*
D02*
G37*
%LPD*%
D49*
X13000000Y10750000D02*
D03*
Y11410000D02*
D03*
D50*
X13150000Y12300000D02*
D03*
X10536732Y12505425D02*
D03*
D51*
X13262941Y12039444D02*
D03*
X12986732Y12105425D02*
D03*
X13099673Y11844869D02*
D03*
X10886732Y8594575D02*
D03*
X10773791Y8334020D02*
D03*
X11050000Y8400000D02*
D03*
X14645621Y14314102D02*
D03*
X14750000Y14050000D02*
D03*
X14898654Y14291965D02*
D03*
X10345246Y9606214D02*
D03*
X10150000Y9400000D02*
D03*
X10432119Y9367532D02*
D03*
X14922446Y13273471D02*
D03*
X14700000Y13450000D02*
D03*
X14692244Y13166125D02*
D03*
X10204000Y10527000D02*
D03*
X9950000Y10400000D02*
D03*
X10204000Y10273000D02*
D03*
X10423790Y12765980D02*
D03*
X10700000Y12700000D02*
D03*
X10587059Y12960555D02*
D03*
D52*
X13377879Y12291544D02*
D03*
X10658420Y8751543D02*
D03*
X14373187Y14263654D02*
D03*
X10184389Y9831802D02*
D03*
X15133156Y13453375D02*
D03*
X10130000Y10794000D02*
D03*
X10308854Y12513880D02*
D03*
D53*
X10610523Y8528595D02*
D03*
D54*
X14496967Y14072137D02*
D03*
D55*
X10063127Y9638682D02*
D03*
D56*
X14930202Y13557346D02*
D03*
D57*
X9950000Y10654000D02*
D03*
D58*
X11400000Y11800000D02*
D03*
X14000000Y13600000D02*
D03*
X14400000Y7450000D02*
D03*
D59*
X12250000Y14150000D02*
D03*
X11800000D02*
D03*
X14000000Y12700000D02*
D03*
X12730000Y11650000D02*
D03*
X12347500Y11600000D02*
D03*
X12294800Y12050000D02*
D03*
X12305200Y11850000D02*
D03*
X11250000Y8800000D02*
D03*
X10800000Y9560000D02*
D03*
X10650000Y9650000D02*
D03*
X12750000Y10750000D02*
D03*
Y11400000D02*
D03*
X12570000Y13520000D02*
D03*
X12455200Y10763410D02*
D03*
Y11285156D02*
D03*
X12494800Y10400000D02*
D03*
X12429800D02*
D03*
X12615600Y11300000D02*
D03*
X12642300Y12973900D02*
D03*
X12069800Y12930409D02*
D03*
X12305200Y12900000D02*
D03*
X12194800Y12944800D02*
D03*
X12225104Y12550000D02*
D03*
X12094800Y11213239D02*
D03*
X12058409Y12441590D02*
D03*
X12870000Y11650000D02*
D03*
X15200000Y8200000D02*
D03*
X13200000Y8500000D02*
D03*
X12450000Y8875000D02*
D03*
X10950000Y10215000D02*
D03*
X12100000Y9572500D02*
D03*
X12200000Y9550000D02*
D03*
X11800000Y9950000D02*
D03*
X12850000Y9500000D02*
D03*
X12817500Y9574265D02*
D03*
X11000000Y10150000D02*
D03*
X10577115Y10863481D02*
D03*
X10905984Y12384049D02*
D03*
X11418306Y11480341D02*
D03*
X12850000Y8395000D02*
D03*
Y8250000D02*
D03*
X12800000Y8200000D02*
D03*
X12750000Y8250000D02*
D03*
X12700000Y8200000D02*
D03*
X12650000Y8250000D02*
D03*
X12600000Y8200000D02*
D03*
X12550000Y8250000D02*
D03*
X12800000Y8650000D02*
D03*
X12600000D02*
D03*
X11750000Y9102500D02*
D03*
X11900000D02*
D03*
X11900000Y9400000D02*
D03*
X12000000Y9300000D02*
D03*
X12178410Y8931590D02*
D03*
X12800000Y9350000D02*
D03*
X12300000Y9400000D02*
D03*
X12400000Y9452500D02*
D03*
X12400000Y9345000D02*
D03*
X13050000Y8670000D02*
D03*
X11671172Y8905000D02*
D03*
X11222500Y10027500D02*
D03*
X10750000Y10100000D02*
D03*
X11900000Y8947500D02*
D03*
X11800000Y8697500D02*
D03*
X11200000Y9550000D02*
D03*
X11000000D02*
D03*
X12097130Y8697130D02*
D03*
X11700000Y8695000D02*
D03*
X12650000Y8400000D02*
D03*
X12750000D02*
D03*
X13050000Y8420000D02*
D03*
X13900000Y7000000D02*
D03*
X13800000D02*
D03*
X13700000D02*
D03*
Y7100000D02*
D03*
X13800000D02*
D03*
X13900000D02*
D03*
Y7200000D02*
D03*
X13800000D02*
D03*
X13700000D02*
D03*
X14950000Y7750000D02*
D03*
Y7850000D02*
D03*
Y7650000D02*
D03*
Y7550000D02*
D03*
Y7450000D02*
D03*
Y7350000D02*
D03*
Y7250000D02*
D03*
X14800000Y7650000D02*
D03*
Y7750000D02*
D03*
X14650000Y7150000D02*
D03*
X14800000Y7250000D02*
D03*
Y7350000D02*
D03*
Y7450000D02*
D03*
Y7550000D02*
D03*
X14650000Y7650000D02*
D03*
Y7750000D02*
D03*
X14500000Y7050000D02*
D03*
Y7150000D02*
D03*
X14300000D02*
D03*
Y7050000D02*
D03*
X14100000D02*
D03*
Y7150000D02*
D03*
Y7250000D02*
D03*
Y7350000D02*
D03*
Y7450000D02*
D03*
Y7550000D02*
D03*
Y7650000D02*
D03*
X13700000Y7350000D02*
D03*
X13800000D02*
D03*
X13900000D02*
D03*
Y7450000D02*
D03*
Y7550000D02*
D03*
Y7650000D02*
D03*
Y7750000D02*
D03*
X14499998Y7975000D02*
D03*
X14100000Y7750000D02*
D03*
X14500000D02*
D03*
X14300000D02*
D03*
X14800000Y8000000D02*
D03*
X14650000Y7850000D02*
D03*
Y8000000D02*
D03*
X15063499Y8204700D02*
D03*
X14936501D02*
D03*
X14975000Y8000000D02*
D03*
X14800000Y7850000D02*
D03*
X14099998Y7975000D02*
D03*
X14500000Y7850000D02*
D03*
X14300000D02*
D03*
X14100000D02*
D03*
X13900000D02*
D03*
X13750000Y8000000D02*
D03*
X13650000D02*
D03*
X13700000Y7825000D02*
D03*
X13550000Y7850000D02*
D03*
X13450000D02*
D03*
X13550000Y7950000D02*
D03*
Y8050000D02*
D03*
X13600000Y8150000D02*
D03*
X13450000Y7950000D02*
D03*
X15125000Y8000000D02*
D03*
X14650000Y8150000D02*
D03*
X14450000Y8250000D02*
D03*
X13900000Y7975000D02*
D03*
Y8125000D02*
D03*
X13739999Y8150000D02*
D03*
X13750000Y8350000D02*
D03*
X13300000Y8925000D02*
D03*
X13300000Y12800000D02*
D03*
X12602500Y9000000D02*
D03*
X11989599Y11489599D02*
D03*
X12700000Y13300000D02*
D03*
X12646101Y13503899D02*
D03*
X13600000Y13650000D02*
D03*
X13100000D02*
D03*
X13000000Y13500000D02*
D03*
X12750000Y13000000D02*
D03*
X11889599Y11239599D02*
D03*
X11550000Y11000000D02*
D03*
X11650000D02*
D03*
X11222500Y9800000D02*
D03*
X12253750Y10324640D02*
D03*
X12850000Y10500000D02*
D03*
X12817500Y10312500D02*
D03*
X10950000Y9762500D02*
D03*
X11150000Y13450000D02*
D03*
X13500000Y8925000D02*
D03*
X11050000Y11250000D02*
D03*
Y11750000D02*
D03*
X14300000Y8125000D02*
D03*
X13700000Y9375000D02*
D03*
X13292500Y8075000D02*
D03*
X13700000Y8880000D02*
D03*
X10000000Y12450000D02*
D03*
X10400000Y12250000D02*
D03*
X10300000Y12350000D02*
D03*
X9900000D02*
D03*
X10100000D02*
D03*
X9800000Y12250000D02*
D03*
X10000000D02*
D03*
X10200000D02*
D03*
X10300000Y12150000D02*
D03*
X10100000D02*
D03*
X9900000D02*
D03*
X10200000Y12050000D02*
D03*
X10000000D02*
D03*
X9800000D02*
D03*
X15400000Y8950000D02*
D03*
X15300000D02*
D03*
X15200000D02*
D03*
X15100000D02*
D03*
X15000000Y8950000D02*
D03*
X14900000Y8950000D02*
D03*
X14800000Y8950000D02*
D03*
X14900000Y8850000D02*
D03*
X15000000D02*
D03*
X15100000D02*
D03*
X15200000D02*
D03*
X15300000D02*
D03*
X15400000D02*
D03*
X15500000D02*
D03*
X15600000D02*
D03*
X15750000Y8600000D02*
D03*
X15750000Y8500000D02*
D03*
Y8400000D02*
D03*
Y8300000D02*
D03*
Y8200000D02*
D03*
Y8100000D02*
D03*
Y8000000D02*
D03*
Y7900000D02*
D03*
X15750000Y7800000D02*
D03*
X15650000Y7800000D02*
D03*
X15550000D02*
D03*
X15450000D02*
D03*
X15600000Y7700000D02*
D03*
X15500000D02*
D03*
X15400000D02*
D03*
X15350000Y7800000D02*
D03*
X15300000Y7700000D02*
D03*
X14350000Y8350000D02*
D03*
X14250000D02*
D03*
X13850000Y8250000D02*
D03*
X13950000D02*
D03*
X13850000Y8350000D02*
D03*
X15700000Y7700000D02*
D03*
X15600000Y7600000D02*
D03*
X15500000D02*
D03*
X15400000D02*
D03*
X15300000D02*
D03*
X14550000Y8350000D02*
D03*
X14050000Y8250000D02*
D03*
X13750000D02*
D03*
X14500000Y8125000D02*
D03*
X15550000Y7500000D02*
D03*
X15450000D02*
D03*
X15350000D02*
D03*
X14550000Y8250000D02*
D03*
X14450000Y8350000D02*
D03*
X14250000Y8250000D02*
D03*
X14050000Y8350000D02*
D03*
X15350000Y7400000D02*
D03*
X14650000Y8350000D02*
D03*
Y8250000D02*
D03*
X14350000D02*
D03*
X14150000Y8350000D02*
D03*
Y8250000D02*
D03*
X13950000Y8350000D02*
D03*
X13700002Y7675000D02*
D03*
X12105582Y13064809D02*
D03*
X12140000Y13160001D02*
D03*
X10900000Y10050000D02*
D03*
X12700000Y9000000D02*
D03*
X14800000Y8200000D02*
D03*
X12500000Y14000000D02*
D03*
X12350000Y10500000D02*
D03*
X14100000Y8125000D02*
D03*
X14750000Y9050000D02*
D03*
X13500000Y9375000D02*
D03*
X13300000D02*
D03*
X13550000Y8750000D02*
D03*
X10608082Y10791917D02*
D03*
X10100000Y11000000D02*
D03*
X11650000Y10050000D02*
D03*
X11950000Y8550000D02*
D03*
X11850000D02*
D03*
X11800000Y8500000D02*
D03*
X11750000Y8550000D02*
D03*
X11660000Y8549811D02*
D03*
X11250000Y9400000D02*
D03*
X11200000Y9350000D02*
D03*
X11150000Y9400000D02*
D03*
X11100000Y9350000D02*
D03*
X11050000Y9400000D02*
D03*
X11000000Y9350000D02*
D03*
X10950000Y9400000D02*
D03*
X11100000Y9550000D02*
D03*
X12000000Y12600000D02*
D03*
X11950000Y12700000D02*
D03*
X11595096Y12849490D02*
D03*
X11600000Y13000000D02*
D03*
X12400000Y13350000D02*
D03*
X12350000Y13400000D02*
D03*
X12250000Y13450000D02*
D03*
X12050000Y13600000D02*
D03*
X11550000Y13850000D02*
D03*
X12200000D02*
D03*
X12650000Y14050000D02*
D03*
X12800000D02*
D03*
X13450000D02*
D03*
X13250000Y13850000D02*
D03*
X13980000Y12920000D02*
D03*
X14180000Y13080000D02*
D03*
X14850000Y13900000D02*
D03*
X13850000Y14200000D02*
D03*
Y14450000D02*
D03*
Y14100000D02*
D03*
X11150000Y13600000D02*
D03*
X11550000Y12700000D02*
D03*
X10664032Y11985968D02*
D03*
X10976615Y12300000D02*
D03*
X11488308Y12811691D02*
D03*
X10550000Y11950000D02*
D03*
X10850000Y12500000D02*
D03*
X10250000Y11900000D02*
D03*
X10363500Y11886500D02*
D03*
X10600000Y11850000D02*
D03*
X9850000D02*
D03*
X10900000Y11000000D02*
D03*
X11286500Y11036500D02*
D03*
X11413500Y11036500D02*
D03*
X12050000Y10350000D02*
D03*
X13050000Y11000000D02*
D03*
Y10900000D02*
D03*
X12950000D02*
D03*
X13050000Y11150000D02*
D03*
Y11250000D02*
D03*
X12950000Y11150000D02*
D03*
Y11000000D02*
D03*
Y11250000D02*
D03*
X11650000Y10200000D02*
D03*
X13350000Y7100000D02*
D03*
X12950000Y9300000D02*
D03*
X11900000Y8700000D02*
D03*
X10850000Y10025000D02*
D03*
X13450000Y7000000D02*
D03*
X13350000D02*
D03*
X13450000Y7100000D02*
D03*
X13250000Y7000000D02*
D03*
Y7100000D02*
D03*
X13450000Y7200000D02*
D03*
X13350000D02*
D03*
X13250000D02*
D03*
X15400000Y8200000D02*
D03*
Y8100000D02*
D03*
X15500000Y8200000D02*
D03*
Y8100000D02*
D03*
X15600000Y8200000D02*
D03*
Y8100000D02*
D03*
X15600000Y8000000D02*
D03*
X15500000D02*
D03*
X15400000D02*
D03*
X9850000Y11050000D02*
D03*
%TF.MD5,7310659ae7e5d753093de1a3e42dd9a6*%
M02*
