%TF.GenerationSoftware,Altium Limited,Altium Designer,22.9.1 (49)*%
G04 Layer_Color=65535*
%FSLAX45Y45*%
%MOMM*%
%TF.SameCoordinates,A07B7C20-9008-4073-B72B-9E11D2315A39*%
%TF.FilePolarity,Positive*%
%TF.FileFunction,Legend,Top*%
%TF.Part,Single*%
G01*
G75*
%TA.AperFunction,NonConductor*%
%ADD71C,0.20000*%
%ADD72C,0.25400*%
%ADD73C,0.25000*%
%ADD74C,0.15240*%
%ADD75C,0.17780*%
%ADD76C,0.12700*%
%ADD77C,0.15000*%
%ADD78C,0.07620*%
%ADD79C,0.15300*%
G36*
X10001550Y11079040D02*
Y11053640D01*
X9963450D01*
Y11079040D01*
X10001550D01*
D02*
G37*
G36*
X11051550Y10229040D02*
Y10203640D01*
X11013450D01*
Y10229040D01*
X11051550D01*
D02*
G37*
G36*
X12201550Y9579040D02*
Y9553640D01*
X12163450D01*
Y9579040D01*
X12201550D01*
D02*
G37*
G36*
X12429050Y12679300D02*
Y12653900D01*
X12390950D01*
Y12679300D01*
X12429050D01*
D02*
G37*
G36*
X11929300Y13380949D02*
Y13419051D01*
X11903900D01*
Y13380949D01*
X11929300D01*
D02*
G37*
G36*
X12970700Y13300951D02*
Y13339050D01*
X12996100D01*
Y13300951D01*
X12970700D01*
D02*
G37*
D71*
X13663499Y13821001D02*
G03*
X13663499Y13821001I-10000J0D01*
G01*
X13006178Y12429072D02*
G03*
X13006178Y12429072I-10000J0D01*
G01*
X10466701Y8399523D02*
G03*
X10466701Y8399523I-10000J0D01*
G01*
X14489465Y13872102D02*
G03*
X14489465Y13872102I-10000J0D01*
G01*
X9884437Y9570004D02*
G03*
X9884437Y9570004I-10000J0D01*
G01*
X14855341Y13739333D02*
G03*
X14855341Y13739333I-10000J0D01*
G01*
X9759200Y10654000D02*
G03*
X9759200Y10654000I-10000J0D01*
G01*
X10700553Y12376353D02*
G03*
X10700553Y12376353I-10000J0D01*
G01*
X15174019Y14075980D02*
X15190781Y14092740D01*
X15181433Y13715378D02*
X15350000Y13883946D01*
Y13900000D01*
X15174019Y14075980D02*
X15350000Y13900000D01*
X13278500Y14525999D02*
X13621500D01*
X13278500Y13874001D02*
X13621500D01*
X12685000Y10877500D02*
Y10892500D01*
Y11267500D02*
Y11282500D01*
X12683800Y11524500D02*
X13043800D01*
X12515146Y12152303D02*
X12650000Y12287157D01*
Y12300000D01*
X12522624Y12427376D02*
X12650000Y12300000D01*
X12522624Y12427376D02*
Y12454193D01*
X12265000Y11830000D02*
X12435000D01*
X12265000Y11670000D02*
X12435000D01*
X11665000Y13930000D02*
X11835000D01*
X11665000Y13770000D02*
X11835000D01*
X11265000Y13530000D02*
X11435000D01*
X11265000Y13370000D02*
X11435000D01*
X11265000Y13680000D02*
X11435000D01*
X11265000Y13520000D02*
X11435000D01*
X12700000Y14323184D02*
X12827376Y14195808D01*
X12700000Y14323184D02*
Y14350000D01*
X12834854Y14484854D01*
Y14497697D01*
D72*
X12515146Y12152303D02*
G03*
X12522624Y12454193I134854J147697D01*
G01*
X12571161Y11293700D02*
G03*
X12571161Y11293700I-17961J0D01*
G01*
X12073200Y11266400D02*
G03*
X12073200Y11266400I-12700J0D01*
G01*
X12834854Y14497697D02*
G03*
X12827376Y14195808I-134854J-147697D01*
G01*
X13749088Y13487843D02*
G03*
X13734732Y12908289I-258887J-283543D01*
G01*
X11747787Y12714571D02*
G03*
X11733432Y12135016I-258887J-283543D01*
G01*
X15181433Y13715378D02*
G03*
X15190781Y14092740I168567J184621D01*
G01*
X10650913Y12862157D02*
G03*
X10665268Y13441713I258887J283543D01*
G01*
X14404800Y8479300D02*
Y9114300D01*
X13795200D02*
X14404800D01*
X13795200Y8479300D02*
Y9114300D01*
Y8479300D02*
X14404800D01*
X13490199Y13228957D02*
X13749088Y13487843D01*
X13490199Y13178900D02*
X13734732Y12934367D01*
X13490199Y13178900D02*
Y13204300D01*
X11488900Y12443356D02*
X11747787Y12702243D01*
X11488900Y12393300D02*
Y12418700D01*
Y12393300D02*
X11733432Y12148768D01*
X10838900Y11518700D02*
Y11543356D01*
X10900000Y13124600D02*
Y13150000D01*
X10665268Y13415633D02*
X10909800Y13171100D01*
X10900000Y13125343D02*
Y13150000D01*
X10650913Y12862157D02*
X10909800Y13121043D01*
X11719560Y11894771D02*
Y11767812D01*
X11744952Y11742420D01*
X11795735D01*
X11821127Y11767812D01*
Y11894771D01*
X11871911Y11742420D02*
X11922694D01*
X11897303D01*
Y11894771D01*
X11871911Y11869379D01*
X11998870D02*
X12024261Y11894771D01*
X12075045D01*
X12100437Y11869379D01*
Y11767812D01*
X12075045Y11742420D01*
X12024261D01*
X11998870Y11767812D01*
Y11869379D01*
D73*
X11590000Y8850000D02*
G03*
X11590000Y8850000I-12500J0D01*
G01*
X12470000Y8550000D02*
G03*
X12470000Y8550000I-12500J0D01*
G01*
X10880000Y9707500D02*
G03*
X10880000Y9707500I-12500J0D01*
G01*
X12187500Y11750000D02*
G03*
X12187500Y11750000I-12500J0D01*
G01*
X11587500Y13850000D02*
G03*
X11587500Y13850000I-12500J0D01*
G01*
X11187500Y13450000D02*
G03*
X11187500Y13450000I-12500J0D01*
G01*
Y13600000D02*
G03*
X11187500Y13600000I-12500J0D01*
G01*
D74*
X13460147Y8209347D02*
G03*
X13460147Y8209347I-10160J0D01*
G01*
X13008000Y9797600D02*
Y10097600D01*
X11992000Y9815100D02*
Y10115100D01*
X11858000Y10447600D02*
Y10747600D01*
X10842000Y10465100D02*
Y10765100D01*
X10808000Y11297600D02*
Y11597600D01*
X9792000Y11315100D02*
Y11615100D01*
X12822110Y13538313D02*
Y13572110D01*
X12077890Y13538313D02*
Y13572110D01*
Y12827890D02*
X12111686D01*
X12822110D02*
Y12861687D01*
X12788314Y13572110D02*
X12822110D01*
X12077890D02*
X12111686D01*
X12077890Y12827890D02*
Y12861687D01*
X12788314Y12827890D02*
X12822110D01*
X13648196Y8302540D02*
Y8457480D01*
X13401816Y8302540D02*
Y8457480D01*
D75*
X12683800Y10635500D02*
X13043800D01*
D76*
X13153854Y12511505D02*
X13309361Y12381019D01*
X13477892Y12239606D02*
X13552197Y12177256D01*
X13097746Y11635662D02*
X13552197Y12177256D01*
X12699404Y11969912D02*
X13097746Y11635662D01*
X12699404Y11969912D02*
X13153854Y12511505D01*
X10402900Y8569118D02*
X10558407Y8699604D01*
X10726937Y8841018D02*
X10801243Y8903368D01*
X11255694Y8361774D01*
X10857351Y8027525D02*
X11255694Y8361774D01*
X10402900Y8569118D02*
X10857351Y8027525D01*
X14321501Y13953981D02*
X14339194Y14156209D01*
X14358368Y14375371D02*
X14366821Y14472002D01*
X15071130Y14410384D01*
X15025810Y13892361D02*
X15071130Y14410384D01*
X14321501Y13953981D02*
X15025810Y13892361D01*
X9881886Y9747772D02*
X10072644Y9817203D01*
X10279376Y9892447D02*
X10370526Y9925623D01*
X10612334Y9261260D01*
X10123694Y9083410D02*
X10612334Y9261260D01*
X9881886Y9747772D02*
X10123694Y9083410D01*
X15023080Y13747404D02*
X15108873Y13563425D01*
X15201849Y13364037D02*
X15242844Y13276125D01*
X14602083Y12977335D02*
X15242844Y13276125D01*
X14382323Y13448615D02*
X14602083Y12977335D01*
X14382323Y13448615D02*
X15023080Y13747404D01*
X9817000Y10818500D02*
X10020000D01*
X10240000D02*
X10337000D01*
Y10111500D02*
Y10818500D01*
X9817000Y10111500D02*
X10337000D01*
X9817000D02*
Y10818500D01*
X10377370Y12424405D02*
X10532877Y12293920D01*
X10134534Y12628169D02*
X10208840Y12565819D01*
X10134534Y12628169D02*
X10588985Y13169763D01*
X10987328Y12835513D01*
X10532877Y12293920D02*
X10987328Y12835513D01*
D77*
X11655000Y8900000D02*
Y8917500D01*
X11685000D01*
X11965000Y8900000D02*
Y8917500D01*
X11935000D02*
X11965000D01*
X12535000Y8617500D02*
X12565000D01*
X12814999D02*
X12845000D01*
Y8600000D02*
Y8617500D01*
X12535000Y8600000D02*
Y8617500D01*
X10945000Y9775000D02*
X10975000D01*
X11225000D02*
X11255000D01*
Y9757500D02*
Y9775000D01*
X10945000Y9757500D02*
Y9775000D01*
D78*
X13090939Y10279625D02*
X13006300Y10194986D01*
Y10279625D02*
X13090939Y10194986D01*
X13048619Y10279625D02*
Y10194986D01*
X13006300Y10237305D02*
X13090939D01*
X11940939Y10929625D02*
X11856300Y10844986D01*
Y10929625D02*
X11940939Y10844986D01*
X11898619Y10929625D02*
Y10844986D01*
X11856300Y10887305D02*
X11940939D01*
X10890939Y11779625D02*
X10806300Y11694986D01*
Y11779625D02*
X10890939Y11694986D01*
X10848619Y11779625D02*
Y11694986D01*
X10806300Y11737305D02*
X10890939D01*
X13051099Y13796899D02*
X12966460Y13712260D01*
Y13796899D02*
X13051099Y13712260D01*
X13008778Y13796899D02*
Y13712260D01*
X12966460Y13754581D02*
X13051099D01*
D79*
X11487545Y7821033D02*
X11437561Y7734458D01*
X11454223Y7763316D01*
X11545261Y7787710D01*
X11476982Y7769415D01*
X11495277Y7701136D01*
X11524136Y7684474D02*
X11552994Y7667813D01*
X11538565Y7676144D01*
X11571888Y7733860D01*
X11557458Y7742191D01*
X11629604Y7700537D02*
X11625140Y7626160D01*
X11687320Y7667215D01*
X11682856Y7592837D02*
X11711714Y7576176D01*
X11697285Y7584507D01*
X11730608Y7642223D01*
X11716178Y7650553D01*
X11738340Y7522326D02*
X11788324Y7608900D01*
X11831611Y7583908D01*
X11837710Y7561149D01*
X11821048Y7532291D01*
X11798289Y7526192D01*
X11755002Y7551184D01*
X11889328Y7550586D02*
X11918186Y7533924D01*
X11924285Y7511165D01*
X11899292Y7467878D01*
X11856005Y7492869D01*
X11849907Y7515629D01*
X11872667Y7521728D01*
X11915954Y7496736D01*
X11928151Y7451216D02*
X11957009Y7434555D01*
X11942580Y7442886D01*
X11992564Y7529460D01*
X11978135Y7537791D01*
X12000296Y7409563D02*
X12029155Y7392902D01*
X12014726Y7401232D01*
X12064709Y7487807D01*
X12050280Y7496138D01*
X12105764Y7425626D02*
X12080772Y7382339D01*
X12086871Y7359579D01*
X12130158Y7334587D01*
X12163481Y7392303D01*
X12192339Y7375642D02*
X12159017Y7317926D01*
X12175678Y7346784D01*
X12198438Y7352883D01*
X12221197Y7358981D01*
X12235626Y7350650D01*
X12270583Y7311229D02*
X12328299Y7277907D01*
X12315504Y7189100D02*
X12329934Y7180769D01*
X12352693Y7186868D01*
X12394346Y7259013D01*
X12452063Y7225690D02*
X12427071Y7182403D01*
X12433170Y7159644D01*
X12476457Y7134652D01*
X12509779Y7192368D01*
X12538638Y7175707D02*
X12505315Y7117990D01*
X12521976Y7146849D01*
X12544736Y7152947D01*
X12567496Y7159045D01*
X12581925Y7150715D01*
X12647972Y7131821D02*
X12639641Y7117392D01*
X12625212Y7125723D01*
X12654070Y7109061D01*
X12639641Y7117392D01*
X12614650Y7074105D01*
X12620748Y7051345D01*
X12678464Y7018023D02*
X12707323Y7001361D01*
X12730082Y7007460D01*
X12746743Y7036318D01*
X12740645Y7059078D01*
X12711787Y7075739D01*
X12689027Y7069641D01*
X12672366Y7040782D01*
X12678464Y7018023D01*
X10435351Y13082265D02*
X10384298Y13125104D01*
X10395007Y13137868D01*
X10418480Y13139920D01*
X10456770Y13107791D01*
X10418480Y13139920D01*
X10416427Y13163393D01*
X10439899Y13165446D01*
X10478189Y13133318D01*
X10512372Y13148135D02*
X10555211Y13199188D01*
X10563867Y13235423D02*
X10585286Y13260951D01*
X10574577Y13248187D01*
X10497997Y13312447D01*
X10500050Y13288972D01*
X14015300Y14431961D02*
Y14498605D01*
X14031961D01*
X14048622Y14481944D01*
Y14431961D01*
Y14481944D01*
X14065285Y14498605D01*
X14081944Y14481944D01*
Y14431961D01*
X14115268Y14415300D02*
X14181914D01*
X14215234Y14515268D02*
X14231897Y14531929D01*
X14265219D01*
X14281882Y14515268D01*
Y14498605D01*
X14265219Y14481944D01*
X14248558D01*
X14265219D01*
X14281882Y14465285D01*
Y14448624D01*
X14265219Y14431961D01*
X14231897D01*
X14215234Y14448624D01*
X14203445Y12835268D02*
X14180652Y12897893D01*
X14196309Y12903590D01*
X14217664Y12893633D01*
X14234760Y12846664D01*
X14217664Y12893633D01*
X14227621Y12914989D01*
X14248976Y12905029D01*
X14266072Y12858061D01*
X14303084Y12853801D02*
X14365709Y12876595D01*
X14453951Y12926443D02*
X14391324Y12903648D01*
X14431155Y12989069D01*
X14425458Y13004726D01*
X14404103Y13014684D01*
X14372791Y13003287D01*
X14362833Y12981931D01*
X15315300Y8415268D02*
X15381944D01*
X15348622D01*
Y8315300D01*
X15431929D02*
X15465253D01*
X15481914Y8331961D01*
Y8365284D01*
X15465253Y8381945D01*
X15431929D01*
X15415268Y8365284D01*
Y8331961D01*
X15431929Y8315300D01*
X15515234D02*
X15548558D01*
X15531897D01*
Y8381945D01*
X15515234D01*
X15665187Y8415268D02*
Y8315300D01*
X15615202D01*
X15598541Y8331961D01*
Y8365284D01*
X15615202Y8381945D01*
X15665187D01*
X15748494Y8315300D02*
X15715170D01*
X15698511Y8331961D01*
Y8365284D01*
X15715170Y8381945D01*
X15748494D01*
X15765155Y8365284D01*
Y8348622D01*
X15698511D01*
X13215300Y7498590D02*
Y7431945D01*
X13248622Y7398622D01*
X13281944Y7431945D01*
Y7498590D01*
X13315268Y7398622D02*
X13348590D01*
X13331929D01*
Y7465268D01*
X13315268D01*
X13398573Y7398622D02*
X13448558D01*
X13465219Y7415284D01*
X13448558Y7431945D01*
X13415236D01*
X13398573Y7448606D01*
X13415236Y7465268D01*
X13465219D01*
X13498541Y7398622D02*
Y7498590D01*
Y7431945D02*
X13548526Y7465268D01*
X13498541Y7431945D02*
X13548526Y7398622D01*
X13615170Y7465268D02*
X13648494D01*
X13665155Y7448606D01*
Y7398622D01*
X13615170D01*
X13598511Y7415284D01*
X13615170Y7431945D01*
X13665155D01*
X13698479Y7365300D02*
X13715138D01*
X13731799Y7381961D01*
Y7465268D01*
X13815108D02*
X13848428D01*
X13865089Y7448606D01*
Y7398622D01*
X13815108D01*
X13798445Y7415284D01*
X13815108Y7431945D01*
X13865089D01*
X12565300Y7481961D02*
Y7581929D01*
X12598623Y7548606D01*
X12631945Y7581929D01*
Y7481961D01*
X12665268Y7465300D02*
X12731913D01*
X12765236Y7565268D02*
X12781897Y7581929D01*
X12815219D01*
X12831882Y7565268D01*
Y7548606D01*
X12815219Y7531945D01*
X12798558D01*
X12815219D01*
X12831882Y7515284D01*
Y7498623D01*
X12815219Y7481961D01*
X12781897D01*
X12765236Y7498623D01*
X11715300Y7781961D02*
Y7881929D01*
X11748622Y7848606D01*
X11781945Y7881929D01*
Y7781961D01*
X11815268Y7765300D02*
X11881913D01*
X11915236Y7781961D02*
X11948558D01*
X11931897D01*
Y7881929D01*
X11915236Y7865268D01*
X11034318Y8758824D02*
X11110898Y8823082D01*
X11106791Y8776136D01*
X11153737Y8772029D01*
X11077157Y8707771D01*
X11085813Y8671534D02*
X11128652Y8620481D01*
X11205673Y8554611D02*
X11162834Y8605664D01*
X11256726Y8597450D01*
X11269490Y8608160D01*
X11271543Y8631632D01*
X11250124Y8657159D01*
X11226651Y8659213D01*
X10866209Y7973661D02*
X10909047Y7922608D01*
X10955993Y7918501D01*
X10960100Y7965447D01*
X10917262Y8016500D01*
X11007046Y7961340D02*
X11032573Y7982759D01*
X11019810Y7972050D01*
X10976971Y8023103D01*
X10964208Y8012393D01*
X11070863Y8014888D02*
X11109153Y8047017D01*
X11111206Y8070490D01*
X11087733Y8072544D01*
X11062207Y8051124D01*
X11038734Y8053178D01*
X11040787Y8076651D01*
X11079077Y8108780D01*
X11147443Y8079146D02*
X11083185Y8155726D01*
X11126023Y8104673D02*
X11142894Y8162328D01*
X11126023Y8104673D02*
X11185733Y8111275D01*
X11193947Y8205167D02*
X11219474Y8226586D01*
X11242946Y8224533D01*
X11275075Y8186243D01*
X11236786Y8154114D01*
X11213313Y8156168D01*
X11215366Y8179640D01*
X11253656Y8211769D01*
X11322021Y8182136D02*
X11334785Y8192845D01*
X11336838Y8216318D01*
X11283290Y8280135D01*
X11347107Y8333683D02*
X11372633Y8355102D01*
X11396106Y8353049D01*
X11428235Y8314759D01*
X11389945Y8282630D01*
X11366472Y8284684D01*
X11368526Y8308157D01*
X11406816Y8340286D01*
X10435267Y10046554D02*
X10529206Y10080745D01*
X10546301Y10033775D01*
X10536343Y10012420D01*
X10505030Y10001023D01*
X10483675Y10010981D01*
X10466580Y10057951D01*
X10469458Y9952615D02*
X10480855Y9921302D01*
X10475156Y9936958D01*
X10569095Y9971149D01*
X10563397Y9986806D01*
X10482293Y9868634D02*
X10505087Y9806008D01*
X10633217Y9746260D02*
X10643176Y9767615D01*
X10631779Y9798928D01*
X10610424Y9808886D01*
X10594767Y9803187D01*
X10584809Y9781832D01*
X10596206Y9750519D01*
X10586248Y9729164D01*
X10570592Y9723466D01*
X10549237Y9733424D01*
X10537840Y9764737D01*
X10547798Y9786092D01*
X9631961Y10884700D02*
X9731929D01*
Y10834716D01*
X9715268Y10818055D01*
X9681945D01*
X9665284Y10834716D01*
Y10884700D01*
X9631961Y10784732D02*
Y10751410D01*
Y10768071D01*
X9731929D01*
Y10784732D01*
X9615300Y10701426D02*
Y10634781D01*
X9731929Y10601458D02*
X9631961D01*
X9681945D01*
Y10534813D01*
X9731929D01*
X9631961D01*
X11165840Y13856609D02*
Y13756641D01*
X11215824D01*
X11232485Y13773302D01*
Y13839946D01*
X11215824Y13856609D01*
X11165840D01*
X11265808Y13756641D02*
X11299130D01*
X11282469D01*
Y13856609D01*
X11265808Y13839946D01*
X11955780Y10524128D02*
Y10440821D01*
X11972441Y10424160D01*
X12005764D01*
X12022425Y10440821D01*
Y10524128D01*
X12122393D02*
X12089070Y10507466D01*
X12055748Y10474144D01*
Y10440821D01*
X12072409Y10424160D01*
X12105732D01*
X12122393Y10440821D01*
Y10457483D01*
X12105732Y10474144D01*
X12055748D01*
X10916694Y11199984D02*
Y11116678D01*
X10933355Y11100016D01*
X10966678D01*
X10983339Y11116678D01*
Y11199984D01*
X11083307D02*
X11016661D01*
Y11150000D01*
X11049984Y11166661D01*
X11066645D01*
X11083307Y11150000D01*
Y11116678D01*
X11066645Y11100016D01*
X11033323D01*
X11016661Y11116678D01*
X9756140Y12025268D02*
Y11941961D01*
X9772801Y11925300D01*
X9806124D01*
X9822785Y11941961D01*
Y12025268D01*
X9906092Y11925300D02*
Y12025268D01*
X9856108Y11975284D01*
X9922753D01*
X11716694Y14099985D02*
Y14000015D01*
X11766678D01*
X11783339Y14016678D01*
Y14083324D01*
X11766678Y14099985D01*
X11716694D01*
X11816661Y14083324D02*
X11833323Y14099985D01*
X11866645D01*
X11883306Y14083324D01*
Y14066661D01*
X11866645Y14050000D01*
X11849984D01*
X11866645D01*
X11883306Y14033339D01*
Y14016678D01*
X11866645Y14000015D01*
X11833323D01*
X11816661Y14016678D01*
X11366694Y13299985D02*
Y13200015D01*
X11416677D01*
X11433339Y13216676D01*
Y13283322D01*
X11416677Y13299985D01*
X11366694D01*
X11533306Y13200015D02*
X11466661D01*
X11533306Y13266661D01*
Y13283322D01*
X11516645Y13299985D01*
X11483323D01*
X11466661Y13283322D01*
%TF.MD5,0caba836e57b7d6c30240d796771176e*%
M02*
