%TF.GenerationSoftware,Altium Limited,Altium Designer,22.9.1 (49)*%
G04 Layer_Physical_Order=1*
G04 Layer_Color=255*
%FSLAX45Y45*%
%MOMM*%
%TF.SameCoordinates,A07B7C20-9008-4073-B72B-9E11D2315A39*%
%TF.FilePolarity,Positive*%
%TF.FileFunction,Copper,L1,Top,Signal*%
%TF.Part,Single*%
G01*
G75*
%TA.AperFunction,SMDPad,CuDef*%
%ADD10R,2.79000X0.74000*%
%ADD11R,0.80000X0.90000*%
%ADD12R,1.35000X0.40000*%
%ADD13R,1.90000X1.90000*%
%ADD14R,1.40000X1.60000*%
%ADD15R,0.70000X0.90000*%
%ADD16R,0.90000X0.70000*%
%ADD17R,0.53340X1.46170*%
%ADD18R,5.00000X1.30000*%
%ADD19R,0.80000X1.30000*%
%ADD20R,0.60000X1.10000*%
%ADD21R,1.00000X0.70000*%
%TA.AperFunction,SMDPad,SMDef*%
%ADD22R,1.67500X0.50000*%
%ADD23R,3.50000X0.50000*%
%ADD24R,3.50000X1.40000*%
%ADD25R,0.60000X0.25000*%
%ADD26R,0.25000X0.60000*%
%TA.AperFunction,SMDPad,CuDef*%
%ADD27R,1.40000X1.10000*%
%ADD28R,1.10000X1.40000*%
%ADD29R,0.90000X0.80000*%
%ADD30R,0.50080X1.35890*%
%ADD31R,1.35890X0.50080*%
%ADD32R,0.22860X0.71120*%
%ADD33R,5.30000X1.40000*%
%ADD34R,3.00000X3.00000*%
%ADD35R,0.80000X0.80000*%
%TA.AperFunction,Conductor*%
%ADD36C,0.30000*%
%ADD37C,0.40000*%
%ADD38C,0.60000*%
%ADD39C,0.26000*%
%ADD40C,0.15000*%
%ADD41C,0.25400*%
%ADD42C,0.50000*%
%ADD43C,0.20000*%
%ADD44C,0.33300*%
%ADD45C,0.70000*%
%ADD46C,1.00000*%
%ADD47C,1.30000*%
%ADD48C,2.00000*%
%TA.AperFunction,ComponentPad*%
G04:AMPARAMS|DCode=49|XSize=0.9mm|YSize=1.6mm|CornerRadius=0.45mm|HoleSize=0mm|Usage=FLASHONLY|Rotation=90.000|XOffset=0mm|YOffset=0mm|HoleType=Round|Shape=RoundedRectangle|*
%AMROUNDEDRECTD49*
21,1,0.90000,0.70000,0,0,90.0*
21,1,0.00000,1.60000,0,0,90.0*
1,1,0.90000,0.35000,0.00000*
1,1,0.90000,0.35000,0.00000*
1,1,0.90000,-0.35000,0.00000*
1,1,0.90000,-0.35000,0.00000*
%
%ADD49ROUNDEDRECTD49*%
%ADD50P,1.92050X4X275.0*%
%ADD51C,1.35800*%
%ADD52C,1.55000*%
%ADD53P,1.92050X4X355.0*%
%ADD54P,1.92050X4X400.0*%
%ADD55P,1.92050X4X335.0*%
%ADD56P,1.92050X4X250.0*%
%ADD57R,1.35800X1.35800*%
%ADD58C,4.00000*%
%TA.AperFunction,ViaPad*%
%ADD59C,0.45000*%
G36*
X11615000Y8647500D02*
X11797500D01*
Y8600000D01*
X11600000D01*
Y8400000D01*
X11800000D01*
Y7950000D01*
X11450000D01*
Y8650000D01*
X11615000D01*
Y8647500D01*
D02*
G37*
G36*
X11600000Y9207202D02*
X11599412Y9204246D01*
X11599412Y9204245D01*
Y8950244D01*
X11599168Y8950000D01*
X11170392D01*
Y9100000D01*
Y9250000D01*
X11170392Y9250000D01*
X11300000D01*
Y9450000D01*
X11295000D01*
Y9455000D01*
X11150000D01*
Y9500000D01*
X11600000D01*
Y9207202D01*
D02*
G37*
G36*
X11050000Y9455000D02*
X10905000D01*
Y9275000D01*
X10905400D01*
Y9250000D01*
X11150000Y9250000D01*
Y9100000D01*
Y8950000D01*
X10688206D01*
X10650000Y8988206D01*
Y9500000D01*
X11050000D01*
Y9455000D01*
D02*
G37*
G36*
X12495000Y8347500D02*
X12677500D01*
Y8300000D01*
X12500000D01*
Y8297500D01*
X12495000D01*
Y8117500D01*
X12500000D01*
Y8100000D01*
X12700000D01*
Y7650000D01*
X12350000D01*
Y8350000D01*
X12495000D01*
Y8347500D01*
D02*
G37*
G36*
X12150000Y7950000D02*
X11820392D01*
Y8400000D01*
X12000000D01*
Y8417500D01*
X12005000D01*
Y8597500D01*
X12000000D01*
Y8600000D01*
X11850000D01*
Y8647500D01*
X12005000D01*
Y8650000D01*
X12150000D01*
Y7950000D01*
D02*
G37*
G36*
X13100000Y7650000D02*
X12750000D01*
Y8100000D01*
X12950000D01*
Y8300000D01*
X12750000D01*
Y8347500D01*
X12885001D01*
Y8350000D01*
X13100000D01*
Y7650000D01*
D02*
G37*
G36*
X14350000Y9100000D02*
Y8900000D01*
X13800000D01*
Y8950000D01*
X13600000D01*
Y9000000D01*
X13200000D01*
Y9300000D01*
X14150000D01*
X14350000Y9100000D01*
D02*
G37*
G36*
X15650000Y8450000D02*
X14850000D01*
Y8650000D01*
X14750000D01*
Y8750000D01*
X15650000D01*
Y8450000D01*
D02*
G37*
G36*
X14400000Y8400000D02*
X13600000D01*
Y8500000D01*
X13650000D01*
Y8650000D01*
X13800000D01*
Y8700000D01*
X14400000D01*
Y8400000D01*
D02*
G37*
G36*
X14700000Y8050000D02*
X13700000D01*
Y8150000D01*
X13660001Y8190000D01*
Y8215000D01*
X13635001D01*
X13600000Y8250000D01*
X13600050Y8250050D01*
X13600005Y8341017D01*
X13608983Y8350000D01*
X13650000Y8350000D01*
X13679608Y8379608D01*
X14400000D01*
X14407803Y8381160D01*
X14414420Y8385581D01*
X14418840Y8392196D01*
X14420392Y8400000D01*
X14700000D01*
Y8050000D01*
D02*
G37*
G36*
X15100000Y8100000D02*
X15050000D01*
Y7900000D01*
Y7181928D01*
X15018459Y7167888D01*
X15000000Y7160719D01*
X14839069Y7098216D01*
X14656523Y7037295D01*
X14471248Y6985269D01*
X14283673Y6942257D01*
X14094237Y6908360D01*
X14029645Y6900000D01*
X13600000D01*
Y7400000D01*
X13650000D01*
Y7600000D01*
X13789999D01*
Y7750000D01*
X13650000D01*
Y7750000D01*
X13400000D01*
Y8050000D01*
X13500000D01*
X13503333Y8070000D01*
X13514999D01*
Y8140002D01*
X13540375Y8292245D01*
X13552933Y8294134D01*
X13568594Y8262809D01*
Y8244440D01*
X13577780D01*
X13675000Y8050000D01*
X13679608D01*
X13681160Y8042196D01*
X13685580Y8035581D01*
X13692197Y8031160D01*
X13700000Y8029608D01*
X14700000D01*
X14707803Y8031160D01*
X14714420Y8035581D01*
X14718840Y8042196D01*
X14720392Y8050000D01*
X14750000D01*
Y8300000D01*
X15100000D01*
Y8100000D01*
D02*
G37*
%LPC*%
G36*
X14421667Y7670000D02*
X14378333D01*
X14335828Y7661546D01*
X14295792Y7644961D01*
X14259758Y7620885D01*
X14229115Y7590242D01*
X14205038Y7554209D01*
X14188454Y7514172D01*
X14180000Y7471668D01*
Y7428332D01*
X14188454Y7385829D01*
X14205038Y7345791D01*
X14229115Y7309758D01*
X14259758Y7279115D01*
X14295792Y7255039D01*
X14335828Y7238455D01*
X14378333Y7230000D01*
X14421667D01*
X14464171Y7238455D01*
X14504208Y7255039D01*
X14540242Y7279115D01*
X14570885Y7309758D01*
X14594962Y7345791D01*
X14611545Y7385829D01*
X14620000Y7428332D01*
Y7471668D01*
X14611545Y7514172D01*
X14594962Y7554209D01*
X14570885Y7590242D01*
X14540242Y7620885D01*
X14504208Y7644961D01*
X14464171Y7661546D01*
X14421667Y7670000D01*
D02*
G37*
%LPD*%
D10*
X13246500Y14073000D02*
D03*
X13653500D02*
D03*
X13246500Y13946001D02*
D03*
X13653500D02*
D03*
X13246500Y14453999D02*
D03*
X13653500D02*
D03*
X13246500Y14327000D02*
D03*
X13653500D02*
D03*
X13246500Y14200000D02*
D03*
X13653200D02*
D03*
D11*
X10790000Y9570000D02*
D03*
X10650000D02*
D03*
X11570000Y11400000D02*
D03*
X11430000D02*
D03*
X13180000Y8750000D02*
D03*
X13320000D02*
D03*
X12620000Y10750000D02*
D03*
X12480000D02*
D03*
X13580000Y8600000D02*
D03*
X13720000D02*
D03*
X13600000Y8150000D02*
D03*
X13739999D02*
D03*
X11870000Y13000000D02*
D03*
X11730000D02*
D03*
X11730000Y12850000D02*
D03*
X11870000D02*
D03*
X10720000Y11000000D02*
D03*
X10580000D02*
D03*
X12630000Y8050000D02*
D03*
X12770000D02*
D03*
X11080000Y9150000D02*
D03*
X11220000D02*
D03*
X11730000Y8350000D02*
D03*
X11870000D02*
D03*
D12*
X12732500Y10950000D02*
D03*
Y11015000D02*
D03*
Y11080000D02*
D03*
Y11145000D02*
D03*
Y11210000D02*
D03*
D13*
X13000000Y10960000D02*
D03*
Y11200000D02*
D03*
D14*
X12755000Y10760000D02*
D03*
Y11400000D02*
D03*
D15*
X12425000Y11600000D02*
D03*
X12275000D02*
D03*
X13325000Y8470000D02*
D03*
X13175000D02*
D03*
X13175000Y8600000D02*
D03*
X13325000D02*
D03*
X12125000Y13850000D02*
D03*
X11975000D02*
D03*
X11725000Y13450000D02*
D03*
X11575000D02*
D03*
X11725000Y13600000D02*
D03*
X11575000D02*
D03*
X11495000Y8780000D02*
D03*
X11345000D02*
D03*
D16*
X13300000Y8300000D02*
D03*
Y8150000D02*
D03*
X13450000Y7975000D02*
D03*
Y8125000D02*
D03*
X12750000Y8775000D02*
D03*
Y8925000D02*
D03*
X11150000Y9875000D02*
D03*
Y10025000D02*
D03*
X11900000Y9025000D02*
D03*
Y9175000D02*
D03*
X12600000Y8775000D02*
D03*
Y8925000D02*
D03*
X11000000Y9875000D02*
D03*
Y10025000D02*
D03*
X11750000Y9025000D02*
D03*
Y9175000D02*
D03*
X12450000Y8650000D02*
D03*
Y8800000D02*
D03*
X10850000Y9800000D02*
D03*
Y9950000D02*
D03*
D17*
X12944501Y9677525D02*
D03*
X12817500D02*
D03*
X12690500D02*
D03*
X12563500D02*
D03*
X12436500D02*
D03*
X12309500D02*
D03*
X12182500D02*
D03*
X12055500D02*
D03*
Y10222475D02*
D03*
X12182500D02*
D03*
X12309500D02*
D03*
X12436500D02*
D03*
X12563500D02*
D03*
X12690500D02*
D03*
X12817500D02*
D03*
X12944501D02*
D03*
X11794500Y10327525D02*
D03*
X11667500D02*
D03*
X11540500D02*
D03*
X11413500D02*
D03*
X11286500D02*
D03*
X11159500D02*
D03*
X11032500D02*
D03*
X10905500D02*
D03*
Y10872475D02*
D03*
X11032500D02*
D03*
X11159500D02*
D03*
X11286500D02*
D03*
X11413500D02*
D03*
X11540500D02*
D03*
X11667500D02*
D03*
X11794500D02*
D03*
X10744500Y11177525D02*
D03*
X10617500D02*
D03*
X10490500D02*
D03*
X10363500D02*
D03*
X10236500D02*
D03*
X10109500D02*
D03*
X9982500D02*
D03*
X9855500D02*
D03*
Y11722475D02*
D03*
X9982500D02*
D03*
X10109500D02*
D03*
X10236500D02*
D03*
X10363500D02*
D03*
X10490500D02*
D03*
X10617500D02*
D03*
X10744500D02*
D03*
D18*
X15000000Y8700000D02*
D03*
D19*
X15190500Y8204700D02*
D03*
X15063499D02*
D03*
X14936501D02*
D03*
X14809500D02*
D03*
D20*
X12553200Y10900000D02*
D03*
X12350000D02*
D03*
Y11154000D02*
D03*
X12553200D02*
D03*
X12451600D02*
D03*
D21*
X11750000Y11590000D02*
D03*
Y11400000D02*
D03*
X11990000Y11590000D02*
D03*
Y11495000D02*
D03*
Y11400000D02*
D03*
D22*
X11718750Y8622500D02*
D03*
X11901250D02*
D03*
X12781250Y8322500D02*
D03*
X12598750D02*
D03*
X11191250Y9480000D02*
D03*
X11008750D02*
D03*
D23*
X11810000Y8692500D02*
D03*
X12690000Y8392500D02*
D03*
X11100000Y9550000D02*
D03*
D24*
X11810000Y8507500D02*
D03*
X12690000Y8207500D02*
D03*
X11100000Y9365000D02*
D03*
D25*
X11670000Y8850000D02*
D03*
Y8800000D02*
D03*
Y8750000D02*
D03*
X11950000Y8800000D02*
D03*
Y8750000D02*
D03*
Y8850000D02*
D03*
X12830000Y8550000D02*
D03*
Y8500000D02*
D03*
Y8450000D02*
D03*
X12550000D02*
D03*
Y8500000D02*
D03*
Y8550000D02*
D03*
X11240000Y9707500D02*
D03*
Y9657500D02*
D03*
Y9607500D02*
D03*
X10960000D02*
D03*
Y9657500D02*
D03*
Y9707500D02*
D03*
D26*
X11735000Y8902500D02*
D03*
X11835000D02*
D03*
X11785000D02*
D03*
X11885000D02*
D03*
X12615000Y8602500D02*
D03*
X12665000D02*
D03*
X12715000D02*
D03*
X12765000D02*
D03*
X11025000Y9760000D02*
D03*
X11075000D02*
D03*
X11125000D02*
D03*
X11175000D02*
D03*
D27*
X13700000Y7675000D02*
D03*
Y7825000D02*
D03*
X13899998Y8125000D02*
D03*
Y7975000D02*
D03*
X14099998Y8125000D02*
D03*
Y7975000D02*
D03*
X14299998Y8125000D02*
D03*
Y7975000D02*
D03*
X14499998Y8125000D02*
D03*
Y7975000D02*
D03*
X13300000Y9375000D02*
D03*
Y9225000D02*
D03*
X13500000Y9375000D02*
D03*
Y9225000D02*
D03*
X13700000Y9375000D02*
D03*
Y9225000D02*
D03*
X13500000Y9075000D02*
D03*
Y8925000D02*
D03*
X13300000D02*
D03*
Y9075000D02*
D03*
D28*
X15125000Y8000000D02*
D03*
X14975000D02*
D03*
D29*
X13450000Y8730000D02*
D03*
Y8590000D02*
D03*
X12150000Y11400000D02*
D03*
Y11260000D02*
D03*
X13700000Y9020000D02*
D03*
Y8880000D02*
D03*
X12800000Y13780000D02*
D03*
Y13920000D02*
D03*
X12500000Y13920000D02*
D03*
Y13780000D02*
D03*
X12150000Y12480000D02*
D03*
Y12620000D02*
D03*
X12650000Y13920000D02*
D03*
Y13780000D02*
D03*
X12950000Y9520000D02*
D03*
Y9380000D02*
D03*
Y10520000D02*
D03*
Y10380000D02*
D03*
X11800000Y10170000D02*
D03*
Y10030000D02*
D03*
Y11220000D02*
D03*
Y11080000D02*
D03*
X10750000Y12070000D02*
D03*
Y11930000D02*
D03*
X13050000Y8570000D02*
D03*
Y8430000D02*
D03*
X12150000Y8850000D02*
D03*
Y8710000D02*
D03*
D30*
X12730000Y13627354D02*
D03*
X12650000D02*
D03*
X12570000D02*
D03*
X12490000D02*
D03*
X12410000D02*
D03*
X12330000D02*
D03*
X12250000D02*
D03*
X12170000D02*
D03*
Y12772645D02*
D03*
X12250000D02*
D03*
X12330000D02*
D03*
X12410000D02*
D03*
X12490000D02*
D03*
X12570000D02*
D03*
X12650000D02*
D03*
X12730000D02*
D03*
D31*
X12022645Y13480000D02*
D03*
Y13400000D02*
D03*
Y13320000D02*
D03*
Y13239999D02*
D03*
Y13160001D02*
D03*
Y13080000D02*
D03*
Y13000000D02*
D03*
Y12920000D02*
D03*
X12877354D02*
D03*
Y13000000D02*
D03*
Y13080000D02*
D03*
Y13160001D02*
D03*
Y13239999D02*
D03*
Y13320000D02*
D03*
Y13400000D02*
D03*
Y13480000D02*
D03*
D32*
X13449986Y8300000D02*
D03*
X13500000D02*
D03*
X13550014D02*
D03*
X13600024D02*
D03*
Y8460020D02*
D03*
X13550014D02*
D03*
X13500000D02*
D03*
X13449986D02*
D03*
D33*
X14100000Y8606300D02*
D03*
Y9000000D02*
D03*
D34*
X13800000Y7100000D02*
D03*
X13350000D02*
D03*
X15500000Y8100000D02*
D03*
Y8600000D02*
D03*
X12500000Y7800000D02*
D03*
X10837300Y9100000D02*
D03*
X11600000Y8100000D02*
D03*
X12900000Y7800000D02*
D03*
X11450000Y9100000D02*
D03*
X12000000Y8100000D02*
D03*
D35*
X12425000Y11750000D02*
D03*
X12275000D02*
D03*
X11825000Y13850000D02*
D03*
X11675000D02*
D03*
X11425000Y13450000D02*
D03*
X11275000D02*
D03*
X11425000Y13600000D02*
D03*
X11275000D02*
D03*
D36*
X12565000Y10940000D02*
X12732500D01*
X12550000Y10900000D02*
Y10925000D01*
Y10900000D02*
X12565000Y10885000D01*
X12620000Y10750000D02*
X12641896Y10728104D01*
X13300000Y8300000D02*
X13449986D01*
X13320000Y8750000D02*
X13322501Y8747500D01*
Y8602500D02*
X13325000Y8600000D01*
Y8470001D02*
X13325000Y8470000D01*
X13334979Y8460020D01*
X13449986D01*
X11775000Y10145000D02*
X11800000Y10170000D01*
X11650000Y10050000D02*
X11650000D01*
X11745000Y10145000D01*
X11775000D01*
X11794500Y10872475D02*
X11800000Y10877975D01*
X12750000Y8400000D02*
X12845000D01*
X12850000Y8395000D01*
X11900000Y8700000D02*
X11902870Y8697130D01*
X13045000Y8425000D02*
X13050000Y8420000D01*
X13455000Y8590000D02*
X13500000Y8545000D01*
X13450000Y8590000D02*
X13455000D01*
X13500000Y8460020D02*
Y8545000D01*
X12732500Y10940000D02*
X12737500Y10945000D01*
X12400000Y13875000D02*
Y14028065D01*
X12620000Y10750000D02*
Y10755000D01*
X12550000Y10925000D02*
X12565000Y10940000D01*
X11191250Y9480000D02*
X11201250Y9470000D01*
X11200000Y9475400D02*
X11204600Y9480000D01*
X10720000Y11000000D02*
X10732830Y11012830D01*
Y11165855D02*
X10744500Y11177525D01*
X10732830Y11012830D02*
Y11165855D01*
X11794500Y10175500D02*
Y10327525D01*
X12944501Y9525500D02*
Y9677525D01*
D37*
X11970000Y11595000D02*
X12260000D01*
X11990000Y11400000D02*
X12012325D01*
X11970000D02*
X11990000D01*
X11903431D02*
X11970000D01*
X12275000Y11600000D02*
X12347500D01*
X12265000Y11600001D02*
Y11610000D01*
X12275000Y11600000D01*
X12260000Y11595000D02*
X12265000Y11600001D01*
X10800000Y9565000D02*
Y9570000D01*
Y9565000D02*
X10810000Y9555000D01*
X10800000Y9560000D02*
X10800000Y9560000D01*
X10810000Y9555000D02*
X10995000D01*
X10790000Y9560000D02*
X10800000D01*
X10995000Y9555000D02*
X11000000Y9550000D01*
X12132300Y12918912D02*
Y12970688D01*
Y12918912D02*
X12170000Y12881210D01*
X12396661Y13235049D02*
X12465639D01*
X12170000Y12772645D02*
Y12881210D01*
X12465639Y13235049D02*
X12730000Y13499409D01*
X12132300Y12970688D02*
X12396661Y13235049D01*
X11880000Y11423432D02*
Y11551569D01*
Y11423432D02*
X11903431Y11400000D01*
X13322501Y8602500D02*
Y8747500D01*
X13325000Y8470001D02*
Y8590000D01*
X12725761Y13631593D02*
Y13709239D01*
Y13631593D02*
X12730000Y13627354D01*
X12655000Y13780000D02*
X12725761Y13709239D01*
X11880000Y11551569D02*
X11908431Y11580000D01*
X11800000Y10877975D02*
Y11080000D01*
X11421799Y11421507D02*
X11427300D01*
X11418306Y11425000D02*
X11421799Y11421507D01*
X11418306Y11425000D02*
Y11480341D01*
X13025000Y8395000D02*
X13050000Y8420000D01*
X12850000Y8395000D02*
X13025000D01*
X11902870Y8697130D02*
X12097130D01*
X12730000Y13499409D02*
Y13627354D01*
X12400000Y13875000D02*
X12495000Y13780000D01*
X10747250Y11750000D02*
Y11927250D01*
X12944501Y10222475D02*
Y10380000D01*
X12400000Y14028065D02*
X12825935Y14453999D01*
X9982500Y11131110D02*
Y11147770D01*
X12425000Y11600000D02*
Y11750000D01*
X10100000Y11000000D02*
Y11013610D01*
X11870000Y13000000D02*
X12022645D01*
X12022645Y13000000D01*
X12150000Y12620000D02*
X12164960Y12634960D01*
Y12767605D01*
X12170000Y12772645D01*
X11955000Y11580000D02*
X11970000Y11595000D01*
X11908431Y11580000D02*
X11955000D01*
X12825935Y14453999D02*
X13246500D01*
D38*
X11970000Y11405000D02*
X12042990D01*
X11970000Y11400000D02*
Y11405000D01*
Y11097218D02*
Y11400000D01*
X10972500Y10122500D02*
X11000000Y10150000D01*
X10720000Y10280000D02*
X10877500Y10122500D01*
X10720000Y10280000D02*
Y10903835D01*
X10877500Y10122500D02*
X10972500D01*
X11644445Y9918115D02*
Y10044444D01*
X11650000Y10050000D01*
X11644445Y9918115D02*
X12062559Y9500000D01*
X12150000D02*
X12200000Y9550000D01*
X12062559Y9500000D02*
X12150000D01*
X12939999Y9510000D02*
X12950000Y9520000D01*
X12859999Y9510000D02*
X12939999D01*
X12850000Y9500000D02*
X12859999Y9510000D01*
X13229289Y9250000D02*
X13275000D01*
X13300000Y9225000D01*
X13112500Y9366789D02*
X13229289Y9250000D01*
X13112500Y9366789D02*
Y9373211D01*
X13005000Y9470000D02*
X13015710D01*
X12955000Y9520000D02*
X13005000Y9470000D01*
X13015710D02*
X13112500Y9373211D01*
X10608082Y10791917D02*
X10720000Y10903835D01*
Y11000000D01*
X12042990Y11405000D02*
X12145000D01*
X12042990Y11405000D02*
X12042990Y11405000D01*
X10071700Y10236699D02*
Y10532300D01*
X11970000Y11097218D02*
X12417218Y10650000D01*
X9982500Y11131110D02*
X10100000Y11013610D01*
D39*
X12233400Y11252454D02*
X12507000Y11526054D01*
X12279400Y11233401D02*
X12553000Y11507001D01*
X12233400Y11059177D02*
Y11252454D01*
X12553000Y11507001D02*
Y12341522D01*
X12279400Y11165231D02*
Y11233401D01*
X12294631Y11150000D02*
X12348400D01*
X12233400Y11059177D02*
X12331400Y10961177D01*
X12279400Y11165231D02*
X12294631Y11150000D01*
X12557960Y12707429D02*
Y12760605D01*
X12507000Y11526054D02*
Y12322469D01*
X12331400Y10913000D02*
Y10961177D01*
Y10913000D02*
X12348400Y10896000D01*
X12507000Y12322469D02*
X12507000Y12322469D01*
X12553000Y12341523D02*
Y12702469D01*
Y12341523D02*
X12553000Y12341522D01*
X12507000Y12322469D02*
Y12702469D01*
X12348400Y10896000D02*
X12365400Y10913000D01*
X12557960Y12760605D02*
X12570000Y12772645D01*
X12553000Y12702469D02*
X12557960Y12707429D01*
X12348400Y11150000D02*
X12365400Y11133000D01*
Y11084600D02*
Y11133000D01*
X12502040Y12707429D02*
X12507000Y12702469D01*
X12502040Y12707429D02*
Y12760605D01*
X12490000Y12772645D02*
X12502040Y12760605D01*
X12725500Y11022000D02*
X12732500Y11015000D01*
X12620422Y11024500D02*
X12662769D01*
X12615922Y11020000D02*
X12620422Y11024500D01*
X12365400Y10985400D02*
X12400000Y11020000D01*
X12615922D01*
X12365400Y10913000D02*
Y10985400D01*
X12665269Y11022000D02*
X12725500D01*
Y11073000D02*
X12732500Y11080000D01*
X12665269Y11073000D02*
X12725500D01*
X12601369Y11070500D02*
X12662769D01*
Y11024500D02*
X12665269Y11022000D01*
X12596869Y11066000D02*
X12601369Y11070500D01*
X12365400Y11084600D02*
X12384000Y11066000D01*
X12662769Y11070500D02*
X12665269Y11073000D01*
X12384000Y11066000D02*
X12596869D01*
D40*
X12570000Y12729740D02*
Y12772645D01*
D41*
X12300000Y11850000D02*
X12305200D01*
X12275000Y11825000D02*
X12300000Y11850000D01*
X12294800Y12050000D02*
Y12444800D01*
X12330000Y12480000D01*
X12275000Y11750000D02*
Y11825000D01*
X12750000Y10750000D02*
X12755000D01*
X12750000Y10750000D02*
X12750000Y10750000D01*
X12750000Y11395200D02*
Y11400000D01*
Y11395200D02*
X12755100Y11390100D01*
X10490500Y9559500D02*
X10550000Y9500000D01*
Y9041056D02*
Y9500000D01*
X10490500Y9559500D02*
Y11177525D01*
X12570000Y13520000D02*
Y13627354D01*
X12453400Y11283356D02*
X12455200Y11285156D01*
Y10763410D02*
X12466590D01*
X12453400Y11155800D02*
Y11283356D01*
X12451600Y11154000D02*
X12453400Y11155800D01*
X12466590Y10763410D02*
X12480000Y10750000D01*
X12433550Y10383185D02*
Y10396250D01*
X12486738Y10329998D02*
X12502392D01*
X12429800Y10400000D02*
X12433550Y10396250D01*
X12496010Y10398790D02*
X12560600D01*
X12494800Y10400000D02*
X12496010Y10398790D01*
X12433550Y10383185D02*
X12486738Y10329998D01*
X12502392D02*
X12563500Y10268890D01*
X12560600Y10398790D02*
X12690500Y10268890D01*
X12563500Y10222475D02*
Y10268890D01*
X12619350Y11265649D02*
Y11296250D01*
Y11265649D02*
X12685000Y11200000D01*
X12615600Y11300000D02*
X12619350Y11296250D01*
X12685000Y11200000D02*
X12732500D01*
X12330000Y12480000D02*
Y12772645D01*
X12225104Y12550000D02*
Y12555304D01*
X12198550Y12948550D02*
X12253669D01*
X12250000Y12580200D02*
Y12772645D01*
X12194800Y12944800D02*
X12198550Y12948550D01*
X12253669D02*
X12545119Y13239999D01*
X12225104Y12555304D02*
X12250000Y12580200D01*
X12308950Y12896249D02*
X12345625D01*
X12305200Y12900000D02*
X12308950Y12896249D01*
X12144800Y11259799D02*
Y11274799D01*
X12094800Y11213239D02*
X12098239D01*
X12144800Y11259799D01*
X12058409Y12441590D02*
X12063713D01*
X12074823Y12452700D01*
X12122700D02*
X12150000Y12480000D01*
X12074823Y12452700D02*
X12122700D01*
X10550000Y9041056D02*
X10768621Y8822435D01*
Y8712686D02*
Y8822435D01*
Y8712686D02*
X10886732Y8594575D01*
X10905984Y12384049D02*
X11761935Y13239999D01*
X12545119D02*
X12877354D01*
X11427300Y11421507D02*
X11430000Y11418807D01*
Y11400000D02*
Y11418807D01*
X12602500Y8927500D02*
Y9000000D01*
X12600000Y8925000D02*
X12602500Y8927500D01*
X12705304Y13300000D02*
X12725304Y13320000D01*
X12700000Y13300000D02*
X12705304D01*
X12725304Y13320000D02*
X12877354D01*
X12648050Y13505849D02*
Y13625404D01*
X12646101Y13503899D02*
X12648050Y13505849D01*
Y13625404D02*
X12650000Y13627354D01*
X13100000Y13650000D02*
X13600000D01*
X12976067Y13480000D02*
X12996066Y13500000D01*
X13000000D01*
X12877354Y13480000D02*
X12976067D01*
X12750000Y13000000D02*
X12877354D01*
X11800000Y11220000D02*
X11819600Y11239599D01*
X11889599D01*
X11546250Y10885725D02*
X11550000Y10881975D01*
X11650000Y10994696D02*
Y11000000D01*
X11667500Y10872475D02*
Y10977196D01*
X11546250Y10885725D02*
Y10996250D01*
X11550000Y11000000D01*
X11650000Y10994696D02*
X11667500Y10977196D01*
X12253750Y10324640D02*
X12309500Y10268890D01*
Y10222475D02*
Y10268890D01*
X12850000Y10500000D02*
X12930000D01*
X12950000Y10520000D01*
X12817500Y10222475D02*
Y10312500D01*
X11150000Y13450000D02*
X11275000D01*
X11050000Y11150000D02*
Y11250000D01*
Y11150000D02*
X11159500Y11040500D01*
Y10872475D02*
Y11040500D01*
X11050000Y11900000D02*
X11750000Y12600000D01*
X11050000Y11750000D02*
Y11900000D01*
X11750000Y12600000D02*
X12000000D01*
X12022645Y13080000D02*
X12034087Y13068558D01*
X12101832D01*
X12105582Y13064809D01*
X12022645Y13160001D02*
X12140000D01*
X12500000Y13920000D02*
Y14000000D01*
Y13920000D02*
X12500000Y13920000D01*
X10345246Y10530603D02*
X10363500Y10548857D01*
X10345246Y9606214D02*
Y10530603D01*
X12690500Y10222475D02*
Y10268890D01*
X12422530Y10282860D02*
X12436500Y10268890D01*
X12417140Y10282860D02*
X12422530D01*
X12350000Y10350000D02*
X12417140Y10282860D01*
X12436500Y10222475D02*
Y10268890D01*
X12350000Y10350000D02*
Y10500000D01*
X12800000Y13920000D02*
Y14050000D01*
X12800000Y13920000D02*
X12805000D01*
X12832300Y13947301D01*
X12650000Y13920000D02*
Y14050000D01*
Y13920000D02*
X12650000Y13920000D01*
X12655000D01*
X12800000Y13920000D02*
X12800000Y13920000D01*
X11761935Y13239999D02*
X12022645D01*
X11765000Y13400000D02*
X12022645D01*
X11835000Y13480000D02*
X12022645D01*
X12050000Y13600000D02*
X12055304D01*
X12082659Y13627354D01*
X11825000Y13850000D02*
X11975000D01*
X11730000Y13000000D02*
X11730000Y13000000D01*
X11595096Y12849490D02*
X11729490D01*
X11730000Y12850000D01*
X11730000Y12995000D02*
Y13000000D01*
X11600000Y13000000D02*
X11730000D01*
X11725000Y13439999D02*
Y13450000D01*
Y13589999D02*
Y13600000D01*
Y13439999D02*
X11765000Y13400000D01*
X11725000Y13589999D02*
X11835000Y13480000D01*
X11550000Y13850000D02*
X11675000D01*
X11670000Y13320000D02*
X12022645D01*
X12125000Y13850000D02*
X12200000D01*
X12490000Y13627354D02*
Y13770000D01*
X12500000Y13780000D01*
X12495000D02*
X12500000D01*
X12345625Y12896249D02*
X12397660Y12844215D01*
Y12784985D02*
Y12844215D01*
X12250000Y13450000D02*
X12250000Y13450000D01*
X12330000Y13425304D02*
Y13627354D01*
X12400000Y13350000D02*
Y13355304D01*
X12410000Y13365305D01*
X12350000Y13400000D02*
Y13405304D01*
X12330000Y13425304D02*
X12350000Y13405304D01*
X12410000Y13365305D02*
Y13627354D01*
X12082659D02*
X12170000D01*
X11975000Y13850000D02*
X11975000Y13850000D01*
X12250000Y13450000D02*
Y13627354D01*
X12125000Y13850000D02*
X12125000Y13850000D01*
X12397660Y12784985D02*
X12410000Y12772645D01*
X13653500Y14073000D02*
X13823000D01*
X13850000Y14100000D01*
X13653200Y14200000D02*
X13850000D01*
X13653500Y14453999D02*
X13655499Y14452000D01*
X13848000D01*
X13850000Y14450000D01*
X11150000Y13600000D02*
X11275000D01*
X11550000Y12700000D02*
X11950000D01*
X10664032Y11989032D02*
X10745000Y12070000D01*
X10664032Y11985968D02*
Y11989032D01*
X10976615Y12300000D02*
X11488308Y12811691D01*
X11425000Y13450000D02*
X11425000Y13450000D01*
X11575000D01*
X11425000Y13600000D02*
X11425000Y13600000D01*
X11575000D01*
X10490500Y11722475D02*
Y11890500D01*
X10850000Y12500000D02*
X11670000Y13320000D01*
X10490500Y11890500D02*
X10550000Y11950000D01*
X10236500Y11722475D02*
Y11886500D01*
X10250000Y11900000D01*
X10363500Y11722475D02*
Y11886500D01*
X10617500Y11676060D02*
Y11827196D01*
X10600000Y11844696D02*
Y11850000D01*
Y11844696D02*
X10617500Y11827196D01*
X9850000Y11850000D02*
X9852750Y11847250D01*
X9855500Y11676060D02*
Y11722475D01*
X9852750Y11752750D02*
X9855500Y11750000D01*
X9852750Y11752750D02*
Y11847250D01*
X10745000Y12070000D02*
X10750000D01*
X10900000Y11000000D02*
X10902750Y10997250D01*
Y10875225D02*
X10905500Y10872475D01*
X10902750Y10875225D02*
Y10997250D01*
X11286500Y10872475D02*
Y11036500D01*
X11413500Y10872475D02*
Y11036500D01*
X11540500Y10872475D02*
X11550000Y10881975D01*
X12052750Y10178810D02*
Y10347250D01*
X12050000Y10350000D02*
X12052750Y10347250D01*
X10905500Y10826060D02*
Y10872475D01*
X10363500Y10548857D02*
Y11177525D01*
X10200000Y10629874D02*
X10241601Y10671475D01*
X10236500Y10919983D02*
Y11177525D01*
Y10919983D02*
X10241601Y10914882D01*
Y10671475D02*
Y10914882D01*
X10200000Y10600000D02*
Y10629874D01*
D42*
X11250000Y8800000D02*
X11335000D01*
X13385001Y13780000D02*
X13550999Y13946001D01*
X12800000Y13780000D02*
X13385001D01*
X12800000Y13780000D02*
X12800000Y13780000D01*
X12650000Y12772645D02*
Y12966200D01*
X12642300Y12973900D02*
X12650000Y12966200D01*
X11950000Y12428640D02*
X12126360Y12605000D01*
X11950000Y12003518D02*
Y12428640D01*
X11570000Y11623518D02*
X11950000Y12003518D01*
X12450000Y8800000D02*
Y8875000D01*
X12815829Y9675855D02*
X12817500Y9677525D01*
X11000000Y10150000D02*
X11032500Y10182500D01*
Y10327525D01*
X12655000Y13780000D02*
X12800000D01*
X15255656Y13402635D02*
Y13704066D01*
X15126492Y13273471D02*
X15255656Y13402635D01*
X14922446Y13273471D02*
X15126492D01*
X14645621Y14314102D02*
X15255656Y13704066D01*
X14622403Y14314102D02*
X14645621D01*
X13875887Y13946001D02*
X14316042Y14386156D01*
X14550351D02*
X14622403Y14314102D01*
X13653500Y13946001D02*
X13875887D01*
X14316042Y14386156D02*
X14550351D01*
X13550999Y13946001D02*
X13653500D01*
X10443844Y12765980D02*
X10840000Y12369824D01*
Y12011360D02*
Y12369824D01*
X10423790Y12765980D02*
X10443844D01*
X10808996Y11980355D02*
X10840000Y12011360D01*
X10805356Y11980355D02*
X10808996D01*
X10755000Y11930000D02*
X10805356Y11980355D01*
X10750000Y11930000D02*
X10755000D01*
X11570000Y11400000D02*
Y11623518D01*
Y11400000D02*
X11572500Y11402500D01*
X11727500D01*
X11730000Y11405000D01*
X11601360Y11080000D02*
X11795000D01*
X11570000Y11301360D02*
X11741005Y11130355D01*
X11570000Y11301360D02*
Y11400000D01*
X11795000Y11080000D02*
X11800000D01*
X11744645Y11130355D02*
X11795000Y11080000D01*
X11741005Y11130355D02*
X11744645D01*
X10770001Y11911359D02*
X11601360Y11080000D01*
X10850000Y9950000D02*
Y10025000D01*
X10850000Y9950000D02*
X10850000Y9950000D01*
X12450000Y8800000D02*
X12450000Y8800000D01*
X12137130Y8697130D02*
X12150000Y8710000D01*
X12097130Y8697130D02*
X12137130D01*
X13545000Y8745000D02*
X13550000Y8750000D01*
X13450000Y8730000D02*
X13464999Y8745000D01*
X13545000D01*
X13177499Y8602500D02*
Y8747500D01*
X13175000Y8600000D02*
X13177499Y8602500D01*
X13272646Y12772645D02*
X13300000Y12800000D01*
X12730000Y12772645D02*
X13272646D01*
X12877354Y13400000D02*
X13488391D01*
X13533391Y13355000D01*
X12645459Y10500000D02*
X12765460Y10380000D01*
X12944501D01*
X12565000Y10810000D02*
X12620000Y10755000D01*
X12565000Y10810000D02*
Y10885000D01*
X11008750Y9480000D02*
Y9480000D01*
X11901250Y8622500D02*
Y8622500D01*
X11718750Y8622500D02*
Y8622500D01*
X12454080Y10500000D02*
X12645459D01*
X12254080Y10700000D02*
X12454080Y10500000D01*
X12180000Y10700000D02*
X12254080D01*
X11820000Y11060000D02*
X12180000Y10700000D01*
X13600000Y8145000D02*
Y8150000D01*
X11935000Y12830000D02*
X12145000Y12620000D01*
X11870000Y12845000D02*
Y12850000D01*
X11870000Y12850000D02*
Y13000000D01*
X11870000Y12845000D02*
X11885000Y12830000D01*
X11935000D01*
X12145000Y12620000D02*
X12150000D01*
X13246500Y14073000D02*
X13258501Y14061000D01*
X13439000D01*
X13450000Y14050000D01*
X13250000Y13850000D02*
Y13942500D01*
X13246500Y13946001D02*
X13250000Y13942500D01*
X12877354Y12920000D02*
X13980000D01*
X12877354Y13160001D02*
X14133160D01*
X13533391Y13355000D02*
X14305000D01*
X14133160Y13160001D02*
X14139287Y13166125D01*
X14692244D01*
X14305000Y13355000D02*
X14850000Y13900000D01*
X12877354Y13080000D02*
X14180000D01*
X14733583Y14033583D02*
X14750000Y14050000D01*
D43*
X11500000Y8800000D02*
X11670000D01*
X11430000Y8722574D02*
X11460000Y8692574D01*
X11467574Y8875000D02*
X11567426D01*
X11460000Y8692574D02*
X11540000D01*
X11430000Y8837427D02*
X11467574Y8875000D01*
X11430000Y8722574D02*
Y8837427D01*
X11540000Y8692574D02*
X11597426Y8750000D01*
X11670000D01*
X10650000Y9600000D02*
Y9650000D01*
X11567426Y8875000D02*
X11630000Y8937574D01*
X12033054Y12930409D02*
X12069800D01*
X12350000Y8602574D02*
Y9295000D01*
Y8602574D02*
X12500074Y8452500D01*
X12350000Y9295000D02*
X12400000Y9345000D01*
X10905500Y10281110D02*
Y10327525D01*
X10945217Y10219783D02*
Y10241393D01*
X10905500Y10281110D02*
X10945217Y10241393D01*
Y10219783D02*
X10950000Y10215000D01*
X12055500Y9631110D02*
Y9677525D01*
Y9631110D02*
X12095217Y9591393D01*
Y9577283D02*
X12100000Y9572500D01*
X12095217Y9577283D02*
Y9591393D01*
X11800000Y9950000D02*
Y10030000D01*
X11800000Y10030000D01*
X11540500Y9890314D02*
Y10327525D01*
X11413500Y9960746D02*
X12150000Y9224246D01*
X12200000Y9083995D02*
Y9230814D01*
X12150000Y9152573D02*
Y9224246D01*
X11540500Y9890314D02*
X12200000Y9230814D01*
X11413500Y9960746D02*
Y10327525D01*
X12817500Y9574265D02*
Y9677525D01*
X10577115Y10997115D02*
X10580000Y11000000D01*
X10577115Y10863481D02*
Y10997115D01*
X12500074Y8452500D02*
X12547500D01*
X12550000Y8450000D01*
X12450000Y8565074D02*
Y8650000D01*
X12547500Y8502500D02*
X12550000Y8500000D01*
X12512574Y8502500D02*
X12547500D01*
X12450000Y8565074D02*
X12512574Y8502500D01*
X12715000Y8750000D02*
X12740000Y8775000D01*
X12715000Y8602500D02*
Y8750000D01*
X12740000Y8775000D02*
X12750000D01*
X12610000D02*
X12665000Y8720000D01*
X12600000Y8775000D02*
X12610000D01*
X12665000Y8602500D02*
Y8720000D01*
X12800000Y9150000D02*
X12950000Y9000000D01*
Y8528506D02*
Y9000000D01*
X12873994Y8452500D02*
X12950000Y8528506D01*
X12832500Y8452500D02*
X12873994D01*
X12830000Y8450000D02*
X12832500Y8452500D01*
X12690500Y9202932D02*
X12896716Y8996716D01*
X12867426Y8502500D02*
X12896716Y8531790D01*
X12830000Y8500000D02*
X12832500Y8502500D01*
X12867426D01*
X12896716Y8531790D02*
Y8996716D01*
X12830000Y8600873D02*
X12852499Y8623373D01*
X12563500Y9273364D02*
X12852499Y8984364D01*
X12830000Y8550000D02*
Y8600873D01*
X12852499Y8623373D02*
Y8984364D01*
X12795000Y8650000D02*
X12800000D01*
X12765000Y8602500D02*
Y8620000D01*
X12795000Y8650000D01*
X12615000Y8602500D02*
Y8620000D01*
X12604783Y8630216D02*
X12615000Y8620000D01*
X12604783Y8630216D02*
Y8645217D01*
X12600000Y8650000D02*
X12604783Y8645217D01*
X12600000Y8650000D02*
X12602500D01*
X12750000Y8775000D02*
X12775000Y8750000D01*
X11750000Y9102500D02*
Y9175000D01*
X11900000Y9102500D02*
Y9175000D01*
X11240000Y9607500D02*
X11692500D01*
X11900000Y9400000D01*
X11725754Y9300000D02*
X12000000D01*
X11630000Y9204246D02*
X11725754Y9300000D01*
X11995000Y8997573D02*
X12150000Y9152573D01*
X11995000Y8877500D02*
Y8997573D01*
X11970000Y8852500D02*
X11995000Y8877500D01*
X11952500Y8852500D02*
X11970000D01*
X11950000Y8850000D02*
X11952500Y8852500D01*
X11987426Y8802500D02*
X12035000Y8850074D01*
X12075000Y8794142D02*
Y8902426D01*
X12035000Y8918995D02*
X12200000Y9083995D01*
X12030858Y8750000D02*
X12075000Y8794142D01*
X12035000Y8850074D02*
Y8918995D01*
X12075000Y8902426D02*
X12300000Y9127426D01*
X12175764Y8931590D02*
X12178410D01*
X12152500Y8908326D02*
X12175764Y8931590D01*
X12152500Y8852500D02*
Y8908326D01*
X12300000Y9127426D02*
Y9400000D01*
X12563500Y9273364D02*
Y9677525D01*
X12690500Y9202932D02*
Y9677525D01*
X12800000Y9150000D02*
Y9350000D01*
X12300000Y9400000D02*
Y9405824D01*
X12400000Y9347500D02*
Y9452500D01*
X12300000Y9405824D02*
X12309500Y9415324D01*
Y9677525D01*
X13050000Y8590000D02*
Y8670000D01*
X12400000Y9451246D02*
X12436500Y9487746D01*
Y9677525D01*
X11671172Y8905000D02*
X11732500D01*
X11630000Y8937574D02*
Y9204246D01*
X11750000Y9025000D02*
X11757500D01*
X11745000D02*
X11750000D01*
X11757500D02*
X11782500Y9000000D01*
Y8905000D02*
Y9000000D01*
X11277426Y9660000D02*
X11315000Y9697574D01*
X11286500Y10327525D02*
X11297500Y10316525D01*
Y10083315D02*
X11315000Y10065814D01*
Y9697574D02*
Y10065814D01*
X11297500Y10083315D02*
Y10316525D01*
X11152500Y10027500D02*
X11222500D01*
X11150000Y10025000D02*
X11152500Y10027500D01*
X11275000Y9725001D02*
Y10049246D01*
X11257500Y9707500D02*
X11275000Y9725001D01*
X11159500Y10164746D02*
X11275000Y10049246D01*
X11240000Y9707500D02*
X11257500D01*
X10925000Y10025000D02*
X11000000D01*
X10900000Y10050000D02*
X10925000Y10025000D01*
X11159500Y10164746D02*
Y10327525D01*
X10750000Y9760931D02*
Y10100000D01*
Y9760931D02*
X10900931Y9610000D01*
X10957500D01*
X10960000Y9607500D01*
X10850000Y9717499D02*
X10910000Y9657500D01*
X10850000Y9717499D02*
Y9800000D01*
X12460000Y8650000D02*
X12485000Y8625000D01*
X12450000Y8650000D02*
X12460000D01*
X12150000Y8850000D02*
X12152500Y8852500D01*
X11885000Y8902500D02*
Y8920000D01*
X11895217Y8930217D01*
Y8942716D02*
X11900000Y8947500D01*
X11895217Y8930217D02*
Y8942716D01*
X11950000Y8750000D02*
X12030858D01*
X13450000Y8190000D02*
X13498570Y8238570D01*
X13450000Y8125000D02*
Y8190000D01*
X13498570Y8238570D02*
Y8298570D01*
X13500000Y8300000D01*
X13545000Y8750000D02*
X13550000D01*
X13450000Y8580000D02*
X13455000D01*
X10910000Y9657500D02*
X10960000D01*
X11175000Y9760000D02*
Y9777500D01*
X11177500Y9780000D02*
X11198284D01*
X11218284Y9800000D02*
X11222500D01*
X11198284Y9780000D02*
X11218284Y9800000D01*
X11175000Y9777500D02*
X11177500Y9780000D01*
X10950000Y9762500D02*
X10954161Y9758339D01*
X11008339D01*
X11023339D02*
X11025000Y9760000D01*
X12022645Y12920000D02*
X12033054Y12930409D01*
X11732500Y8905000D02*
X11735000Y8902500D01*
X10900000Y10050000D02*
X10900000D01*
X11010000Y9875000D02*
X11072500Y9812500D01*
X11000000Y9875000D02*
X11010000D01*
X11072500Y9762500D02*
X11075000Y9760000D01*
X11072500Y9762500D02*
Y9812500D01*
X11125000Y9850000D02*
X11150000Y9875000D01*
X11125000Y9760000D02*
Y9850000D01*
X12740000Y8925000D02*
X12750000D01*
X12715000Y8950000D02*
X12740000Y8925000D01*
X12715000Y8950000D02*
Y8978235D01*
X12700000Y8993235D02*
X12715000Y8978235D01*
X12700000Y8993235D02*
Y9000000D01*
X11835000Y8970000D02*
X11890000Y9025000D01*
X11835000Y8902500D02*
Y8970000D01*
X11890000Y9025000D02*
X11900000D01*
X11782500Y8905000D02*
X11785000Y8902500D01*
X11150000Y9875000D02*
X11150000D01*
X11800000Y8497500D02*
X11810000Y8507500D01*
X11000000Y10025000D02*
X11000000Y10025000D01*
X13550014Y8460020D02*
Y8570013D01*
X13580000Y8600000D01*
X13449986Y8460020D02*
Y8484150D01*
X13300000Y8300000D02*
X13313474Y8313474D01*
X11667500Y10327525D02*
Y10373940D01*
Y10224265D02*
Y10327525D01*
X10580000Y11000000D02*
Y11005000D01*
X11870000Y12850000D02*
X11870000Y12850000D01*
X11870000Y13000000D02*
X11870000Y13000000D01*
X10580000Y11005000D02*
X10617500Y11042500D01*
Y11177525D01*
X11650000Y10200000D02*
Y10206765D01*
X11667500Y10224265D01*
X9855500Y11055500D02*
Y11177525D01*
X12950000Y9380000D02*
X12950000Y9380000D01*
X12950000Y9300000D02*
Y9380000D01*
X13050000Y8590000D02*
X13050000Y8590000D01*
X11950000Y8800000D02*
X11952500Y8802500D01*
X11987426D01*
X11835000Y8902500D02*
X11837500Y8905000D01*
X11240000Y9657500D02*
X11242500Y9660000D01*
X11277426D01*
X11125000Y9760000D02*
X11127500Y9762500D01*
X10957900Y9655400D02*
X10960000Y9657500D01*
D44*
X12192520Y9607480D02*
X12200000Y9600000D01*
X12192520Y9607480D02*
Y9667505D01*
X12200000Y9550000D02*
Y9600000D01*
X12182500Y9677525D02*
X12192520Y9667505D01*
D45*
X12145000Y11405000D02*
X12150000Y11400000D01*
X13292500Y8075000D02*
Y8150000D01*
X13300000D01*
X9950000Y10654000D02*
X10071700Y10532300D01*
X9950000Y11115270D02*
X9982500Y11147770D01*
Y11177525D01*
X9950000Y10654000D02*
Y11115270D01*
X10051888Y9649921D02*
Y10216888D01*
Y9649921D02*
X10063127Y9638682D01*
X10051888Y10216888D02*
X10071700Y10236699D01*
X12542782Y10650000D02*
X12575000Y10682218D01*
Y10700000D02*
X12620000Y10745000D01*
Y10750000D01*
X12575000Y10682218D02*
Y10700000D01*
X12417218Y10650000D02*
X12542782D01*
X13739999Y8150000D02*
X13745000Y8155000D01*
D46*
X13160001Y8765000D02*
X13177499Y8747500D01*
X13221005Y9070000D02*
X13295000D01*
X13160001Y9008995D02*
X13221005Y9070000D01*
X13160001Y8765000D02*
Y9008995D01*
X13295000Y9070000D02*
X13300000Y9075000D01*
X13314999D02*
X13320000Y9080000D01*
D47*
X14005000Y9000000D02*
X14100000D01*
X13904999Y8993700D02*
X14005000D01*
X13899998Y8998700D02*
X13904999Y8993700D01*
X14000002Y9005000D02*
X14005000Y9000000D01*
D48*
X15450000Y8650000D02*
X15500000Y8600000D01*
D49*
X13000000Y10750000D02*
D03*
Y11410000D02*
D03*
D50*
X13150000Y12300000D02*
D03*
X10536732Y12505425D02*
D03*
D51*
X13262941Y12039444D02*
D03*
X12986732Y12105425D02*
D03*
X13099673Y11844869D02*
D03*
X10886732Y8594575D02*
D03*
X10773791Y8334020D02*
D03*
X11050000Y8400000D02*
D03*
X14645621Y14314102D02*
D03*
X14750000Y14050000D02*
D03*
X14898654Y14291965D02*
D03*
X10345246Y9606214D02*
D03*
X10150000Y9400000D02*
D03*
X10432119Y9367532D02*
D03*
X14922446Y13273471D02*
D03*
X14700000Y13450000D02*
D03*
X14692244Y13166125D02*
D03*
X10204000Y10527000D02*
D03*
X9950000Y10400000D02*
D03*
X10204000Y10273000D02*
D03*
X10423790Y12765980D02*
D03*
X10700000Y12700000D02*
D03*
X10587059Y12960555D02*
D03*
D52*
X13377879Y12291544D02*
D03*
X10658420Y8751543D02*
D03*
X14373187Y14263654D02*
D03*
X10184389Y9831802D02*
D03*
X15133156Y13453375D02*
D03*
X10130000Y10794000D02*
D03*
X10308854Y12513880D02*
D03*
D53*
X10610523Y8528595D02*
D03*
D54*
X14496967Y14072137D02*
D03*
D55*
X10063127Y9638682D02*
D03*
D56*
X14930202Y13557346D02*
D03*
D57*
X9950000Y10654000D02*
D03*
D58*
X11400000Y11800000D02*
D03*
X14000000Y13600000D02*
D03*
X14400000Y7450000D02*
D03*
D59*
X12250000Y14150000D02*
D03*
X11800000D02*
D03*
X14000000Y12700000D02*
D03*
X12730000Y11650000D02*
D03*
X12347500Y11600000D02*
D03*
X12294800Y12050000D02*
D03*
X12305200Y11850000D02*
D03*
X11250000Y8800000D02*
D03*
X10800000Y9560000D02*
D03*
X10650000Y9650000D02*
D03*
X12750000Y10750000D02*
D03*
Y11400000D02*
D03*
X12570000Y13520000D02*
D03*
X12455200Y10763410D02*
D03*
Y11285156D02*
D03*
X12494800Y10400000D02*
D03*
X12429800D02*
D03*
X12615600Y11300000D02*
D03*
X12642300Y12973900D02*
D03*
X12069800Y12930409D02*
D03*
X12305200Y12900000D02*
D03*
X12194800Y12944800D02*
D03*
X12225104Y12550000D02*
D03*
X12094800Y11213239D02*
D03*
X12058409Y12441590D02*
D03*
X12870000Y11650000D02*
D03*
X15200000Y8200000D02*
D03*
X13200000Y8500000D02*
D03*
X12450000Y8875000D02*
D03*
X10950000Y10215000D02*
D03*
X12100000Y9572500D02*
D03*
X12200000Y9550000D02*
D03*
X11800000Y9950000D02*
D03*
X12850000Y9500000D02*
D03*
X12817500Y9574265D02*
D03*
X11000000Y10150000D02*
D03*
X10577115Y10863481D02*
D03*
X10905984Y12384049D02*
D03*
X11418306Y11480341D02*
D03*
X12850000Y8395000D02*
D03*
Y8250000D02*
D03*
X12800000Y8200000D02*
D03*
X12750000Y8250000D02*
D03*
X12700000Y8200000D02*
D03*
X12650000Y8250000D02*
D03*
X12600000Y8200000D02*
D03*
X12550000Y8250000D02*
D03*
X12800000Y8650000D02*
D03*
X12600000D02*
D03*
X11750000Y9102500D02*
D03*
X11900000D02*
D03*
X11900000Y9400000D02*
D03*
X12000000Y9300000D02*
D03*
X12178410Y8931590D02*
D03*
X12800000Y9350000D02*
D03*
X12300000Y9400000D02*
D03*
X12400000Y9452500D02*
D03*
X12400000Y9345000D02*
D03*
X13050000Y8670000D02*
D03*
X11671172Y8905000D02*
D03*
X11222500Y10027500D02*
D03*
X10750000Y10100000D02*
D03*
X11900000Y8947500D02*
D03*
X11800000Y8697500D02*
D03*
X11200000Y9550000D02*
D03*
X11000000D02*
D03*
X12097130Y8697130D02*
D03*
X11700000Y8695000D02*
D03*
X12650000Y8400000D02*
D03*
X12750000D02*
D03*
X13050000Y8420000D02*
D03*
X13900000Y7000000D02*
D03*
X13800000D02*
D03*
X13700000D02*
D03*
Y7100000D02*
D03*
X13800000D02*
D03*
X13900000D02*
D03*
Y7200000D02*
D03*
X13800000D02*
D03*
X13700000D02*
D03*
X14950000Y7750000D02*
D03*
Y7850000D02*
D03*
Y7650000D02*
D03*
Y7550000D02*
D03*
Y7450000D02*
D03*
Y7350000D02*
D03*
Y7250000D02*
D03*
X14800000Y7650000D02*
D03*
Y7750000D02*
D03*
X14650000Y7150000D02*
D03*
X14800000Y7250000D02*
D03*
Y7350000D02*
D03*
Y7450000D02*
D03*
Y7550000D02*
D03*
X14650000Y7650000D02*
D03*
Y7750000D02*
D03*
X14500000Y7050000D02*
D03*
Y7150000D02*
D03*
X14300000D02*
D03*
Y7050000D02*
D03*
X14100000D02*
D03*
Y7150000D02*
D03*
Y7250000D02*
D03*
Y7350000D02*
D03*
Y7450000D02*
D03*
Y7550000D02*
D03*
Y7650000D02*
D03*
X13700000Y7350000D02*
D03*
X13800000D02*
D03*
X13900000D02*
D03*
Y7450000D02*
D03*
Y7550000D02*
D03*
Y7650000D02*
D03*
Y7750000D02*
D03*
X14499998Y7975000D02*
D03*
X14100000Y7750000D02*
D03*
X14500000D02*
D03*
X14300000D02*
D03*
X14800000Y8000000D02*
D03*
X14650000Y7850000D02*
D03*
Y8000000D02*
D03*
X15063499Y8204700D02*
D03*
X14936501D02*
D03*
X14975000Y8000000D02*
D03*
X14800000Y7850000D02*
D03*
X14099998Y7975000D02*
D03*
X14500000Y7850000D02*
D03*
X14300000D02*
D03*
X14100000D02*
D03*
X13900000D02*
D03*
X13750000Y8000000D02*
D03*
X13650000D02*
D03*
X13700000Y7825000D02*
D03*
X13550000Y7850000D02*
D03*
X13450000D02*
D03*
X13550000Y7950000D02*
D03*
Y8050000D02*
D03*
X13600000Y8150000D02*
D03*
X13450000Y7950000D02*
D03*
X15125000Y8000000D02*
D03*
X14650000Y8150000D02*
D03*
X14450000Y8250000D02*
D03*
X13900000Y7975000D02*
D03*
Y8125000D02*
D03*
X13739999Y8150000D02*
D03*
X13750000Y8350000D02*
D03*
X13300000Y8925000D02*
D03*
X13300000Y12800000D02*
D03*
X12602500Y9000000D02*
D03*
X11989599Y11489599D02*
D03*
X12700000Y13300000D02*
D03*
X12646101Y13503899D02*
D03*
X13600000Y13650000D02*
D03*
X13100000D02*
D03*
X13000000Y13500000D02*
D03*
X12750000Y13000000D02*
D03*
X11889599Y11239599D02*
D03*
X11550000Y11000000D02*
D03*
X11650000D02*
D03*
X11222500Y9800000D02*
D03*
X12253750Y10324640D02*
D03*
X12850000Y10500000D02*
D03*
X12817500Y10312500D02*
D03*
X10950000Y9762500D02*
D03*
X11150000Y13450000D02*
D03*
X13500000Y8925000D02*
D03*
X11050000Y11250000D02*
D03*
Y11750000D02*
D03*
X14300000Y8125000D02*
D03*
X13700000Y9375000D02*
D03*
X13292500Y8075000D02*
D03*
X13700000Y8880000D02*
D03*
X10000000Y12450000D02*
D03*
X10400000Y12250000D02*
D03*
X10300000Y12350000D02*
D03*
X9900000D02*
D03*
X10100000D02*
D03*
X9800000Y12250000D02*
D03*
X10000000D02*
D03*
X10200000D02*
D03*
X10300000Y12150000D02*
D03*
X10100000D02*
D03*
X9900000D02*
D03*
X10200000Y12050000D02*
D03*
X10000000D02*
D03*
X9800000D02*
D03*
X15400000Y8950000D02*
D03*
X15300000D02*
D03*
X15200000D02*
D03*
X15100000D02*
D03*
X15000000Y8950000D02*
D03*
X14900000Y8950000D02*
D03*
X14800000Y8950000D02*
D03*
X14900000Y8850000D02*
D03*
X15000000D02*
D03*
X15100000D02*
D03*
X15200000D02*
D03*
X15300000D02*
D03*
X15400000D02*
D03*
X15500000D02*
D03*
X15600000D02*
D03*
X15750000Y8600000D02*
D03*
X15750000Y8500000D02*
D03*
Y8400000D02*
D03*
Y8300000D02*
D03*
Y8200000D02*
D03*
Y8100000D02*
D03*
Y8000000D02*
D03*
Y7900000D02*
D03*
X15750000Y7800000D02*
D03*
X15650000Y7800000D02*
D03*
X15550000D02*
D03*
X15450000D02*
D03*
X15600000Y7700000D02*
D03*
X15500000D02*
D03*
X15400000D02*
D03*
X15350000Y7800000D02*
D03*
X15300000Y7700000D02*
D03*
X14350000Y8350000D02*
D03*
X14250000D02*
D03*
X13850000Y8250000D02*
D03*
X13950000D02*
D03*
X13850000Y8350000D02*
D03*
X15700000Y7700000D02*
D03*
X15600000Y7600000D02*
D03*
X15500000D02*
D03*
X15400000D02*
D03*
X15300000D02*
D03*
X14550000Y8350000D02*
D03*
X14050000Y8250000D02*
D03*
X13750000D02*
D03*
X14500000Y8125000D02*
D03*
X15550000Y7500000D02*
D03*
X15450000D02*
D03*
X15350000D02*
D03*
X14550000Y8250000D02*
D03*
X14450000Y8350000D02*
D03*
X14250000Y8250000D02*
D03*
X14050000Y8350000D02*
D03*
X15350000Y7400000D02*
D03*
X14650000Y8350000D02*
D03*
Y8250000D02*
D03*
X14350000D02*
D03*
X14150000Y8350000D02*
D03*
Y8250000D02*
D03*
X13950000Y8350000D02*
D03*
X13700002Y7675000D02*
D03*
X12105582Y13064809D02*
D03*
X12140000Y13160001D02*
D03*
X10900000Y10050000D02*
D03*
X12700000Y9000000D02*
D03*
X14800000Y8200000D02*
D03*
X12500000Y14000000D02*
D03*
X12350000Y10500000D02*
D03*
X14100000Y8125000D02*
D03*
X14750000Y9050000D02*
D03*
X13500000Y9375000D02*
D03*
X13300000D02*
D03*
X13550000Y8750000D02*
D03*
X10608082Y10791917D02*
D03*
X10100000Y11000000D02*
D03*
X11650000Y10050000D02*
D03*
X11950000Y8550000D02*
D03*
X11850000D02*
D03*
X11800000Y8500000D02*
D03*
X11750000Y8550000D02*
D03*
X11660000Y8549811D02*
D03*
X11250000Y9400000D02*
D03*
X11200000Y9350000D02*
D03*
X11150000Y9400000D02*
D03*
X11100000Y9350000D02*
D03*
X11050000Y9400000D02*
D03*
X11000000Y9350000D02*
D03*
X10950000Y9400000D02*
D03*
X11100000Y9550000D02*
D03*
X12000000Y12600000D02*
D03*
X11950000Y12700000D02*
D03*
X11595096Y12849490D02*
D03*
X11600000Y13000000D02*
D03*
X12400000Y13350000D02*
D03*
X12350000Y13400000D02*
D03*
X12250000Y13450000D02*
D03*
X12050000Y13600000D02*
D03*
X11550000Y13850000D02*
D03*
X12200000D02*
D03*
X12650000Y14050000D02*
D03*
X12800000D02*
D03*
X13450000D02*
D03*
X13250000Y13850000D02*
D03*
X13980000Y12920000D02*
D03*
X14180000Y13080000D02*
D03*
X14850000Y13900000D02*
D03*
X13850000Y14200000D02*
D03*
Y14450000D02*
D03*
Y14100000D02*
D03*
X11150000Y13600000D02*
D03*
X11550000Y12700000D02*
D03*
X10664032Y11985968D02*
D03*
X10976615Y12300000D02*
D03*
X11488308Y12811691D02*
D03*
X10550000Y11950000D02*
D03*
X10850000Y12500000D02*
D03*
X10250000Y11900000D02*
D03*
X10363500Y11886500D02*
D03*
X10600000Y11850000D02*
D03*
X9850000D02*
D03*
X10900000Y11000000D02*
D03*
X11286500Y11036500D02*
D03*
X11413500Y11036500D02*
D03*
X12050000Y10350000D02*
D03*
X13050000Y11000000D02*
D03*
Y10900000D02*
D03*
X12950000D02*
D03*
X13050000Y11150000D02*
D03*
Y11250000D02*
D03*
X12950000Y11150000D02*
D03*
Y11000000D02*
D03*
Y11250000D02*
D03*
X11650000Y10200000D02*
D03*
X13350000Y7100000D02*
D03*
X12950000Y9300000D02*
D03*
X11900000Y8700000D02*
D03*
X10850000Y10025000D02*
D03*
X13450000Y7000000D02*
D03*
X13350000D02*
D03*
X13450000Y7100000D02*
D03*
X13250000Y7000000D02*
D03*
Y7100000D02*
D03*
X13450000Y7200000D02*
D03*
X13350000D02*
D03*
X13250000D02*
D03*
X15400000Y8200000D02*
D03*
Y8100000D02*
D03*
X15500000Y8200000D02*
D03*
Y8100000D02*
D03*
X15600000Y8200000D02*
D03*
Y8100000D02*
D03*
X15600000Y8000000D02*
D03*
X15500000D02*
D03*
X15400000D02*
D03*
X9850000Y11050000D02*
D03*
%TF.MD5,54d9e848b932a26eeb7e49823cbcf362*%
M02*
