%TF.GenerationSoftware,Altium Limited,Altium Designer,22.9.1 (49)*%
G04 Layer_Color=128*
%FSLAX45Y45*%
%MOMM*%
%TF.SameCoordinates,A07B7C20-9008-4073-B72B-9E11D2315A39*%
%TF.FilePolarity,Positive*%
%TF.FileFunction,Paste,Bot*%
%TF.Part,Single*%
G01*
G75*
%TA.AperFunction,SMDPad,CuDef*%
%ADD11R,0.80000X0.90000*%
%ADD27R,1.40000X1.10000*%
D11*
X12730000Y11650000D02*
D03*
X12870000D02*
D03*
D27*
X12549999Y8375000D02*
D03*
Y8225000D02*
D03*
X12349999Y8375000D02*
D03*
Y8225000D02*
D03*
X13150000D02*
D03*
Y8375000D02*
D03*
X12950000Y8225000D02*
D03*
Y8375000D02*
D03*
X12750000Y8225000D02*
D03*
Y8375000D02*
D03*
X11200000Y9375000D02*
D03*
Y9525000D02*
D03*
X10800000Y9375000D02*
D03*
Y9525000D02*
D03*
X11000000Y9375000D02*
D03*
Y9525000D02*
D03*
X11400000Y9375000D02*
D03*
Y9525000D02*
D03*
X11600000Y9375000D02*
D03*
Y9525000D02*
D03*
X12000000Y8525000D02*
D03*
Y8675000D02*
D03*
X12200000Y8525000D02*
D03*
Y8675000D02*
D03*
X11400000Y8525000D02*
D03*
Y8675000D02*
D03*
X11800000Y8525000D02*
D03*
Y8675000D02*
D03*
X11600000Y8525000D02*
D03*
Y8675000D02*
D03*
%TF.MD5,14be34874a0e98cedc2d7ea36a96851d*%
M02*
