%TF.GenerationSoftware,Altium Limited,Altium Designer,22.9.1 (49)*%
G04 Layer_Color=16711935*
%FSLAX45Y45*%
%MOMM*%
%TF.SameCoordinates,A07B7C20-9008-4073-B72B-9E11D2315A39*%
%TF.FilePolarity,Negative*%
%TF.FileFunction,Soldermask,Bot*%
%TF.Part,Single*%
G01*
G75*
%TA.AperFunction,ComponentPad*%
G04:AMPARAMS|DCode=49|XSize=0.9mm|YSize=1.6mm|CornerRadius=0.45mm|HoleSize=0mm|Usage=FLASHONLY|Rotation=90.000|XOffset=0mm|YOffset=0mm|HoleType=Round|Shape=RoundedRectangle|*
%AMROUNDEDRECTD49*
21,1,0.90000,0.70000,0,0,90.0*
21,1,0.00000,1.60000,0,0,90.0*
1,1,0.90000,0.35000,0.00000*
1,1,0.90000,0.35000,0.00000*
1,1,0.90000,-0.35000,0.00000*
1,1,0.90000,-0.35000,0.00000*
%
%ADD49ROUNDEDRECTD49*%
%TA.AperFunction,SMDPad,CuDef*%
%ADD60R,1.50000X1.20000*%
%ADD61R,0.90000X1.00000*%
%TA.AperFunction,ComponentPad*%
%ADD62P,2.06192X4X275.0*%
%ADD63C,1.45800*%
%ADD64C,1.65000*%
%ADD65P,2.06192X4X355.0*%
%ADD66P,2.06192X4X400.0*%
%ADD67P,2.06192X4X335.0*%
%ADD68P,2.06192X4X250.0*%
%ADD69R,1.45800X1.45800*%
%ADD70C,4.10000*%
D49*
X13000000Y10750000D02*
D03*
Y11410000D02*
D03*
D60*
X12549999Y8375000D02*
D03*
Y8225000D02*
D03*
X12349999Y8375000D02*
D03*
Y8225000D02*
D03*
X13150000D02*
D03*
Y8375000D02*
D03*
X12950000Y8225000D02*
D03*
Y8375000D02*
D03*
X12750000Y8225000D02*
D03*
Y8375000D02*
D03*
X11200000Y9375000D02*
D03*
Y9525000D02*
D03*
X10800000Y9375000D02*
D03*
Y9525000D02*
D03*
X11000000Y9375000D02*
D03*
Y9525000D02*
D03*
X11400000Y9375000D02*
D03*
Y9525000D02*
D03*
X11600000Y9375000D02*
D03*
Y9525000D02*
D03*
X12000000Y8525000D02*
D03*
Y8675000D02*
D03*
X12200000Y8525000D02*
D03*
Y8675000D02*
D03*
X11400000Y8525000D02*
D03*
Y8675000D02*
D03*
X11800000Y8525000D02*
D03*
Y8675000D02*
D03*
X11600000Y8525000D02*
D03*
Y8675000D02*
D03*
D61*
X12730000Y11650000D02*
D03*
X12870000D02*
D03*
D62*
X13150000Y12300000D02*
D03*
X10536732Y12505425D02*
D03*
D63*
X13262941Y12039444D02*
D03*
X12986732Y12105425D02*
D03*
X13099673Y11844869D02*
D03*
X10886732Y8594575D02*
D03*
X10773791Y8334020D02*
D03*
X11050000Y8400000D02*
D03*
X14645621Y14314102D02*
D03*
X14750000Y14050000D02*
D03*
X14898654Y14291965D02*
D03*
X10345246Y9606214D02*
D03*
X10150000Y9400000D02*
D03*
X10432119Y9367532D02*
D03*
X14922446Y13273471D02*
D03*
X14700000Y13450000D02*
D03*
X14692244Y13166125D02*
D03*
X10204000Y10527000D02*
D03*
X9950000Y10400000D02*
D03*
X10204000Y10273000D02*
D03*
X10423790Y12765980D02*
D03*
X10700000Y12700000D02*
D03*
X10587059Y12960555D02*
D03*
D64*
X13377879Y12291544D02*
D03*
X10658420Y8751543D02*
D03*
X14373187Y14263654D02*
D03*
X10184389Y9831802D02*
D03*
X15133156Y13453375D02*
D03*
X10130000Y10794000D02*
D03*
X10308854Y12513880D02*
D03*
D65*
X10610523Y8528595D02*
D03*
D66*
X14496967Y14072137D02*
D03*
D67*
X10063127Y9638682D02*
D03*
D68*
X14930202Y13557346D02*
D03*
D69*
X9950000Y10654000D02*
D03*
D70*
X11400000Y11800000D02*
D03*
X14000000Y13600000D02*
D03*
X14400000Y7450000D02*
D03*
%TF.MD5,8f5a11c4f93a152a87b900fc2f8a870a*%
M02*
