%TF.GenerationSoftware,Altium Limited,Altium Designer,22.9.1 (49)*%
G04 Layer_Physical_Order=4*
G04 Layer_Color=16711680*
%FSLAX45Y45*%
%MOMM*%
%TF.SameCoordinates,A07B7C20-9008-4073-B72B-9E11D2315A39*%
%TF.FilePolarity,Positive*%
%TF.FileFunction,Copper,L4,Bot,Signal*%
%TF.Part,Single*%
G01*
G75*
%TA.AperFunction,SMDPad,CuDef*%
%ADD11R,0.80000X0.90000*%
%ADD27R,1.40000X1.10000*%
%TA.AperFunction,Conductor*%
%ADD37C,0.40000*%
%ADD38C,0.60000*%
%ADD41C,0.25400*%
%ADD42C,0.50000*%
%ADD43C,0.20000*%
%ADD46C,1.00000*%
%TA.AperFunction,ComponentPad*%
G04:AMPARAMS|DCode=49|XSize=0.9mm|YSize=1.6mm|CornerRadius=0.45mm|HoleSize=0mm|Usage=FLASHONLY|Rotation=90.000|XOffset=0mm|YOffset=0mm|HoleType=Round|Shape=RoundedRectangle|*
%AMROUNDEDRECTD49*
21,1,0.90000,0.70000,0,0,90.0*
21,1,0.00000,1.60000,0,0,90.0*
1,1,0.90000,0.35000,0.00000*
1,1,0.90000,0.35000,0.00000*
1,1,0.90000,-0.35000,0.00000*
1,1,0.90000,-0.35000,0.00000*
%
%ADD49ROUNDEDRECTD49*%
%ADD50P,1.92050X4X275.0*%
%ADD51C,1.35800*%
%ADD52C,1.55000*%
%ADD53P,1.92050X4X355.0*%
%ADD54P,1.92050X4X400.0*%
%ADD55P,1.92050X4X335.0*%
%ADD56P,1.92050X4X250.0*%
%ADD57R,1.35800X1.35800*%
%ADD58C,4.00000*%
%TA.AperFunction,ViaPad*%
%ADD59C,0.45000*%
G36*
X14101276Y12548941D02*
X13970242Y12460388D01*
X13969823Y12459964D01*
X13969289Y12459702D01*
X13833626Y12356150D01*
X13833232Y12355702D01*
X13832712Y12355410D01*
X13703246Y12244211D01*
X13702876Y12243742D01*
X13702374Y12243420D01*
X13579532Y12124944D01*
X13579192Y12124455D01*
X13578709Y12124104D01*
X13462898Y11998746D01*
X13462585Y11998237D01*
X13462125Y11997859D01*
X13353731Y11866034D01*
X13353448Y11865509D01*
X13353011Y11865105D01*
X13252394Y11727253D01*
X13252142Y11726712D01*
X13251727Y11726283D01*
X13159224Y11582861D01*
X13159059Y11582444D01*
X13158762Y11582110D01*
X13115649Y11508459D01*
X13115190Y11507131D01*
X13114407Y11505961D01*
X13113899Y11503404D01*
X13113046Y11500940D01*
X13113130Y11499537D01*
X13112856Y11498158D01*
Y11413906D01*
X13100156Y11413074D01*
X13099368Y11419050D01*
X13098328Y11426969D01*
X13091777Y11442780D01*
X13081358Y11456358D01*
X13067780Y11466777D01*
X13051968Y11473327D01*
X13035001Y11475561D01*
X12964999D01*
X12948032Y11473327D01*
X12932219Y11466777D01*
X12918642Y11456358D01*
X12908223Y11442780D01*
X12901672Y11426969D01*
X12899438Y11410000D01*
X12901672Y11393032D01*
X12908223Y11377220D01*
X12918642Y11363642D01*
X12932219Y11353223D01*
X12948032Y11346673D01*
X12964999Y11344439D01*
X13035001D01*
X13051968Y11346673D01*
X13067780Y11353223D01*
X13081358Y11363642D01*
X13091777Y11377220D01*
X13098328Y11393032D01*
X13100156Y11406926D01*
X13112856Y11406094D01*
X13112856Y10753905D01*
X13100156Y10753073D01*
X13099368Y10759051D01*
X13098328Y10766968D01*
X13091777Y10782780D01*
X13081358Y10796358D01*
X13067780Y10806777D01*
X13051968Y10813327D01*
X13035001Y10815561D01*
X12964999D01*
X12948032Y10813327D01*
X12932219Y10806777D01*
X12918642Y10796358D01*
X12908223Y10782780D01*
X12901672Y10766968D01*
X12899438Y10750000D01*
X12901672Y10733031D01*
X12908223Y10717220D01*
X12918642Y10703642D01*
X12932219Y10693223D01*
X12948032Y10686673D01*
X12964999Y10684439D01*
X13035001D01*
X13051968Y10686673D01*
X13067780Y10693223D01*
X13081358Y10703642D01*
X13091777Y10717220D01*
X13098328Y10733031D01*
X13100156Y10746927D01*
X13112856Y10746095D01*
Y10600000D01*
X12600000D01*
Y11252725D01*
X12607147Y11257500D01*
X12624054D01*
X12639674Y11263970D01*
X12651630Y11275926D01*
X12658100Y11291546D01*
Y11308454D01*
X12651630Y11324074D01*
X12639674Y11336030D01*
X12624054Y11342500D01*
X12607147D01*
X12600000Y11347275D01*
Y12600000D01*
X13466660D01*
Y12357943D01*
X13461925Y12355069D01*
X13453960Y12353349D01*
X13452853Y12354456D01*
X13450383Y12357983D01*
X13443813Y12363497D01*
X13437746Y12369564D01*
X13434016Y12371717D01*
X13430717Y12374485D01*
X13422942Y12378110D01*
X13415512Y12382400D01*
X13411353Y12383514D01*
X13407449Y12385334D01*
X13399001Y12386824D01*
X13390715Y12389044D01*
X13386409D01*
X13382169Y12389792D01*
X13373621Y12389044D01*
X13365042D01*
X13360884Y12387930D01*
X13356593Y12387555D01*
X13348531Y12384620D01*
X13340245Y12382400D01*
X13336516Y12380247D01*
X13332471Y12378774D01*
X13325443Y12373854D01*
X13318011Y12369564D01*
X13314967Y12366519D01*
X13311440Y12364049D01*
X13305927Y12357477D01*
X13299860Y12351411D01*
X13297707Y12347681D01*
X13294939Y12344383D01*
X13291313Y12336608D01*
X13287022Y12329178D01*
X13285909Y12325019D01*
X13284302Y12321573D01*
X13274136Y12314909D01*
Y12314909D01*
X13271165Y12314020D01*
X13269855Y12314176D01*
X13268373Y12315419D01*
X13139166Y12423836D01*
X13026164Y12289166D01*
X13160834Y12176164D01*
X13265759Y12301209D01*
X13267770Y12301021D01*
X13279631Y12295834D01*
X13280379Y12287287D01*
Y12278708D01*
X13281493Y12274549D01*
X13281868Y12270259D01*
X13284802Y12262197D01*
X13287022Y12253911D01*
X13289175Y12250182D01*
X13290649Y12246136D01*
X13295569Y12239108D01*
X13299860Y12231678D01*
X13302904Y12228633D01*
X13305374Y12225106D01*
X13311945Y12219592D01*
X13318011Y12213525D01*
X13321741Y12211372D01*
X13325040Y12208604D01*
X13332816Y12204978D01*
X13340245Y12200689D01*
X13344405Y12199575D01*
X13348306Y12197755D01*
X13356757Y12196265D01*
X13365042Y12194044D01*
X13369348D01*
X13373589Y12193297D01*
X13382137Y12194044D01*
X13390715D01*
X13394873Y12195159D01*
X13399162Y12195534D01*
X13407227Y12198469D01*
X13415512Y12200689D01*
X13419241Y12202842D01*
X13423286Y12204315D01*
X13430315Y12209235D01*
X13437746Y12213525D01*
X13440790Y12216570D01*
X13444318Y12219040D01*
X13449831Y12225611D01*
X13453960Y12229740D01*
X13461925Y12228020D01*
X13466660Y12225146D01*
Y12148043D01*
X13196826Y11878210D01*
X13181081D01*
X13178314Y11885807D01*
X13165039Y11904766D01*
X13147308Y11919643D01*
X13126334Y11929424D01*
X13103540Y11933443D01*
X13080484Y11931426D01*
X13058736Y11923510D01*
X13039777Y11910235D01*
X13024899Y11892505D01*
X13015118Y11871529D01*
X13011099Y11848736D01*
X13013116Y11825680D01*
X13021033Y11803931D01*
X13034306Y11784972D01*
X13052037Y11770095D01*
X13073013Y11760314D01*
X13095805Y11756295D01*
X13118863Y11758312D01*
X13140611Y11766228D01*
X13159570Y11779503D01*
X13174448Y11797233D01*
X13181113Y11811529D01*
X13210635D01*
X13223395Y11814067D01*
X13234212Y11821294D01*
X13523575Y12110658D01*
X13530803Y12121474D01*
X13533340Y12134233D01*
Y12600000D01*
X14100000D01*
X14101276Y12548941D01*
D02*
G37*
G36*
X11800000Y9992500D02*
X11791546D01*
X11775926Y9986030D01*
X11763970Y9974074D01*
X11757500Y9958454D01*
Y9941546D01*
X11763970Y9925926D01*
X11775926Y9913970D01*
X11791546Y9907500D01*
X11800000D01*
Y9800000D01*
X11850000Y9750000D01*
X11853513Y9753513D01*
X13499757D01*
X13581845Y9678198D01*
X13582397Y9677861D01*
X13582812Y9677364D01*
X13704552Y9578964D01*
X13705124Y9578663D01*
X13705569Y9578193D01*
X13833228Y9487604D01*
X13833818Y9487340D01*
X13834291Y9486898D01*
X13967369Y9404477D01*
X13967975Y9404250D01*
X13968475Y9403839D01*
X14106450Y9329907D01*
X14107069Y9329718D01*
X14107594Y9329339D01*
X14249925Y9264188D01*
X14250555Y9264038D01*
X14251102Y9263693D01*
X14397232Y9207576D01*
X14397870Y9207466D01*
X14398438Y9207156D01*
X14547794Y9160295D01*
X14548436Y9160225D01*
X14549022Y9159951D01*
X14701018Y9122528D01*
X14701665Y9122499D01*
X14702266Y9122262D01*
X14856306Y9094425D01*
X14856952Y9094437D01*
X14857568Y9094238D01*
X15013048Y9076096D01*
X15013693Y9076147D01*
X15014320Y9075987D01*
X15170630Y9067612D01*
X15171111Y9067681D01*
X15171587Y9067583D01*
X15247559Y9067084D01*
X15286374Y9057915D01*
X15366347Y9031003D01*
X15443489Y8996807D01*
X15517137Y8955622D01*
X15586659Y8907801D01*
X15590936Y8904233D01*
X15587291Y8890737D01*
X15575926Y8886030D01*
X15563971Y8874074D01*
X15557501Y8858454D01*
Y8841546D01*
X15563971Y8825926D01*
X15575926Y8813970D01*
X15591547Y8807500D01*
X15608453D01*
X15624074Y8813970D01*
X15636031Y8825926D01*
X15642500Y8841546D01*
Y8844689D01*
X15642606Y8844797D01*
X15655200Y8849996D01*
X15710982Y8793945D01*
X15764716Y8728886D01*
X15812202Y8659134D01*
X15853032Y8585289D01*
X15886855Y8507984D01*
X15913382Y8427883D01*
X15932385Y8345669D01*
X15943703Y8262049D01*
X15947237Y8177741D01*
X15942955Y8093467D01*
X15930898Y8009954D01*
X15911163Y7927913D01*
X15883926Y7848047D01*
X15849419Y7771046D01*
X15807935Y7697566D01*
X15759831Y7628239D01*
X15705522Y7563659D01*
X15645470Y7504379D01*
X15613802Y7478439D01*
X15593951Y7465887D01*
X15585970Y7475866D01*
X15586031Y7475926D01*
X15592500Y7491546D01*
Y7508454D01*
X15586031Y7524074D01*
X15574074Y7536030D01*
X15558453Y7542500D01*
X15541547D01*
X15525926Y7536030D01*
X15513969Y7524074D01*
X15507500Y7508454D01*
Y7491546D01*
X15513969Y7475926D01*
X15525926Y7463970D01*
X15541547Y7457500D01*
X15544733D01*
X15556734Y7444800D01*
X15556590Y7442263D01*
X15533531Y7427682D01*
X15366095Y7332813D01*
X15194272Y7246149D01*
X15018459Y7167888D01*
X14839069Y7098216D01*
X14656523Y7037295D01*
X14471248Y6985269D01*
X14283673Y6942257D01*
X14094237Y6908360D01*
X13903386Y6883658D01*
X13711563Y6868209D01*
X13609123Y6864928D01*
X13600000Y6873764D01*
Y7350000D01*
X13300000D01*
Y8032500D01*
X13300954D01*
X13316574Y8038970D01*
X13328529Y8050926D01*
X13335001Y8066546D01*
Y8083453D01*
X13328529Y8099074D01*
X13316574Y8111029D01*
X13300954Y8117500D01*
X13300000D01*
Y8300000D01*
X13270392D01*
X13268840Y8307804D01*
X13264420Y8314419D01*
X13257803Y8318840D01*
X13250000Y8320392D01*
X12300000D01*
Y8429608D01*
X12307804Y8431160D01*
X12314419Y8435580D01*
X12318840Y8442196D01*
X12320392Y8450000D01*
Y8600000D01*
X12318840Y8607804D01*
X12314419Y8614419D01*
X12307804Y8618840D01*
X12300000Y8620392D01*
X11350000D01*
Y9100000D01*
X11696861Y9100000D01*
X11703725Y9096159D01*
X11708787Y9090940D01*
X11713971Y9078426D01*
X11725926Y9066471D01*
X11741547Y9060000D01*
X11758454D01*
X11774074Y9066471D01*
X11786030Y9078426D01*
X11792500Y9094047D01*
Y9110954D01*
X11786030Y9126574D01*
X11774074Y9138530D01*
X11758454Y9145000D01*
X11741547D01*
X11731520Y9140847D01*
X11720290Y9149487D01*
X11720392Y9150000D01*
Y9450000D01*
X11718840Y9457804D01*
X11714419Y9464419D01*
X11707804Y9468840D01*
X11700000Y9470392D01*
X11609588D01*
X11608268Y9470129D01*
X11606926Y9470217D01*
X11605000Y9469964D01*
X11603073Y9470217D01*
X11601731Y9470129D01*
X11600411Y9470392D01*
X10800000D01*
Y10001467D01*
X10812700Y10003993D01*
X10813970Y10000926D01*
X10825926Y9988970D01*
X10841547Y9982500D01*
X10858454D01*
X10874074Y9988970D01*
X10886030Y10000926D01*
X10889162Y10008488D01*
X10891546Y10007500D01*
X10908454D01*
X10924074Y10013970D01*
X10936030Y10025926D01*
X10942500Y10041546D01*
Y10058454D01*
X10941299Y10061352D01*
X10941811Y10062119D01*
X10953503Y10068364D01*
X10953519Y10068371D01*
X10963442Y10061741D01*
X10975147Y10059412D01*
X11177716D01*
X11184457Y10046712D01*
X11180000Y10035953D01*
Y10019046D01*
X11186471Y10003426D01*
X11198426Y9991470D01*
X11214047Y9985000D01*
X11230954D01*
X11246574Y9991470D01*
X11258530Y10003426D01*
X11265000Y10019046D01*
Y10035953D01*
X11260544Y10046712D01*
X11267285Y10059412D01*
X11397330D01*
X12013455Y9443288D01*
X12008194Y9430588D01*
X11929516D01*
X11924074Y9436030D01*
X11908454Y9442500D01*
X11891546D01*
X11875926Y9436030D01*
X11863970Y9424074D01*
X11857500Y9408454D01*
Y9391546D01*
X11863970Y9375926D01*
X11875926Y9363970D01*
X11891546Y9357500D01*
X11908454D01*
X11924074Y9363970D01*
X11929516Y9369412D01*
X12008194D01*
X12013455Y9356712D01*
X11999242Y9342500D01*
X11991546D01*
X11975926Y9336030D01*
X11963970Y9324074D01*
X11957500Y9308454D01*
Y9291546D01*
X11963970Y9275926D01*
X11975926Y9263970D01*
X11991546Y9257500D01*
X12008454D01*
X12024074Y9263970D01*
X12036030Y9275926D01*
X12042500Y9291546D01*
Y9299242D01*
X12057670Y9314413D01*
X12370483D01*
X12375926Y9308970D01*
X12391546Y9302500D01*
X12408453D01*
X12424074Y9308970D01*
X12436029Y9320926D01*
X12442500Y9336546D01*
Y9353453D01*
X12441150Y9356712D01*
X12449636Y9369412D01*
X12513472D01*
X12554513Y9328371D01*
X12564436Y9321741D01*
X12576142Y9319412D01*
X12576143Y9319412D01*
X12770484D01*
X12775926Y9313970D01*
X12791546Y9307500D01*
X12808453D01*
X12824074Y9313970D01*
X12836031Y9325926D01*
X12842500Y9341546D01*
Y9358454D01*
X12836031Y9374074D01*
X12824074Y9386030D01*
X12808453Y9392500D01*
X12791546D01*
X12775926Y9386030D01*
X12770484Y9380588D01*
X12588812D01*
X12547771Y9421629D01*
X12537847Y9428259D01*
X12526142Y9430588D01*
X12526141Y9430588D01*
X12448355D01*
X12441299Y9441147D01*
X12442500Y9444046D01*
Y9460954D01*
X12436030Y9476574D01*
X12426284Y9486320D01*
X12428845Y9496730D01*
X12430177Y9499020D01*
X12476854D01*
X12511922Y9463952D01*
X12528461Y9452901D01*
X12547970Y9449020D01*
X12850000D01*
X12869508Y9452901D01*
X12886047Y9463952D01*
X12897099Y9480491D01*
X12900980Y9500000D01*
X12897099Y9519509D01*
X12886047Y9536048D01*
X12869508Y9547099D01*
X12863380Y9548318D01*
X12857393Y9559519D01*
X12860001Y9565811D01*
Y9582718D01*
X12853529Y9598339D01*
X12841574Y9610294D01*
X12825954Y9616765D01*
X12809045D01*
X12793426Y9610294D01*
X12781470Y9598339D01*
X12775000Y9582718D01*
Y9565811D01*
X12776769Y9561539D01*
X12769714Y9550980D01*
X12569087D01*
X12534018Y9586048D01*
X12517479Y9597099D01*
X12497970Y9600980D01*
X12200000D01*
X12180491Y9597099D01*
X12163952Y9586048D01*
X12155200Y9572949D01*
X12142500Y9576802D01*
Y9580954D01*
X12136030Y9596574D01*
X12124074Y9608530D01*
X12108454Y9615000D01*
X12091546D01*
X12075926Y9608530D01*
X12063970Y9596574D01*
X12057500Y9580954D01*
Y9564046D01*
X12063970Y9548426D01*
X12075926Y9536470D01*
X12091546Y9530000D01*
X12108454D01*
X12124074Y9536470D01*
X12136030Y9548426D01*
X12136935Y9550613D01*
X12141475Y9550382D01*
X12149477Y9547704D01*
X12152901Y9530491D01*
X12163952Y9513952D01*
X12180491Y9502901D01*
X12200000Y9499020D01*
X12358098D01*
X12364151Y9486320D01*
X12361530Y9483088D01*
X12231040D01*
X12226310Y9482147D01*
X12076477D01*
X12071746Y9483088D01*
X12071745Y9483088D01*
X12060170D01*
X11450970Y10092287D01*
X11455831Y10104020D01*
X11523884D01*
X11613952Y10013952D01*
X11630491Y10002901D01*
X11650000Y9999020D01*
X11669509Y10002901D01*
X11686048Y10013952D01*
X11697099Y10030491D01*
X11700980Y10050000D01*
X11697099Y10069509D01*
X11686048Y10086048D01*
X11617219Y10154877D01*
X11625926Y10163970D01*
X11641546Y10157500D01*
X11658454D01*
X11674074Y10163970D01*
X11686030Y10175926D01*
X11692500Y10191546D01*
Y10208454D01*
X11686030Y10224074D01*
X11674074Y10236030D01*
X11658454Y10242500D01*
X11641546D01*
X11625926Y10236030D01*
X11613970Y10224074D01*
X11607500Y10208454D01*
Y10191546D01*
X11613970Y10175926D01*
X11604877Y10167219D01*
X11581048Y10191048D01*
X11564509Y10202099D01*
X11545000Y10205980D01*
X11005000D01*
X11004962Y10205972D01*
X10992500Y10216442D01*
Y10223454D01*
X10986030Y10239074D01*
X10974074Y10251030D01*
X10958454Y10257500D01*
X10941546D01*
X10925926Y10251030D01*
X10913970Y10239074D01*
X10907500Y10223454D01*
Y10206546D01*
X10913970Y10190926D01*
X10925926Y10178970D01*
X10941546Y10172500D01*
X10950970Y10159800D01*
X10949021Y10150000D01*
X10950432Y10142905D01*
X10942375Y10133088D01*
X10800000D01*
Y10400000D01*
X11800000D01*
Y9992500D01*
D02*
G37*
G36*
X10750000Y10142500D02*
X10741546D01*
X10725926Y10136030D01*
X10713970Y10124074D01*
X10707500Y10108454D01*
Y10091546D01*
X10713970Y10075926D01*
X10725926Y10063970D01*
X10741546Y10057500D01*
X10750000D01*
Y9600000D01*
X10710000D01*
Y9450000D01*
X11600411D01*
X11605000Y9449396D01*
X11609588Y9450000D01*
X11700000D01*
Y9150000D01*
X11300000D01*
Y8600000D01*
X12300000D01*
Y8450000D01*
X12260000D01*
Y8300000D01*
X13250000D01*
Y7300000D01*
X13550000D01*
Y6863035D01*
X13519215Y6862049D01*
X13326801Y6865191D01*
X13134763Y6877630D01*
X12943542Y6899335D01*
X12753600Y6930256D01*
X12565372Y6970321D01*
X12379302Y7019435D01*
X12195828Y7077483D01*
X12015364Y7144335D01*
X11838345Y7219827D01*
X11665184Y7303787D01*
X11496282Y7396017D01*
X11332032Y7496303D01*
X11172824Y7604409D01*
X11019026Y7720084D01*
X10870998Y7843056D01*
X10729089Y7973035D01*
X10593622Y8109726D01*
X10464920Y8252805D01*
X10343288Y8401931D01*
X10229003Y8556763D01*
X10122333Y8716941D01*
X10023532Y8882082D01*
X9932824Y9051811D01*
X9850425Y9225723D01*
X9776530Y9403409D01*
X9711307Y9584466D01*
X9654912Y9768457D01*
X9607473Y9954968D01*
X9569104Y10143544D01*
X9539894Y10333759D01*
X9519911Y10525160D01*
X9509202Y10717309D01*
X9507791Y10909749D01*
X9515682Y11102023D01*
X9528942Y11250000D01*
X10750000D01*
Y10142500D01*
D02*
G37*
%LPC*%
G36*
X12990599Y12193999D02*
X12967543Y12191981D01*
X12945795Y12184066D01*
X12926836Y12170790D01*
X12911958Y12153061D01*
X12902177Y12132085D01*
X12898158Y12109292D01*
X12900175Y12086235D01*
X12908092Y12064487D01*
X12921365Y12045528D01*
X12939096Y12030651D01*
X12960072Y12020870D01*
X12982864Y12016850D01*
X13005920Y12018868D01*
X13027670Y12026784D01*
X13046629Y12040059D01*
X13061507Y12057788D01*
X13071288Y12078765D01*
X13075307Y12101557D01*
X13073289Y12124614D01*
X13065373Y12146363D01*
X13052098Y12165321D01*
X13034367Y12180198D01*
X13013393Y12189980D01*
X12990599Y12193999D01*
D02*
G37*
G36*
X12930000Y11715000D02*
X12810001D01*
Y11585000D01*
X12930000D01*
Y11715000D01*
D02*
G37*
G36*
X12758454Y11442500D02*
X12741546D01*
X12725926Y11436030D01*
X12713970Y11424074D01*
X12707500Y11408454D01*
Y11391546D01*
X12713970Y11375926D01*
X12725926Y11363970D01*
X12741546Y11357500D01*
X12758454D01*
X12774074Y11363970D01*
X12786030Y11375926D01*
X12792500Y11391546D01*
Y11408454D01*
X12786030Y11424074D01*
X12774074Y11436030D01*
X12758454Y11442500D01*
D02*
G37*
G36*
X13058453Y11292500D02*
X13041547D01*
X13025926Y11286030D01*
X13013969Y11274074D01*
X13007500Y11258454D01*
Y11241546D01*
X13013969Y11225926D01*
X13025926Y11213970D01*
X13041547Y11207500D01*
X13058453D01*
X13074074Y11213970D01*
X13086031Y11225926D01*
X13092500Y11241546D01*
Y11258454D01*
X13086031Y11274074D01*
X13074074Y11286030D01*
X13058453Y11292500D01*
D02*
G37*
G36*
X12958453D02*
X12941547D01*
X12925926Y11286030D01*
X12913969Y11274074D01*
X12907500Y11258454D01*
Y11241546D01*
X12913969Y11225926D01*
X12925926Y11213970D01*
X12941547Y11207500D01*
X12958453D01*
X12974074Y11213970D01*
X12986031Y11225926D01*
X12992500Y11241546D01*
Y11258454D01*
X12986031Y11274074D01*
X12974074Y11286030D01*
X12958453Y11292500D01*
D02*
G37*
G36*
X13058453Y11192500D02*
X13041547D01*
X13025926Y11186030D01*
X13013969Y11174074D01*
X13007500Y11158454D01*
Y11141546D01*
X13013969Y11125926D01*
X13025926Y11113970D01*
X13041547Y11107500D01*
X13058453D01*
X13074074Y11113970D01*
X13086031Y11125926D01*
X13092500Y11141546D01*
Y11158454D01*
X13086031Y11174074D01*
X13074074Y11186030D01*
X13058453Y11192500D01*
D02*
G37*
G36*
X12958453D02*
X12941547D01*
X12925926Y11186030D01*
X12913969Y11174074D01*
X12907500Y11158454D01*
Y11141546D01*
X12913969Y11125926D01*
X12925926Y11113970D01*
X12941547Y11107500D01*
X12958453D01*
X12974074Y11113970D01*
X12986031Y11125926D01*
X12992500Y11141546D01*
Y11158454D01*
X12986031Y11174074D01*
X12974074Y11186030D01*
X12958453Y11192500D01*
D02*
G37*
G36*
X13058453Y11042500D02*
X13041547D01*
X13025926Y11036030D01*
X13013969Y11024074D01*
X13007500Y11008454D01*
Y10991546D01*
X13013969Y10975926D01*
X13025926Y10963970D01*
X13041547Y10957500D01*
X13058453D01*
X13074074Y10963970D01*
X13086031Y10975926D01*
X13092500Y10991546D01*
Y11008454D01*
X13086031Y11024074D01*
X13074074Y11036030D01*
X13058453Y11042500D01*
D02*
G37*
G36*
X12958453Y11042500D02*
X12941547D01*
X12925926Y11036029D01*
X12913969Y11024074D01*
X12907500Y11008453D01*
Y10991546D01*
X12913969Y10975926D01*
X12925926Y10963970D01*
X12941547Y10957500D01*
X12958453D01*
X12974074Y10963970D01*
X12986031Y10975926D01*
X12992500Y10991546D01*
Y11008453D01*
X12986031Y11024074D01*
X12974074Y11036029D01*
X12958453Y11042500D01*
D02*
G37*
G36*
X13058453Y10942500D02*
X13041547D01*
X13025926Y10936030D01*
X13013969Y10924074D01*
X13007500Y10908454D01*
Y10891546D01*
X13013969Y10875926D01*
X13025926Y10863970D01*
X13041547Y10857500D01*
X13058453D01*
X13074074Y10863970D01*
X13086031Y10875926D01*
X13092500Y10891546D01*
Y10908454D01*
X13086031Y10924074D01*
X13074074Y10936030D01*
X13058453Y10942500D01*
D02*
G37*
G36*
X12958453D02*
X12941547D01*
X12925926Y10936030D01*
X12913969Y10924074D01*
X12907500Y10908454D01*
Y10891546D01*
X12913969Y10875926D01*
X12925926Y10863970D01*
X12941547Y10857500D01*
X12958453D01*
X12974074Y10863970D01*
X12986031Y10875926D01*
X12992500Y10891546D01*
Y10908454D01*
X12986031Y10924074D01*
X12974074Y10936030D01*
X12958453Y10942500D01*
D02*
G37*
G36*
X12758454Y10792500D02*
X12741546D01*
X12725926Y10786030D01*
X12713970Y10774074D01*
X12707500Y10758454D01*
Y10741546D01*
X12713970Y10725926D01*
X12725926Y10713970D01*
X12741546Y10707500D01*
X12758454D01*
X12774074Y10713970D01*
X12786030Y10725926D01*
X12792500Y10741546D01*
Y10758454D01*
X12786030Y10774074D01*
X12774074Y10786030D01*
X12758454Y10792500D01*
D02*
G37*
G36*
X11230954Y9842500D02*
X11214047D01*
X11198426Y9836030D01*
X11186471Y9824074D01*
X11180000Y9808454D01*
Y9791546D01*
X11186471Y9775926D01*
X11198426Y9763970D01*
X11214047Y9757500D01*
X11230954D01*
X11246574Y9763970D01*
X11258530Y9775926D01*
X11265000Y9791546D01*
Y9808454D01*
X11258530Y9824074D01*
X11246574Y9836030D01*
X11230954Y9842500D01*
D02*
G37*
G36*
X10958454Y9805000D02*
X10941546D01*
X10925926Y9798530D01*
X10913970Y9786574D01*
X10907500Y9770954D01*
Y9754047D01*
X10913970Y9738426D01*
X10925926Y9726471D01*
X10941546Y9720000D01*
X10958454D01*
X10974074Y9726471D01*
X10986030Y9738426D01*
X10992500Y9754047D01*
Y9770954D01*
X10986030Y9786574D01*
X10974074Y9798530D01*
X10958454Y9805000D01*
D02*
G37*
G36*
X13708453Y9417500D02*
X13691547D01*
X13675926Y9411030D01*
X13663969Y9399074D01*
X13657500Y9383454D01*
Y9366546D01*
X13663969Y9350926D01*
X13675926Y9338970D01*
X13691547Y9332500D01*
X13708453D01*
X13724074Y9338970D01*
X13736029Y9350926D01*
X13742500Y9366546D01*
Y9383454D01*
X13736029Y9399074D01*
X13724074Y9411030D01*
X13708453Y9417500D01*
D02*
G37*
G36*
X13508453D02*
X13491547D01*
X13475926Y9411030D01*
X13463969Y9399074D01*
X13457500Y9383454D01*
Y9366546D01*
X13463969Y9350926D01*
X13475926Y9338970D01*
X13491547Y9332500D01*
X13508453D01*
X13524074Y9338970D01*
X13536029Y9350926D01*
X13542499Y9366546D01*
Y9383454D01*
X13536029Y9399074D01*
X13524074Y9411030D01*
X13508453Y9417500D01*
D02*
G37*
G36*
X13308453D02*
X13291547D01*
X13275926Y9411030D01*
X13263969Y9399074D01*
X13257500Y9383454D01*
Y9366546D01*
X13263969Y9350926D01*
X13275926Y9338970D01*
X13291547Y9332500D01*
X13308453D01*
X13324074Y9338970D01*
X13336029Y9350926D01*
X13342500Y9366546D01*
Y9383454D01*
X13336029Y9399074D01*
X13324074Y9411030D01*
X13308453Y9417500D01*
D02*
G37*
G36*
X12958453Y9342500D02*
X12941547D01*
X12925926Y9336030D01*
X12913969Y9324074D01*
X12907500Y9308454D01*
Y9291546D01*
X12913969Y9275926D01*
X12925926Y9263970D01*
X12941547Y9257500D01*
X12958453D01*
X12974074Y9263970D01*
X12986031Y9275926D01*
X12992500Y9291546D01*
Y9308454D01*
X12986031Y9324074D01*
X12974074Y9336030D01*
X12958453Y9342500D01*
D02*
G37*
G36*
X11908454Y9145000D02*
X11891547D01*
X11875926Y9138530D01*
X11863971Y9126574D01*
X11857501Y9110954D01*
Y9094047D01*
X11863971Y9078426D01*
X11875926Y9066471D01*
X11891547Y9060000D01*
X11908454D01*
X11924074Y9066471D01*
X11936030Y9078426D01*
X11942500Y9094047D01*
Y9110954D01*
X11936030Y9126574D01*
X11924074Y9138530D01*
X11908454Y9145000D01*
D02*
G37*
G36*
X12708453Y9042500D02*
X12691546D01*
X12675926Y9036030D01*
X12663970Y9024074D01*
X12657500Y9008454D01*
X12645000D01*
X12638529Y9024074D01*
X12626574Y9036030D01*
X12610953Y9042500D01*
X12594046D01*
X12578426Y9036030D01*
X12566470Y9024074D01*
X12560000Y9008454D01*
Y8991546D01*
X12566470Y8975926D01*
X12578426Y8963970D01*
X12594046Y8957500D01*
X12610953D01*
X12626574Y8963970D01*
X12638529Y8975926D01*
X12645000Y8991546D01*
X12657500D01*
X12663970Y8975926D01*
X12675926Y8963970D01*
X12691546Y8957500D01*
X12708453D01*
X12724074Y8963970D01*
X12736029Y8975926D01*
X12742500Y8991546D01*
Y9008454D01*
X12736029Y9024074D01*
X12724074Y9036030D01*
X12708453Y9042500D01*
D02*
G37*
G36*
X14758453Y9092500D02*
X14741547D01*
X14725926Y9086030D01*
X14713969Y9074074D01*
X14707500Y9058454D01*
Y9041546D01*
X14713969Y9025926D01*
X14725926Y9013970D01*
X14741547Y9007500D01*
X14758453D01*
X14774074Y9013970D01*
X14786031Y9025926D01*
X14792500Y9041546D01*
Y9058454D01*
X14786031Y9074074D01*
X14774074Y9086030D01*
X14758453Y9092500D01*
D02*
G37*
G36*
X15408453Y8992500D02*
X15391547D01*
X15375926Y8986030D01*
X15363971Y8974074D01*
X15357500Y8958454D01*
Y8941547D01*
X15363971Y8925926D01*
X15375926Y8913970D01*
X15391547Y8907500D01*
X15408453D01*
X15424074Y8913970D01*
X15436031Y8925926D01*
X15442500Y8941547D01*
Y8958454D01*
X15436031Y8974074D01*
X15424074Y8986030D01*
X15408453Y8992500D01*
D02*
G37*
G36*
X15308453D02*
X15291547D01*
X15275926Y8986030D01*
X15263969Y8974074D01*
X15257500Y8958454D01*
Y8941547D01*
X15263969Y8925926D01*
X15275926Y8913970D01*
X15291547Y8907500D01*
X15308453D01*
X15324074Y8913970D01*
X15336031Y8925926D01*
X15342500Y8941547D01*
Y8958454D01*
X15336031Y8974074D01*
X15324074Y8986030D01*
X15308453Y8992500D01*
D02*
G37*
G36*
X15208453D02*
X15191547D01*
X15175926Y8986030D01*
X15163969Y8974074D01*
X15157500Y8958454D01*
Y8941547D01*
X15163969Y8925926D01*
X15175926Y8913970D01*
X15191547Y8907500D01*
X15208453D01*
X15224074Y8913970D01*
X15236031Y8925926D01*
X15242500Y8941547D01*
Y8958454D01*
X15236031Y8974074D01*
X15224074Y8986030D01*
X15208453Y8992500D01*
D02*
G37*
G36*
X15108453D02*
X15091547D01*
X15075926Y8986030D01*
X15063971Y8974074D01*
X15057500Y8958454D01*
Y8941547D01*
X15063971Y8925926D01*
X15075926Y8913970D01*
X15091547Y8907500D01*
X15108453D01*
X15124074Y8913970D01*
X15136031Y8925926D01*
X15142500Y8941547D01*
Y8958454D01*
X15136031Y8974074D01*
X15124074Y8986030D01*
X15108453Y8992500D01*
D02*
G37*
G36*
X14908453D02*
X14891547D01*
X14875926Y8986030D01*
X14863971Y8974074D01*
X14857500Y8958454D01*
Y8941547D01*
X14863971Y8925926D01*
X14875926Y8913970D01*
X14891547Y8907500D01*
X14908453D01*
X14924074Y8913970D01*
X14936031Y8925926D01*
X14942500Y8941547D01*
Y8958454D01*
X14936031Y8974074D01*
X14924074Y8986030D01*
X14908453Y8992500D01*
D02*
G37*
G36*
X15008453Y8992500D02*
X14991547D01*
X14975926Y8986030D01*
X14963969Y8974074D01*
X14957500Y8958454D01*
Y8941546D01*
X14963969Y8925926D01*
X14975926Y8913970D01*
X14991547Y8907500D01*
X15008453D01*
X15024074Y8913970D01*
X15036031Y8925926D01*
X15042500Y8941546D01*
Y8958454D01*
X15036031Y8974074D01*
X15024074Y8986030D01*
X15008453Y8992500D01*
D02*
G37*
G36*
X14808453D02*
X14791547D01*
X14775926Y8986030D01*
X14763969Y8974074D01*
X14757500Y8958454D01*
Y8941546D01*
X14763969Y8925926D01*
X14775926Y8913970D01*
X14791547Y8907500D01*
X14808453D01*
X14824074Y8913970D01*
X14836031Y8925926D01*
X14842500Y8941546D01*
Y8958454D01*
X14836031Y8974074D01*
X14824074Y8986030D01*
X14808453Y8992500D01*
D02*
G37*
G36*
X11908454Y8990000D02*
X11891546D01*
X11875926Y8983529D01*
X11863970Y8971574D01*
X11857500Y8955953D01*
Y8939046D01*
X11863970Y8923426D01*
X11875926Y8911470D01*
X11891546Y8905000D01*
X11908454D01*
X11924074Y8911470D01*
X11936030Y8923426D01*
X11942500Y8939046D01*
Y8955953D01*
X11936030Y8971574D01*
X11924074Y8983529D01*
X11908454Y8990000D01*
D02*
G37*
G36*
X12186863Y8974090D02*
X12169956D01*
X12154336Y8967620D01*
X12142380Y8955664D01*
X12135910Y8940044D01*
Y8923136D01*
X12142380Y8907516D01*
X12154336Y8895560D01*
X12169956Y8889090D01*
X12186863D01*
X12202484Y8895560D01*
X12214439Y8907516D01*
X12220910Y8923136D01*
Y8940044D01*
X12214439Y8955664D01*
X12202484Y8967620D01*
X12186863Y8974090D01*
D02*
G37*
G36*
X13508453Y8967500D02*
X13491547D01*
X13475926Y8961030D01*
X13463971Y8949074D01*
X13457500Y8933454D01*
Y8916546D01*
X13463971Y8900926D01*
X13475926Y8888970D01*
X13491547Y8882500D01*
X13508453D01*
X13524074Y8888970D01*
X13536031Y8900926D01*
X13542500Y8916546D01*
Y8933454D01*
X13536031Y8949074D01*
X13524074Y8961030D01*
X13508453Y8967500D01*
D02*
G37*
G36*
X13308453D02*
X13291547D01*
X13275926Y8961030D01*
X13263971Y8949074D01*
X13257501Y8933454D01*
Y8916546D01*
X13263971Y8900926D01*
X13275926Y8888970D01*
X13291547Y8882500D01*
X13308453D01*
X13324074Y8888970D01*
X13336031Y8900926D01*
X13342500Y8916546D01*
Y8933454D01*
X13336031Y8949074D01*
X13324074Y8961030D01*
X13308453Y8967500D01*
D02*
G37*
G36*
X11679626Y8947500D02*
X11662719D01*
X11647098Y8941030D01*
X11635143Y8929074D01*
X11628673Y8913454D01*
Y8896547D01*
X11635143Y8880926D01*
X11647098Y8868971D01*
X11662719Y8862500D01*
X11679626D01*
X11695247Y8868971D01*
X11707202Y8880926D01*
X11713672Y8896547D01*
Y8913454D01*
X11707202Y8929074D01*
X11695247Y8941030D01*
X11679626Y8947500D01*
D02*
G37*
G36*
X13708453Y8922500D02*
X13691547D01*
X13675926Y8916029D01*
X13663971Y8904074D01*
X13657500Y8888453D01*
Y8871546D01*
X13663971Y8855926D01*
X13675926Y8843970D01*
X13691547Y8837500D01*
X13708453D01*
X13724074Y8843970D01*
X13736031Y8855926D01*
X13742500Y8871546D01*
Y8888453D01*
X13736031Y8904074D01*
X13724074Y8916029D01*
X13708453Y8922500D01*
D02*
G37*
G36*
X12458453Y8917500D02*
X12441546D01*
X12425926Y8911030D01*
X12413970Y8899074D01*
X12407500Y8883454D01*
Y8866546D01*
X12413970Y8850926D01*
X12425926Y8838970D01*
X12441546Y8832500D01*
X12458453D01*
X12474074Y8838970D01*
X12486029Y8850926D01*
X12492500Y8866546D01*
Y8883454D01*
X12486029Y8899074D01*
X12474074Y8911030D01*
X12458453Y8917500D01*
D02*
G37*
G36*
X15508453Y8892500D02*
X15491547D01*
X15475926Y8886030D01*
X15463971Y8874074D01*
X15457500Y8858454D01*
Y8841546D01*
X15463971Y8825926D01*
X15475926Y8813970D01*
X15491547Y8807500D01*
X15508453D01*
X15524074Y8813970D01*
X15536031Y8825926D01*
X15542500Y8841546D01*
Y8858454D01*
X15536031Y8874074D01*
X15524074Y8886030D01*
X15508453Y8892500D01*
D02*
G37*
G36*
X15408453D02*
X15391547D01*
X15375926Y8886030D01*
X15363971Y8874074D01*
X15357500Y8858454D01*
Y8841546D01*
X15363971Y8825926D01*
X15375926Y8813970D01*
X15391547Y8807500D01*
X15408453D01*
X15424074Y8813970D01*
X15436031Y8825926D01*
X15442500Y8841546D01*
Y8858454D01*
X15436031Y8874074D01*
X15424074Y8886030D01*
X15408453Y8892500D01*
D02*
G37*
G36*
X15308453D02*
X15291547D01*
X15275926Y8886030D01*
X15263969Y8874074D01*
X15257500Y8858454D01*
Y8841546D01*
X15263969Y8825926D01*
X15275926Y8813970D01*
X15291547Y8807500D01*
X15308453D01*
X15324074Y8813970D01*
X15336031Y8825926D01*
X15342500Y8841546D01*
Y8858454D01*
X15336031Y8874074D01*
X15324074Y8886030D01*
X15308453Y8892500D01*
D02*
G37*
G36*
X15208453D02*
X15191547D01*
X15175926Y8886030D01*
X15163969Y8874074D01*
X15157500Y8858454D01*
Y8841546D01*
X15163969Y8825926D01*
X15175926Y8813970D01*
X15191547Y8807500D01*
X15208453D01*
X15224074Y8813970D01*
X15236031Y8825926D01*
X15242500Y8841546D01*
Y8858454D01*
X15236031Y8874074D01*
X15224074Y8886030D01*
X15208453Y8892500D01*
D02*
G37*
G36*
X15108453D02*
X15091547D01*
X15075926Y8886030D01*
X15063971Y8874074D01*
X15057500Y8858454D01*
Y8841546D01*
X15063971Y8825926D01*
X15075926Y8813970D01*
X15091547Y8807500D01*
X15108453D01*
X15124074Y8813970D01*
X15136031Y8825926D01*
X15142500Y8841546D01*
Y8858454D01*
X15136031Y8874074D01*
X15124074Y8886030D01*
X15108453Y8892500D01*
D02*
G37*
G36*
X15008453D02*
X14991547D01*
X14975926Y8886030D01*
X14963971Y8874074D01*
X14957500Y8858454D01*
Y8841546D01*
X14963971Y8825926D01*
X14975926Y8813970D01*
X14991547Y8807500D01*
X15008453D01*
X15024074Y8813970D01*
X15036031Y8825926D01*
X15042500Y8841546D01*
Y8858454D01*
X15036031Y8874074D01*
X15024074Y8886030D01*
X15008453Y8892500D01*
D02*
G37*
G36*
X14908453D02*
X14891547D01*
X14875926Y8886030D01*
X14863971Y8874074D01*
X14857500Y8858454D01*
Y8841546D01*
X14863971Y8825926D01*
X14875926Y8813970D01*
X14891547Y8807500D01*
X14908453D01*
X14924074Y8813970D01*
X14936031Y8825926D01*
X14942500Y8841546D01*
Y8858454D01*
X14936031Y8874074D01*
X14924074Y8886030D01*
X14908453Y8892500D01*
D02*
G37*
G36*
X13558453Y8792500D02*
X13541547D01*
X13525926Y8786030D01*
X13513969Y8774074D01*
X13507500Y8758454D01*
Y8741546D01*
X13513969Y8725926D01*
X13525926Y8713970D01*
X13541547Y8707500D01*
X13558453D01*
X13574074Y8713970D01*
X13586031Y8725926D01*
X13592500Y8741546D01*
Y8758454D01*
X13586031Y8774074D01*
X13574074Y8786030D01*
X13558453Y8792500D01*
D02*
G37*
G36*
X13058453Y8712500D02*
X13041547D01*
X13025926Y8706030D01*
X13013969Y8694074D01*
X13007500Y8678454D01*
Y8661547D01*
X13013969Y8645926D01*
X13025926Y8633971D01*
X13041547Y8627500D01*
X13058453D01*
X13074074Y8633971D01*
X13086031Y8645926D01*
X13092500Y8661547D01*
Y8678454D01*
X13086031Y8694074D01*
X13074074Y8706030D01*
X13058453Y8712500D01*
D02*
G37*
G36*
X12808453Y8692500D02*
X12791546D01*
X12775926Y8686030D01*
X12763970Y8674074D01*
X12757500Y8658454D01*
Y8641546D01*
X12763970Y8625926D01*
X12775926Y8613970D01*
X12791546Y8607500D01*
X12808453D01*
X12824074Y8613970D01*
X12836031Y8625926D01*
X12842500Y8641546D01*
Y8658454D01*
X12836031Y8674074D01*
X12824074Y8686030D01*
X12808453Y8692500D01*
D02*
G37*
G36*
X12608454D02*
X12591546D01*
X12575926Y8686030D01*
X12563970Y8674074D01*
X12557500Y8658454D01*
Y8641546D01*
X12563970Y8625926D01*
X12575926Y8613970D01*
X12591546Y8607500D01*
X12608454D01*
X12624074Y8613970D01*
X12636030Y8625926D01*
X12642500Y8641546D01*
Y8658454D01*
X12636030Y8674074D01*
X12624074Y8686030D01*
X12608454Y8692500D01*
D02*
G37*
G36*
X15758453Y8642500D02*
X15741547D01*
X15725926Y8636030D01*
X15713969Y8624074D01*
X15707500Y8608454D01*
Y8591546D01*
X15713969Y8575926D01*
X15725926Y8563970D01*
X15741547Y8557500D01*
X15758453D01*
X15774074Y8563970D01*
X15786031Y8575926D01*
X15792500Y8591546D01*
Y8608454D01*
X15786031Y8624074D01*
X15774074Y8636030D01*
X15758453Y8642500D01*
D02*
G37*
G36*
X15758453Y8542500D02*
X15741547D01*
X15725926Y8536030D01*
X15713971Y8524074D01*
X15707500Y8508454D01*
Y8491546D01*
X15713971Y8475926D01*
X15725926Y8463970D01*
X15741547Y8457500D01*
X15758453D01*
X15774074Y8463970D01*
X15786031Y8475926D01*
X15792500Y8491546D01*
Y8508454D01*
X15786031Y8524074D01*
X15774074Y8536030D01*
X15758453Y8542500D01*
D02*
G37*
G36*
X13208453D02*
X13191547D01*
X13175926Y8536030D01*
X13163969Y8524074D01*
X13157500Y8508454D01*
Y8491546D01*
X13163969Y8475926D01*
X13175926Y8463970D01*
X13191547Y8457500D01*
X13208453D01*
X13224074Y8463970D01*
X13236031Y8475926D01*
X13242500Y8491546D01*
Y8508454D01*
X13236031Y8524074D01*
X13224074Y8536030D01*
X13208453Y8542500D01*
D02*
G37*
G36*
X15758453Y8442500D02*
X15741547D01*
X15725926Y8436030D01*
X15713971Y8424074D01*
X15707500Y8408454D01*
Y8391546D01*
X15713971Y8375926D01*
X15725926Y8363970D01*
X15741547Y8357500D01*
X15758453D01*
X15774074Y8363970D01*
X15786031Y8375926D01*
X15792500Y8391546D01*
Y8408454D01*
X15786031Y8424074D01*
X15774074Y8436030D01*
X15758453Y8442500D01*
D02*
G37*
G36*
X14658453Y8392500D02*
X14641547D01*
X14625926Y8386030D01*
X14613969Y8374074D01*
X14607500Y8358454D01*
Y8341546D01*
X14613969Y8325926D01*
X14625926Y8313970D01*
X14641547Y8307500D01*
X14658453D01*
X14674074Y8313970D01*
X14686031Y8325926D01*
X14692500Y8341546D01*
Y8358454D01*
X14686031Y8374074D01*
X14674074Y8386030D01*
X14658453Y8392500D01*
D02*
G37*
G36*
X14558453D02*
X14541547D01*
X14525926Y8386030D01*
X14513969Y8374074D01*
X14507500Y8358454D01*
Y8341546D01*
X14513969Y8325926D01*
X14525926Y8313970D01*
X14541547Y8307500D01*
X14558453D01*
X14574074Y8313970D01*
X14586031Y8325926D01*
X14592500Y8341546D01*
Y8358454D01*
X14586031Y8374074D01*
X14574074Y8386030D01*
X14558453Y8392500D01*
D02*
G37*
G36*
X14458453D02*
X14441547D01*
X14425926Y8386030D01*
X14413969Y8374074D01*
X14407500Y8358454D01*
Y8341546D01*
X14413969Y8325926D01*
X14425926Y8313970D01*
X14441547Y8307500D01*
X14458453D01*
X14474074Y8313970D01*
X14486031Y8325926D01*
X14492500Y8341546D01*
Y8358454D01*
X14486031Y8374074D01*
X14474074Y8386030D01*
X14458453Y8392500D01*
D02*
G37*
G36*
X14358453D02*
X14341547D01*
X14325926Y8386030D01*
X14313969Y8374074D01*
X14307500Y8358454D01*
Y8341546D01*
X14313969Y8325926D01*
X14325926Y8313970D01*
X14341547Y8307500D01*
X14358453D01*
X14374074Y8313970D01*
X14386031Y8325926D01*
X14392500Y8341546D01*
Y8358454D01*
X14386031Y8374074D01*
X14374074Y8386030D01*
X14358453Y8392500D01*
D02*
G37*
G36*
X14258453D02*
X14241547D01*
X14225926Y8386030D01*
X14213969Y8374074D01*
X14207500Y8358454D01*
Y8341546D01*
X14213969Y8325926D01*
X14225926Y8313970D01*
X14241547Y8307500D01*
X14258453D01*
X14274074Y8313970D01*
X14286031Y8325926D01*
X14292500Y8341546D01*
Y8358454D01*
X14286031Y8374074D01*
X14274074Y8386030D01*
X14258453Y8392500D01*
D02*
G37*
G36*
X14158453D02*
X14141547D01*
X14125926Y8386030D01*
X14113969Y8374074D01*
X14107500Y8358454D01*
Y8341546D01*
X14113969Y8325926D01*
X14125926Y8313970D01*
X14141547Y8307500D01*
X14158453D01*
X14174074Y8313970D01*
X14186031Y8325926D01*
X14192500Y8341546D01*
Y8358454D01*
X14186031Y8374074D01*
X14174074Y8386030D01*
X14158453Y8392500D01*
D02*
G37*
G36*
X14058453D02*
X14041547D01*
X14025926Y8386030D01*
X14013969Y8374074D01*
X14007500Y8358454D01*
Y8341546D01*
X14013969Y8325926D01*
X14025926Y8313970D01*
X14041547Y8307500D01*
X14058453D01*
X14074074Y8313970D01*
X14086031Y8325926D01*
X14092500Y8341546D01*
Y8358454D01*
X14086031Y8374074D01*
X14074074Y8386030D01*
X14058453Y8392500D01*
D02*
G37*
G36*
X13958453D02*
X13941547D01*
X13925926Y8386030D01*
X13913969Y8374074D01*
X13907500Y8358454D01*
Y8341546D01*
X13913969Y8325926D01*
X13925926Y8313970D01*
X13941547Y8307500D01*
X13958453D01*
X13974074Y8313970D01*
X13986031Y8325926D01*
X13992500Y8341546D01*
Y8358454D01*
X13986031Y8374074D01*
X13974074Y8386030D01*
X13958453Y8392500D01*
D02*
G37*
G36*
X13858453D02*
X13841547D01*
X13825926Y8386030D01*
X13813969Y8374074D01*
X13807500Y8358454D01*
Y8341546D01*
X13813969Y8325926D01*
X13825926Y8313970D01*
X13841547Y8307500D01*
X13858453D01*
X13874074Y8313970D01*
X13886031Y8325926D01*
X13892500Y8341546D01*
Y8358454D01*
X13886031Y8374074D01*
X13874074Y8386030D01*
X13858453Y8392500D01*
D02*
G37*
G36*
X13758453D02*
X13741547D01*
X13725926Y8386030D01*
X13713969Y8374074D01*
X13707500Y8358454D01*
Y8341546D01*
X13713969Y8325926D01*
X13725926Y8313970D01*
X13741547Y8307500D01*
X13758453D01*
X13774074Y8313970D01*
X13786031Y8325926D01*
X13792500Y8341546D01*
Y8358454D01*
X13786031Y8374074D01*
X13774074Y8386030D01*
X13758453Y8392500D01*
D02*
G37*
G36*
X15758453Y8342500D02*
X15741547D01*
X15725926Y8336030D01*
X15713971Y8324074D01*
X15707500Y8308454D01*
Y8291547D01*
X15713971Y8275926D01*
X15725926Y8263971D01*
X15741547Y8257500D01*
X15758453D01*
X15774074Y8263971D01*
X15786031Y8275926D01*
X15792500Y8291547D01*
Y8308454D01*
X15786031Y8324074D01*
X15774074Y8336030D01*
X15758453Y8342500D01*
D02*
G37*
G36*
X14658453Y8292500D02*
X14641547D01*
X14625926Y8286030D01*
X14613969Y8274074D01*
X14607500Y8258454D01*
Y8241546D01*
X14613969Y8225926D01*
X14625926Y8213970D01*
X14641547Y8207500D01*
X14658453D01*
X14674074Y8213970D01*
X14686031Y8225926D01*
X14692500Y8241546D01*
Y8258454D01*
X14686031Y8274074D01*
X14674074Y8286030D01*
X14658453Y8292500D01*
D02*
G37*
G36*
X14558453D02*
X14541547D01*
X14525926Y8286030D01*
X14513969Y8274074D01*
X14507500Y8258454D01*
Y8241546D01*
X14513969Y8225926D01*
X14525926Y8213970D01*
X14541547Y8207500D01*
X14558453D01*
X14574074Y8213970D01*
X14586031Y8225926D01*
X14592500Y8241546D01*
Y8258454D01*
X14586031Y8274074D01*
X14574074Y8286030D01*
X14558453Y8292500D01*
D02*
G37*
G36*
X14458453D02*
X14441547D01*
X14425926Y8286030D01*
X14413969Y8274074D01*
X14407500Y8258454D01*
Y8241546D01*
X14413969Y8225926D01*
X14425926Y8213970D01*
X14441547Y8207500D01*
X14458453D01*
X14474074Y8213970D01*
X14486031Y8225926D01*
X14492500Y8241546D01*
Y8258454D01*
X14486031Y8274074D01*
X14474074Y8286030D01*
X14458453Y8292500D01*
D02*
G37*
G36*
X14358453D02*
X14341547D01*
X14325926Y8286030D01*
X14313969Y8274074D01*
X14307500Y8258454D01*
Y8241546D01*
X14313969Y8225926D01*
X14325926Y8213970D01*
X14341547Y8207500D01*
X14358453D01*
X14374074Y8213970D01*
X14386031Y8225926D01*
X14392500Y8241546D01*
Y8258454D01*
X14386031Y8274074D01*
X14374074Y8286030D01*
X14358453Y8292500D01*
D02*
G37*
G36*
X14258453D02*
X14241547D01*
X14225926Y8286030D01*
X14213969Y8274074D01*
X14207500Y8258454D01*
Y8241546D01*
X14213969Y8225926D01*
X14225926Y8213970D01*
X14241547Y8207500D01*
X14258453D01*
X14274074Y8213970D01*
X14286031Y8225926D01*
X14292500Y8241546D01*
Y8258454D01*
X14286031Y8274074D01*
X14274074Y8286030D01*
X14258453Y8292500D01*
D02*
G37*
G36*
X14158453D02*
X14141547D01*
X14125926Y8286030D01*
X14113969Y8274074D01*
X14107500Y8258454D01*
Y8241546D01*
X14113969Y8225926D01*
X14125926Y8213970D01*
X14141547Y8207500D01*
X14158453D01*
X14174074Y8213970D01*
X14186031Y8225926D01*
X14192500Y8241546D01*
Y8258454D01*
X14186031Y8274074D01*
X14174074Y8286030D01*
X14158453Y8292500D01*
D02*
G37*
G36*
X14058453D02*
X14041547D01*
X14025926Y8286030D01*
X14013969Y8274074D01*
X14007500Y8258454D01*
Y8241546D01*
X14013969Y8225926D01*
X14025926Y8213970D01*
X14041547Y8207500D01*
X14058453D01*
X14074074Y8213970D01*
X14086031Y8225926D01*
X14092500Y8241546D01*
Y8258454D01*
X14086031Y8274074D01*
X14074074Y8286030D01*
X14058453Y8292500D01*
D02*
G37*
G36*
X13958453D02*
X13941547D01*
X13925926Y8286030D01*
X13913969Y8274074D01*
X13907500Y8258454D01*
Y8241546D01*
X13913969Y8225926D01*
X13925926Y8213970D01*
X13941547Y8207500D01*
X13958453D01*
X13974074Y8213970D01*
X13986031Y8225926D01*
X13992500Y8241546D01*
Y8258454D01*
X13986031Y8274074D01*
X13974074Y8286030D01*
X13958453Y8292500D01*
D02*
G37*
G36*
X13858453D02*
X13841547D01*
X13825926Y8286030D01*
X13813969Y8274074D01*
X13807500Y8258454D01*
Y8241546D01*
X13813969Y8225926D01*
X13825926Y8213970D01*
X13841547Y8207500D01*
X13858453D01*
X13874074Y8213970D01*
X13886031Y8225926D01*
X13892500Y8241546D01*
Y8258454D01*
X13886031Y8274074D01*
X13874074Y8286030D01*
X13858453Y8292500D01*
D02*
G37*
G36*
X13758453D02*
X13741547D01*
X13725926Y8286030D01*
X13713969Y8274074D01*
X13707500Y8258454D01*
Y8241546D01*
X13713969Y8225926D01*
X13725926Y8213970D01*
X13741547Y8207500D01*
X13758453D01*
X13774074Y8213970D01*
X13786031Y8225926D01*
X13792500Y8241546D01*
Y8258454D01*
X13786031Y8274074D01*
X13774074Y8286030D01*
X13758453Y8292500D01*
D02*
G37*
G36*
X15758453Y8242500D02*
X15741547D01*
X15725926Y8236030D01*
X15713971Y8224074D01*
X15707500Y8208454D01*
Y8191546D01*
X15713971Y8175926D01*
X15725926Y8163970D01*
X15741547Y8157500D01*
X15758453D01*
X15774074Y8163970D01*
X15786031Y8175926D01*
X15792500Y8191546D01*
Y8208454D01*
X15786031Y8224074D01*
X15774074Y8236030D01*
X15758453Y8242500D01*
D02*
G37*
G36*
X15608453D02*
X15591547D01*
X15575926Y8236030D01*
X15563969Y8224074D01*
X15557500Y8208454D01*
Y8191546D01*
X15563969Y8175926D01*
X15575926Y8163970D01*
X15591547Y8157500D01*
X15608453D01*
X15624074Y8163970D01*
X15636031Y8175926D01*
X15642500Y8191546D01*
Y8208454D01*
X15636031Y8224074D01*
X15624074Y8236030D01*
X15608453Y8242500D01*
D02*
G37*
G36*
X15508453D02*
X15491547D01*
X15475926Y8236030D01*
X15463969Y8224074D01*
X15457500Y8208454D01*
Y8191546D01*
X15463969Y8175926D01*
X15475926Y8163970D01*
X15491547Y8157500D01*
X15508453D01*
X15524074Y8163970D01*
X15536031Y8175926D01*
X15542500Y8191546D01*
Y8208454D01*
X15536031Y8224074D01*
X15524074Y8236030D01*
X15508453Y8242500D01*
D02*
G37*
G36*
X15408453D02*
X15391547D01*
X15375926Y8236030D01*
X15363969Y8224074D01*
X15357500Y8208454D01*
Y8191546D01*
X15363969Y8175926D01*
X15375926Y8163970D01*
X15391547Y8157500D01*
X15408453D01*
X15424074Y8163970D01*
X15436031Y8175926D01*
X15442500Y8191546D01*
Y8208454D01*
X15436031Y8224074D01*
X15424074Y8236030D01*
X15408453Y8242500D01*
D02*
G37*
G36*
X15208453D02*
X15191547D01*
X15175926Y8236030D01*
X15163969Y8224074D01*
X15157500Y8208454D01*
Y8191546D01*
X15163969Y8175926D01*
X15175926Y8163970D01*
X15191547Y8157500D01*
X15208453D01*
X15224074Y8163970D01*
X15236029Y8175926D01*
X15242500Y8191546D01*
Y8208454D01*
X15236029Y8224074D01*
X15224074Y8236030D01*
X15208453Y8242500D01*
D02*
G37*
G36*
X14658453Y8192500D02*
X14641547D01*
X14625926Y8186030D01*
X14613969Y8174074D01*
X14607500Y8158454D01*
Y8141546D01*
X14613969Y8125926D01*
X14625926Y8113970D01*
X14641547Y8107500D01*
X14658453D01*
X14674074Y8113970D01*
X14686031Y8125926D01*
X14692500Y8141546D01*
Y8158454D01*
X14686031Y8174074D01*
X14674074Y8186030D01*
X14658453Y8192500D01*
D02*
G37*
G36*
X13748454D02*
X13731546D01*
X13715926Y8186030D01*
X13703970Y8174074D01*
X13697501Y8158454D01*
Y8141546D01*
X13703970Y8125926D01*
X13715926Y8113970D01*
X13731546Y8107500D01*
X13748454D01*
X13764075Y8113970D01*
X13776030Y8125926D01*
X13782500Y8141546D01*
Y8158454D01*
X13776030Y8174074D01*
X13764075Y8186030D01*
X13748454Y8192500D01*
D02*
G37*
G36*
X14308453Y8167500D02*
X14291547D01*
X14275926Y8161030D01*
X14263969Y8149074D01*
X14257500Y8133454D01*
Y8116547D01*
X14263969Y8100926D01*
X14275926Y8088971D01*
X14291547Y8082500D01*
X14308453D01*
X14324074Y8088971D01*
X14336031Y8100926D01*
X14342500Y8116547D01*
Y8133454D01*
X14336031Y8149074D01*
X14324074Y8161030D01*
X14308453Y8167500D01*
D02*
G37*
G36*
X14508453Y8167500D02*
X14491547D01*
X14475926Y8161030D01*
X14463969Y8149074D01*
X14457500Y8133454D01*
Y8116546D01*
X14463969Y8100926D01*
X14475926Y8088970D01*
X14491547Y8082500D01*
X14508453D01*
X14524074Y8088970D01*
X14536029Y8100926D01*
X14542499Y8116546D01*
Y8133454D01*
X14536029Y8149074D01*
X14524074Y8161030D01*
X14508453Y8167500D01*
D02*
G37*
G36*
X14108453D02*
X14091547D01*
X14075926Y8161030D01*
X14063969Y8149074D01*
X14057500Y8133454D01*
Y8116546D01*
X14063969Y8100926D01*
X14075926Y8088970D01*
X14091547Y8082500D01*
X14108453D01*
X14124074Y8088970D01*
X14136029Y8100926D01*
X14142500Y8116546D01*
Y8133454D01*
X14136029Y8149074D01*
X14124074Y8161030D01*
X14108453Y8167500D01*
D02*
G37*
G36*
X13908453D02*
X13891547D01*
X13875926Y8161030D01*
X13863969Y8149074D01*
X13857500Y8133454D01*
Y8116546D01*
X13863969Y8100926D01*
X13875926Y8088970D01*
X13891547Y8082500D01*
X13908453D01*
X13924074Y8088970D01*
X13936029Y8100926D01*
X13942499Y8116546D01*
Y8133454D01*
X13936029Y8149074D01*
X13924074Y8161030D01*
X13908453Y8167500D01*
D02*
G37*
G36*
X15758453Y8142500D02*
X15741547D01*
X15725926Y8136030D01*
X15713971Y8124074D01*
X15707500Y8108454D01*
Y8091546D01*
X15713971Y8075926D01*
X15725926Y8063970D01*
X15741547Y8057500D01*
X15758453D01*
X15774074Y8063970D01*
X15786031Y8075926D01*
X15792500Y8091546D01*
Y8108454D01*
X15786031Y8124074D01*
X15774074Y8136030D01*
X15758453Y8142500D01*
D02*
G37*
G36*
X15608453D02*
X15591547D01*
X15575926Y8136030D01*
X15563969Y8124074D01*
X15557500Y8108454D01*
Y8091546D01*
X15563969Y8075926D01*
X15575926Y8063970D01*
X15591547Y8057500D01*
X15608453D01*
X15624074Y8063970D01*
X15636031Y8075926D01*
X15642500Y8091546D01*
Y8108454D01*
X15636031Y8124074D01*
X15624074Y8136030D01*
X15608453Y8142500D01*
D02*
G37*
G36*
X15508453D02*
X15491547D01*
X15475926Y8136030D01*
X15463969Y8124074D01*
X15457500Y8108454D01*
Y8091546D01*
X15463969Y8075926D01*
X15475926Y8063970D01*
X15491547Y8057500D01*
X15508453D01*
X15524074Y8063970D01*
X15536031Y8075926D01*
X15542500Y8091546D01*
Y8108454D01*
X15536031Y8124074D01*
X15524074Y8136030D01*
X15508453Y8142500D01*
D02*
G37*
G36*
X15408453D02*
X15391547D01*
X15375926Y8136030D01*
X15363969Y8124074D01*
X15357500Y8108454D01*
Y8091546D01*
X15363969Y8075926D01*
X15375926Y8063970D01*
X15391547Y8057500D01*
X15408453D01*
X15424074Y8063970D01*
X15436031Y8075926D01*
X15442500Y8091546D01*
Y8108454D01*
X15436031Y8124074D01*
X15424074Y8136030D01*
X15408453Y8142500D01*
D02*
G37*
G36*
X15133453Y8042500D02*
X15116547D01*
X15100926Y8036030D01*
X15088971Y8024074D01*
X15082500Y8008454D01*
Y7991547D01*
X15088971Y7975926D01*
X15100926Y7963971D01*
X15116547Y7957500D01*
X15133453D01*
X15149074Y7963971D01*
X15161031Y7975926D01*
X15167500Y7991547D01*
Y8008454D01*
X15161031Y8024074D01*
X15149074Y8036030D01*
X15133453Y8042500D01*
D02*
G37*
G36*
X15758453Y8042500D02*
X15741547D01*
X15725926Y8036030D01*
X15713971Y8024074D01*
X15707500Y8008454D01*
Y7991546D01*
X15713971Y7975926D01*
X15725926Y7963970D01*
X15741547Y7957500D01*
X15758453D01*
X15774074Y7963970D01*
X15786031Y7975926D01*
X15792500Y7991546D01*
Y8008454D01*
X15786031Y8024074D01*
X15774074Y8036030D01*
X15758453Y8042500D01*
D02*
G37*
G36*
X15608453Y8042500D02*
X15591547D01*
X15575926Y8036029D01*
X15563969Y8024074D01*
X15557500Y8008453D01*
Y7991546D01*
X15563969Y7975926D01*
X15575926Y7963970D01*
X15591547Y7957500D01*
X15608453D01*
X15624074Y7963970D01*
X15636029Y7975926D01*
X15642500Y7991546D01*
Y8008453D01*
X15636029Y8024074D01*
X15624074Y8036029D01*
X15608453Y8042500D01*
D02*
G37*
G36*
X15508453D02*
X15491547D01*
X15475926Y8036029D01*
X15463969Y8024074D01*
X15457500Y8008453D01*
Y7991546D01*
X15463969Y7975926D01*
X15475926Y7963970D01*
X15491547Y7957500D01*
X15508453D01*
X15524074Y7963970D01*
X15536029Y7975926D01*
X15542500Y7991546D01*
Y8008453D01*
X15536029Y8024074D01*
X15524074Y8036029D01*
X15508453Y8042500D01*
D02*
G37*
G36*
X15408453D02*
X15391547D01*
X15375926Y8036029D01*
X15363969Y8024074D01*
X15357500Y8008453D01*
Y7991546D01*
X15363969Y7975926D01*
X15375926Y7963970D01*
X15391547Y7957500D01*
X15408453D01*
X15424074Y7963970D01*
X15436031Y7975926D01*
X15442500Y7991546D01*
Y8008453D01*
X15436031Y8024074D01*
X15424074Y8036029D01*
X15408453Y8042500D01*
D02*
G37*
G36*
X15758453Y7942500D02*
X15741547D01*
X15725926Y7936030D01*
X15713971Y7924074D01*
X15707500Y7908454D01*
Y7891546D01*
X15713971Y7875926D01*
X15725926Y7863970D01*
X15741547Y7857500D01*
X15758453D01*
X15774074Y7863970D01*
X15786031Y7875926D01*
X15792500Y7891546D01*
Y7908454D01*
X15786031Y7924074D01*
X15774074Y7936030D01*
X15758453Y7942500D01*
D02*
G37*
G36*
X15658453Y7842500D02*
X15641547D01*
X15625926Y7836030D01*
X15613971Y7824074D01*
X15607500Y7808454D01*
Y7791547D01*
X15613971Y7775926D01*
X15625926Y7763971D01*
X15641547Y7757500D01*
X15658453D01*
X15674074Y7763971D01*
X15686031Y7775926D01*
X15692500Y7791547D01*
Y7808454D01*
X15686031Y7824074D01*
X15674074Y7836030D01*
X15658453Y7842500D01*
D02*
G37*
G36*
X15558453D02*
X15541547D01*
X15525926Y7836030D01*
X15513969Y7824074D01*
X15507500Y7808454D01*
Y7791547D01*
X15513969Y7775926D01*
X15525926Y7763971D01*
X15541547Y7757500D01*
X15558453D01*
X15574074Y7763971D01*
X15586031Y7775926D01*
X15592500Y7791547D01*
Y7808454D01*
X15586031Y7824074D01*
X15574074Y7836030D01*
X15558453Y7842500D01*
D02*
G37*
G36*
X15458453D02*
X15441547D01*
X15425926Y7836030D01*
X15413969Y7824074D01*
X15407500Y7808454D01*
Y7791547D01*
X15413969Y7775926D01*
X15425926Y7763971D01*
X15441547Y7757500D01*
X15458453D01*
X15474074Y7763971D01*
X15486031Y7775926D01*
X15492500Y7791547D01*
Y7808454D01*
X15486031Y7824074D01*
X15474074Y7836030D01*
X15458453Y7842500D01*
D02*
G37*
G36*
X15358453D02*
X15341547D01*
X15325926Y7836030D01*
X15313971Y7824074D01*
X15307501Y7808454D01*
Y7791547D01*
X15313971Y7775926D01*
X15325926Y7763971D01*
X15341547Y7757500D01*
X15358453D01*
X15374074Y7763971D01*
X15386031Y7775926D01*
X15392500Y7791547D01*
Y7808454D01*
X15386031Y7824074D01*
X15374074Y7836030D01*
X15358453Y7842500D01*
D02*
G37*
G36*
X15758453Y7842500D02*
X15741547D01*
X15725926Y7836030D01*
X15713969Y7824074D01*
X15707500Y7808454D01*
Y7791546D01*
X15713969Y7775926D01*
X15725926Y7763970D01*
X15741547Y7757500D01*
X15758453D01*
X15774074Y7763970D01*
X15786031Y7775926D01*
X15792500Y7791546D01*
Y7808454D01*
X15786031Y7824074D01*
X15774074Y7836030D01*
X15758453Y7842500D01*
D02*
G37*
G36*
X15708453Y7742500D02*
X15691547D01*
X15675926Y7736030D01*
X15663969Y7724074D01*
X15657500Y7708454D01*
Y7691546D01*
X15663969Y7675926D01*
X15675926Y7663970D01*
X15691547Y7657500D01*
X15708453D01*
X15724074Y7663970D01*
X15736031Y7675926D01*
X15742500Y7691546D01*
Y7708454D01*
X15736031Y7724074D01*
X15724074Y7736030D01*
X15708453Y7742500D01*
D02*
G37*
G36*
X15608453D02*
X15591547D01*
X15575926Y7736030D01*
X15563971Y7724074D01*
X15557501Y7708454D01*
Y7691546D01*
X15563971Y7675926D01*
X15575926Y7663970D01*
X15591547Y7657500D01*
X15608453D01*
X15624074Y7663970D01*
X15636031Y7675926D01*
X15642500Y7691546D01*
Y7708454D01*
X15636031Y7724074D01*
X15624074Y7736030D01*
X15608453Y7742500D01*
D02*
G37*
G36*
X15508453D02*
X15491547D01*
X15475926Y7736030D01*
X15463971Y7724074D01*
X15457500Y7708454D01*
Y7691546D01*
X15463971Y7675926D01*
X15475926Y7663970D01*
X15491547Y7657500D01*
X15508453D01*
X15524074Y7663970D01*
X15536031Y7675926D01*
X15542500Y7691546D01*
Y7708454D01*
X15536031Y7724074D01*
X15524074Y7736030D01*
X15508453Y7742500D01*
D02*
G37*
G36*
X15408453D02*
X15391547D01*
X15375926Y7736030D01*
X15363971Y7724074D01*
X15357500Y7708454D01*
Y7691546D01*
X15363971Y7675926D01*
X15375926Y7663970D01*
X15391547Y7657500D01*
X15408453D01*
X15424074Y7663970D01*
X15436031Y7675926D01*
X15442500Y7691546D01*
Y7708454D01*
X15436031Y7724074D01*
X15424074Y7736030D01*
X15408453Y7742500D01*
D02*
G37*
G36*
X15308453D02*
X15291547D01*
X15275926Y7736030D01*
X15263969Y7724074D01*
X15257500Y7708454D01*
Y7691546D01*
X15263969Y7675926D01*
X15275926Y7663970D01*
X15291547Y7657500D01*
X15308453D01*
X15324074Y7663970D01*
X15336031Y7675926D01*
X15342500Y7691546D01*
Y7708454D01*
X15336031Y7724074D01*
X15324074Y7736030D01*
X15308453Y7742500D01*
D02*
G37*
G36*
X13708453Y7717500D02*
X13691547D01*
X13675928Y7711030D01*
X13663971Y7699074D01*
X13657501Y7683454D01*
Y7666546D01*
X13663971Y7650926D01*
X13675928Y7638970D01*
X13691547Y7632500D01*
X13708453D01*
X13724075Y7638970D01*
X13736031Y7650926D01*
X13742500Y7666546D01*
Y7683454D01*
X13736031Y7699074D01*
X13724075Y7711030D01*
X13708453Y7717500D01*
D02*
G37*
G36*
X15608453Y7642500D02*
X15591547D01*
X15575926Y7636030D01*
X15563971Y7624074D01*
X15557501Y7608454D01*
Y7591546D01*
X15563971Y7575926D01*
X15575926Y7563970D01*
X15591547Y7557500D01*
X15608453D01*
X15624074Y7563970D01*
X15636031Y7575926D01*
X15642500Y7591546D01*
Y7608454D01*
X15636031Y7624074D01*
X15624074Y7636030D01*
X15608453Y7642500D01*
D02*
G37*
G36*
X15508453D02*
X15491547D01*
X15475926Y7636030D01*
X15463971Y7624074D01*
X15457500Y7608454D01*
Y7591546D01*
X15463971Y7575926D01*
X15475926Y7563970D01*
X15491547Y7557500D01*
X15508453D01*
X15524074Y7563970D01*
X15536031Y7575926D01*
X15542500Y7591546D01*
Y7608454D01*
X15536031Y7624074D01*
X15524074Y7636030D01*
X15508453Y7642500D01*
D02*
G37*
G36*
X15408453D02*
X15391547D01*
X15375926Y7636030D01*
X15363971Y7624074D01*
X15357500Y7608454D01*
Y7591546D01*
X15363971Y7575926D01*
X15375926Y7563970D01*
X15391547Y7557500D01*
X15408453D01*
X15424074Y7563970D01*
X15436031Y7575926D01*
X15442500Y7591546D01*
Y7608454D01*
X15436031Y7624074D01*
X15424074Y7636030D01*
X15408453Y7642500D01*
D02*
G37*
G36*
X15308453D02*
X15291547D01*
X15275926Y7636030D01*
X15263969Y7624074D01*
X15257500Y7608454D01*
Y7591546D01*
X15263969Y7575926D01*
X15275926Y7563970D01*
X15291547Y7557500D01*
X15308453D01*
X15324074Y7563970D01*
X15336031Y7575926D01*
X15342500Y7591546D01*
Y7608454D01*
X15336031Y7624074D01*
X15324074Y7636030D01*
X15308453Y7642500D01*
D02*
G37*
G36*
X15458453Y7542500D02*
X15441547D01*
X15425926Y7536030D01*
X15413969Y7524074D01*
X15407500Y7508454D01*
Y7491546D01*
X15413969Y7475926D01*
X15425926Y7463970D01*
X15441547Y7457500D01*
X15458453D01*
X15474074Y7463970D01*
X15486031Y7475926D01*
X15492500Y7491546D01*
Y7508454D01*
X15486031Y7524074D01*
X15474074Y7536030D01*
X15458453Y7542500D01*
D02*
G37*
G36*
X15358453D02*
X15341547D01*
X15325926Y7536030D01*
X15313971Y7524074D01*
X15307501Y7508454D01*
Y7491546D01*
X15313971Y7475926D01*
X15325926Y7463970D01*
X15341547Y7457500D01*
X15358453D01*
X15374074Y7463970D01*
X15386031Y7475926D01*
X15392500Y7491546D01*
Y7508454D01*
X15386031Y7524074D01*
X15374074Y7536030D01*
X15358453Y7542500D01*
D02*
G37*
G36*
Y7442500D02*
X15341547D01*
X15325926Y7436030D01*
X15313971Y7424074D01*
X15307501Y7408454D01*
Y7391546D01*
X15313971Y7375926D01*
X15325926Y7363970D01*
X15341547Y7357500D01*
X15358453D01*
X15374074Y7363970D01*
X15386031Y7375926D01*
X15392500Y7391546D01*
Y7408454D01*
X15386031Y7424074D01*
X15374074Y7436030D01*
X15358453Y7442500D01*
D02*
G37*
G36*
X14421667Y7670000D02*
X14378333D01*
X14335828Y7661546D01*
X14295792Y7644961D01*
X14259758Y7620885D01*
X14229115Y7590242D01*
X14205038Y7554209D01*
X14188454Y7514172D01*
X14180000Y7471668D01*
Y7428332D01*
X14188454Y7385829D01*
X14205038Y7345791D01*
X14229115Y7309758D01*
X14259758Y7279115D01*
X14295792Y7255039D01*
X14335828Y7238455D01*
X14378333Y7230000D01*
X14421667D01*
X14464171Y7238455D01*
X14504208Y7255039D01*
X14540242Y7279115D01*
X14570885Y7309758D01*
X14594962Y7345791D01*
X14611545Y7385829D01*
X14620000Y7428332D01*
Y7471668D01*
X14611545Y7514172D01*
X14594962Y7554209D01*
X14570885Y7590242D01*
X14540242Y7620885D01*
X14504208Y7644961D01*
X14464171Y7661546D01*
X14421667Y7670000D01*
D02*
G37*
G36*
X10142836Y10891500D02*
X10117164D01*
X10092366Y10884855D01*
X10070134Y10872019D01*
X10051980Y10853866D01*
X10039145Y10831633D01*
X10032500Y10806836D01*
Y10781164D01*
X10038878Y10757359D01*
X10035433Y10745609D01*
Y10745609D01*
X10035433Y10745608D01*
D01*
X10032832Y10741900D01*
X10028837Y10741900D01*
X9862100D01*
Y10566100D01*
X10037900D01*
Y10731218D01*
X10037900Y10733121D01*
X10043073Y10734507D01*
Y10734507D01*
X10043074Y10734508D01*
Y10734507D01*
X10054914Y10731200D01*
X10070134Y10715980D01*
X10092366Y10703144D01*
X10117164Y10696500D01*
X10142836D01*
X10167633Y10703144D01*
X10189866Y10715980D01*
X10208019Y10734133D01*
X10220855Y10756366D01*
X10227500Y10781164D01*
Y10806836D01*
X10220855Y10831633D01*
X10208019Y10853866D01*
X10189866Y10872019D01*
X10167633Y10884855D01*
X10142836Y10891500D01*
D02*
G37*
G36*
X10334499Y11050980D02*
X10100000D01*
X10080491Y11047099D01*
X10063952Y11036048D01*
X10052901Y11019509D01*
X10049021Y11000000D01*
X10052901Y10980491D01*
X10063952Y10963952D01*
X10080491Y10952901D01*
X10100000Y10949021D01*
X10313383D01*
X10507499Y10754905D01*
X10524038Y10743854D01*
X10543547Y10739973D01*
X10605764D01*
X10625273Y10743854D01*
X10641812Y10754905D01*
X10652863Y10771444D01*
X10656744Y10790953D01*
X10652863Y10810461D01*
X10641812Y10827000D01*
X10625273Y10838051D01*
X10605764Y10841932D01*
X10564663D01*
X10370547Y11036048D01*
X10354008Y11047099D01*
X10334499Y11050980D01*
D02*
G37*
G36*
X10215572Y10614900D02*
X10192428D01*
X10170072Y10608909D01*
X10150028Y10597337D01*
X10133662Y10580972D01*
X10122090Y10560928D01*
X10116100Y10538572D01*
Y10515428D01*
X10122090Y10493072D01*
X10133662Y10473028D01*
X10150028Y10456662D01*
X10170072Y10445090D01*
X10192428Y10439100D01*
X10215572D01*
X10237928Y10445090D01*
X10257972Y10456662D01*
X10274337Y10473028D01*
X10285910Y10493072D01*
X10291900Y10515428D01*
Y10538572D01*
X10285910Y10560928D01*
X10274337Y10580972D01*
X10257972Y10597337D01*
X10237928Y10608909D01*
X10215572Y10614900D01*
D02*
G37*
G36*
Y10360900D02*
X10192428D01*
X10170072Y10354909D01*
X10150028Y10343337D01*
X10133662Y10326972D01*
X10122090Y10306928D01*
X10116100Y10284572D01*
Y10261428D01*
X10122090Y10239072D01*
X10133662Y10219028D01*
X10150028Y10202662D01*
X10170072Y10191090D01*
X10192428Y10185100D01*
X10215572D01*
X10237928Y10191090D01*
X10257972Y10202662D01*
X10274337Y10219028D01*
X10285910Y10239072D01*
X10291900Y10261428D01*
Y10284572D01*
X10285910Y10306928D01*
X10274337Y10326972D01*
X10257972Y10343337D01*
X10237928Y10354909D01*
X10215572Y10360900D01*
D02*
G37*
G36*
X10188679Y9930050D02*
X10180134Y9929302D01*
X10171553D01*
X10167394Y9928188D01*
X10163104Y9927813D01*
X10155041Y9924878D01*
X10146755Y9922658D01*
X10143027Y9920505D01*
X10138980Y9919032D01*
X10131953Y9914111D01*
X10124523Y9909822D01*
X10121478Y9906776D01*
X10117951Y9904307D01*
X10112436Y9897735D01*
X10106370Y9891669D01*
X10104217Y9887940D01*
X10101449Y9884641D01*
X10097823Y9876865D01*
X10093534Y9869436D01*
X10092419Y9865277D01*
X10090599Y9861374D01*
X10089110Y9852925D01*
X10086889Y9844638D01*
Y9840332D01*
X10086142Y9836092D01*
X10086889Y9827547D01*
Y9818966D01*
X10088004Y9814807D01*
X10088379Y9810517D01*
X10091314Y9802455D01*
X10093534Y9794169D01*
X10095687Y9790440D01*
X10097159Y9786393D01*
X10102080Y9779366D01*
X10106370Y9771936D01*
X10109415Y9768891D01*
X10111595Y9765777D01*
X10112284Y9753641D01*
D01*
X10111568Y9750624D01*
X10110778Y9749567D01*
X10108961Y9748905D01*
X9950465Y9691217D01*
X10010592Y9526019D01*
X10175790Y9586146D01*
X10119960Y9739536D01*
X10121128Y9741183D01*
X10131550Y9748862D01*
X10139327Y9745236D01*
X10146755Y9740947D01*
X10150914Y9739833D01*
X10154817Y9738013D01*
X10163266Y9736523D01*
X10171553Y9734302D01*
X10175860D01*
X10180099Y9733555D01*
X10188645Y9734302D01*
X10197225D01*
X10201384Y9735417D01*
X10205674Y9735792D01*
X10213737Y9738727D01*
X10222023Y9740947D01*
X10225751Y9743100D01*
X10229798Y9744573D01*
X10236825Y9749493D01*
X10244255Y9753783D01*
X10247301Y9756828D01*
X10250828Y9759298D01*
X10256342Y9765870D01*
X10262408Y9771936D01*
X10264561Y9775665D01*
X10267329Y9778963D01*
X10270956Y9786740D01*
X10275244Y9794169D01*
X10276359Y9798327D01*
X10278179Y9802231D01*
X10279669Y9810679D01*
X10281889Y9818966D01*
Y9823273D01*
X10282637Y9827512D01*
X10281889Y9836058D01*
Y9844638D01*
X10280774Y9848797D01*
X10280399Y9853087D01*
X10277465Y9861150D01*
X10275244Y9869436D01*
X10273091Y9873165D01*
X10271619Y9877211D01*
X10266698Y9884238D01*
X10262408Y9891669D01*
X10259363Y9894714D01*
X10256894Y9898241D01*
X10250322Y9903755D01*
X10244255Y9909822D01*
X10240527Y9911974D01*
X10237228Y9914742D01*
X10229451Y9918369D01*
X10222023Y9922658D01*
X10217864Y9923772D01*
X10213961Y9925592D01*
X10205512Y9927082D01*
X10197225Y9929302D01*
X10192918D01*
X10188679Y9930050D01*
D02*
G37*
G36*
X10349113Y9694788D02*
X10326057Y9692771D01*
X10304308Y9684855D01*
X10285349Y9671580D01*
X10270472Y9653850D01*
X10260691Y9632874D01*
X10256672Y9610081D01*
X10258689Y9587025D01*
X10266605Y9565276D01*
X10279880Y9546317D01*
X10297610Y9531440D01*
X10318585Y9521659D01*
X10341379Y9517640D01*
X10364435Y9519657D01*
X10386184Y9527573D01*
X10405143Y9540848D01*
X10420020Y9558578D01*
X10429801Y9579554D01*
X10433820Y9602347D01*
X10431803Y9625403D01*
X10423887Y9647152D01*
X10410612Y9666111D01*
X10392882Y9680988D01*
X10371906Y9690769D01*
X10349113Y9694788D01*
D02*
G37*
G36*
X10435986Y9456106D02*
X10412930Y9454089D01*
X10391181Y9446173D01*
X10372222Y9432898D01*
X10357345Y9415168D01*
X10347564Y9394192D01*
X10343545Y9371399D01*
X10345562Y9348343D01*
X10353478Y9326594D01*
X10366753Y9307635D01*
X10384483Y9292758D01*
X10405458Y9282977D01*
X10428252Y9278958D01*
X10451308Y9280975D01*
X10473057Y9288891D01*
X10492016Y9302166D01*
X10506893Y9319896D01*
X10516674Y9340872D01*
X10520693Y9363665D01*
X10518676Y9386721D01*
X10510760Y9408470D01*
X10497485Y9427429D01*
X10479755Y9442306D01*
X10458779Y9452087D01*
X10435986Y9456106D01*
D02*
G37*
G36*
X10654131Y8849791D02*
X10649890Y8849043D01*
X10645584D01*
X10637298Y8846823D01*
X10628849Y8845333D01*
X10624945Y8843512D01*
X10620787Y8842398D01*
X10613357Y8838109D01*
X10605582Y8834483D01*
X10602283Y8831715D01*
X10598554Y8829562D01*
X10592487Y8823495D01*
X10585916Y8817981D01*
X10583446Y8814454D01*
X10580401Y8811409D01*
X10576111Y8803979D01*
X10571191Y8796952D01*
X10569718Y8792905D01*
X10567565Y8789176D01*
X10565345Y8780890D01*
X10562410Y8772828D01*
X10562035Y8768538D01*
X10560920Y8764379D01*
Y8755800D01*
X10560173Y8747253D01*
X10560920Y8743012D01*
Y8738707D01*
X10563141Y8730421D01*
X10564631Y8721971D01*
X10566451Y8718068D01*
X10567565Y8713909D01*
X10571854Y8706480D01*
X10575480Y8698704D01*
X10578248Y8695406D01*
X10580401Y8691677D01*
X10586468Y8685610D01*
X10591982Y8679038D01*
X10595509Y8676568D01*
X10598554Y8673523D01*
X10605984Y8669234D01*
X10613012Y8664313D01*
X10617058Y8662840D01*
X10620787Y8660688D01*
X10629073Y8658467D01*
X10637135Y8655533D01*
X10641426Y8655157D01*
X10645584Y8654043D01*
X10654163D01*
X10662710Y8653295D01*
X10666951Y8654043D01*
X10671257D01*
X10679543Y8656263D01*
X10687992Y8657753D01*
X10691895Y8659573D01*
X10696054Y8660688D01*
X10703484Y8664977D01*
X10711259Y8668603D01*
X10714557Y8671370D01*
X10718287Y8673523D01*
X10724353Y8679590D01*
X10730925Y8685105D01*
X10733395Y8688632D01*
X10736440Y8691677D01*
X10740730Y8699107D01*
X10745650Y8706134D01*
X10747123Y8710180D01*
X10749276Y8713909D01*
X10751496Y8722195D01*
X10754431Y8730258D01*
X10754806Y8734548D01*
X10755920Y8738707D01*
Y8747285D01*
X10756668Y8755832D01*
X10755920Y8760073D01*
Y8764379D01*
X10753700Y8772665D01*
X10752210Y8781115D01*
X10750390Y8785018D01*
X10749276Y8789176D01*
X10744986Y8796606D01*
X10741361Y8804381D01*
X10738593Y8807680D01*
X10736440Y8811409D01*
X10730373Y8817476D01*
X10724859Y8824048D01*
X10721332Y8826517D01*
X10718287Y8829562D01*
X10710857Y8833852D01*
X10703829Y8838773D01*
X10699783Y8840245D01*
X10696054Y8842398D01*
X10687768Y8844618D01*
X10679705Y8847553D01*
X10675415Y8847928D01*
X10671257Y8849043D01*
X10662678D01*
X10654131Y8849791D01*
D02*
G37*
G36*
X10882865Y8683149D02*
X10860072Y8679130D01*
X10839096Y8669349D01*
X10821366Y8654472D01*
X10808091Y8635513D01*
X10800175Y8613764D01*
X10798158Y8590708D01*
X10802177Y8567915D01*
X10811958Y8546939D01*
X10826835Y8529209D01*
X10845794Y8515934D01*
X10867543Y8508018D01*
X10890599Y8506001D01*
X10913392Y8510020D01*
X10934368Y8519801D01*
X10952098Y8534678D01*
X10965373Y8553637D01*
X10973289Y8575386D01*
X10975306Y8598442D01*
X10971287Y8621235D01*
X10961506Y8642211D01*
X10946629Y8659941D01*
X10927670Y8673216D01*
X10905921Y8681132D01*
X10882865Y8683149D01*
D02*
G37*
G36*
X11046133Y8488574D02*
X11023340Y8484555D01*
X11002364Y8474774D01*
X10984634Y8459897D01*
X10971359Y8440938D01*
X10963443Y8419189D01*
X10961426Y8396133D01*
X10965445Y8373340D01*
X10975226Y8352364D01*
X10990103Y8334634D01*
X11009062Y8321359D01*
X11030811Y8313443D01*
X11053867Y8311426D01*
X11076660Y8315445D01*
X11097636Y8325226D01*
X11115366Y8340103D01*
X11128641Y8359062D01*
X11136557Y8380811D01*
X11138574Y8403867D01*
X11134555Y8426660D01*
X11124774Y8447636D01*
X11109897Y8465366D01*
X11090938Y8478641D01*
X11069189Y8486557D01*
X11046133Y8488574D01*
D02*
G37*
G36*
X10769924Y8422594D02*
X10747131Y8418575D01*
X10726155Y8408793D01*
X10708425Y8393916D01*
X10695150Y8374958D01*
X10687234Y8353209D01*
X10685217Y8330153D01*
X10689236Y8307360D01*
X10699017Y8286383D01*
X10713894Y8268654D01*
X10732853Y8255379D01*
X10754602Y8247463D01*
X10777658Y8245446D01*
X10800451Y8249465D01*
X10821427Y8259246D01*
X10839157Y8274123D01*
X10852432Y8293082D01*
X10860348Y8314830D01*
X10862365Y8337887D01*
X10858346Y8360680D01*
X10848565Y8381656D01*
X10833688Y8399386D01*
X10814729Y8412661D01*
X10792980Y8420577D01*
X10769924Y8422594D01*
D02*
G37*
%LPD*%
D11*
X12730000Y11650000D02*
D03*
X12870000D02*
D03*
D27*
X12549999Y8375000D02*
D03*
Y8225000D02*
D03*
X12349999Y8375000D02*
D03*
Y8225000D02*
D03*
X13150000D02*
D03*
Y8375000D02*
D03*
X12950000Y8225000D02*
D03*
Y8375000D02*
D03*
X12750000Y8225000D02*
D03*
Y8375000D02*
D03*
X11200000Y9375000D02*
D03*
Y9525000D02*
D03*
X10800000Y9375000D02*
D03*
Y9525000D02*
D03*
X11000000Y9375000D02*
D03*
Y9525000D02*
D03*
X11400000Y9375000D02*
D03*
Y9525000D02*
D03*
X11600000Y9375000D02*
D03*
Y9525000D02*
D03*
X12000000Y8525000D02*
D03*
Y8675000D02*
D03*
X12200000Y8525000D02*
D03*
Y8675000D02*
D03*
X11400000Y8525000D02*
D03*
Y8675000D02*
D03*
X11800000Y8525000D02*
D03*
Y8675000D02*
D03*
X11600000Y8525000D02*
D03*
Y8675000D02*
D03*
D37*
X12730000Y11650000D02*
X12730000Y11650000D01*
X12505200Y11650000D02*
X12730000D01*
X12455200Y11600000D02*
X12505200Y11650000D01*
X12347500Y11600000D02*
X12455200D01*
X10605764Y10790953D02*
X10606729Y10791917D01*
X10608082D01*
X10423790Y12765980D02*
X10423790D01*
D38*
X12200000Y9550000D02*
X12497970D01*
X12547970Y9500000D01*
X12850000D01*
X11000000Y10150000D02*
X11005000Y10155000D01*
X11545000D01*
X10100000Y11000000D02*
X10334499D01*
X10543547Y10790953D01*
X11545000Y10155000D02*
X11650000Y10050000D01*
X10543547Y10790953D02*
X10605764D01*
D41*
X12292300Y10807700D02*
X12550000Y10550000D01*
X12292300Y11759035D02*
X12360400Y11827135D01*
X12246900Y12002100D02*
X12294800Y12050000D01*
X12246900Y10753100D02*
X12498550Y10501450D01*
X12292300Y10807700D02*
Y11759035D01*
X12246900Y10753100D02*
Y12002100D01*
X12360400Y11827135D02*
Y12610400D01*
X12750000Y13000000D01*
X13500000Y12134233D02*
Y13550000D01*
X13210635Y11844869D02*
X13500000Y12134233D01*
Y13550000D02*
X13600000Y13650000D01*
X12646101Y13503899D02*
Y13553899D01*
X12200000Y13850000D02*
X12350000D01*
X12646101Y13553899D01*
X11127135Y13655200D02*
X12344800D01*
X12700000Y13300000D01*
X12570000Y13501935D02*
Y13520000D01*
Y13501935D02*
X12623236Y13448698D01*
X12550000Y10350000D02*
Y10550000D01*
X12498550Y10403750D02*
Y10501450D01*
X12278429Y10300000D02*
X12500000D01*
X12550000Y10350000D01*
X12369200Y10402735D02*
X12427065D01*
X12150000Y10621935D02*
X12369200Y10402735D01*
X12494800Y10400000D02*
X12498550Y10403750D01*
X12427065Y10402735D02*
X12429800Y10400000D01*
X12253790Y10324640D02*
X12278429Y10300000D01*
X12253750Y10324640D02*
X12253790D01*
X12140000Y13160001D02*
X12360400Y12939600D01*
Y12877136D02*
Y12939600D01*
X12300000Y12900000D02*
X12305200D01*
X12280304Y12527135D02*
Y12797040D01*
X12150000Y12469900D02*
X12225104Y12545004D01*
X12200000Y12053344D02*
X12250000Y12103344D01*
X12225104Y12545004D02*
Y12550000D01*
X12000000Y12600000D02*
X12300000Y12900000D01*
X12280304Y12797040D02*
X12360400Y12877136D01*
X11950000Y12700000D02*
X12194800Y12944800D01*
X12250000Y12103344D02*
Y12496831D01*
X12280304Y12527135D01*
X12200000Y10650000D02*
Y12053344D01*
Y10650000D02*
X12350000Y10500000D01*
X12150000Y10621935D02*
Y12469900D01*
X13099673Y11844869D02*
X13210635D01*
X11413500Y11036500D02*
X11417250Y11040250D01*
X11440250D01*
X11678100Y11278100D02*
Y12075568D01*
X11440250Y11040250D02*
X11678100Y11278100D01*
X10363500Y11886500D02*
X10857299Y12380299D01*
X10902234D02*
X10905984Y12384049D01*
X10857299Y12380299D02*
X10902234D01*
X13000000Y13650000D02*
X13100000D01*
X12798699Y13448698D02*
X13000000Y13650000D01*
X12623236Y13448698D02*
X12798699D01*
X11723500Y11173500D02*
Y11544413D01*
X11550000Y11000000D02*
X11723500Y11173500D01*
X11050000Y11250000D02*
Y11750000D01*
X11700600Y12872536D02*
X11737491Y12909425D01*
X11655200Y12831529D02*
Y13061674D01*
X11737491Y12909425D02*
Y13079761D01*
X11805200Y13083264D02*
X12066736Y13344800D01*
X11737491Y13079761D02*
X12052530Y13394800D01*
X11655200Y13061674D02*
X12043525Y13450000D01*
X12250000D01*
X11632700Y12809029D02*
X11655200Y12831529D01*
X12052530Y13394800D02*
X12272864D01*
X12066736Y13344800D02*
X12372865D01*
X12272864Y13394800D02*
X12278065Y13400000D01*
X12350000D01*
X12372865Y13344800D02*
X12374314Y13346249D01*
X12396250D01*
X12400000Y13350000D01*
X10875128Y13403192D02*
X11127135Y13655200D01*
X10875128Y13248625D02*
Y13403192D01*
X10587059Y12960555D02*
X10875128Y13248625D01*
X11488308Y13038309D02*
X12050000Y13600000D01*
X11488308Y12811691D02*
Y13038309D01*
X10700000Y12700000D02*
X11550000D01*
X10900000Y12300000D02*
X10976615D01*
X10550000Y11950000D02*
X10900000Y12300000D01*
X11700600Y12098068D02*
Y12872536D01*
X11632700Y11382700D02*
Y12809029D01*
X11678100Y12075568D02*
X11700600Y12098068D01*
X10250000Y11900000D02*
X10850000Y12500000D01*
X11286500Y11036500D02*
X11632700Y11382700D01*
X11723500Y11544413D02*
X11805200Y11626112D01*
Y13083264D01*
D42*
X13300000Y13431599D02*
X13450000Y13581599D01*
X13300000Y12800000D02*
Y13431599D01*
X13450000Y13581599D02*
Y14050000D01*
X12642300Y12973900D02*
Y13046841D01*
X13250000Y13654541D01*
X12707500Y8207500D02*
X12732500D01*
X12700000Y8200000D02*
X12707500Y8207500D01*
X12732500D02*
X12750000Y8225000D01*
X13250000Y13654541D02*
Y13850000D01*
X13980000Y13100000D02*
X14245000Y13364999D01*
X13980000Y12920000D02*
Y13100000D01*
X14245000Y13545000D02*
X14750000Y14050000D01*
X14245000Y13364999D02*
Y13545000D01*
X14180000Y13080000D02*
X14200000Y13100000D01*
X14207100D02*
X14557100Y13450000D01*
X14200000Y13100000D02*
X14207100D01*
X14557100Y13450000D02*
X14700000D01*
X14862900Y13912900D02*
Y14012900D01*
X14898654Y14048654D02*
Y14291965D01*
X14862900Y14012900D02*
X14898654Y14048654D01*
X12200000Y8675000D02*
X12205000Y8670000D01*
D43*
X12230099Y9451559D02*
X12231040Y9452500D01*
X12071746D02*
X12072687Y9451559D01*
X12230099D01*
X12231040Y9452500D02*
X12400000D01*
X11900000Y9400000D02*
X12526142D01*
X12576142Y9350000D02*
X12800000D01*
X12526142Y9400000D02*
X12576142Y9350000D01*
X11410000Y10090000D02*
X12047500Y9452500D01*
X10962648Y10102500D02*
X10975147Y10090000D01*
X11410000D01*
X10752500Y10102500D02*
X10962648D01*
X12700000Y8225000D02*
X12700000Y8225000D01*
X12550000Y8225000D02*
X12700000D01*
X12700000Y8225000D02*
X12750000D01*
X12549999D02*
Y8249999D01*
X12550000Y8250000D01*
X12549999Y8225000D02*
X12550000Y8225000D01*
X12000000Y9300000D02*
X12045001Y9345001D01*
X12399999D01*
X12400000Y9345000D01*
X12047500Y9452500D02*
X12071746D01*
X10750000Y10100000D02*
X10752500Y10102500D01*
X13150000Y8225000D02*
X13150000Y8225000D01*
X12350000Y8225000D02*
X12350000Y8225000D01*
X11400000Y8525000D02*
X11400000Y8525000D01*
X12140000Y8480000D02*
X12200000D01*
X11652268Y8550000D02*
X11750000D01*
X11652268Y8549811D02*
Y8550000D01*
X11385000Y9375000D02*
X11400000D01*
X10775000Y9400000D02*
X10800000Y9375000D01*
X11000000Y9350000D02*
X11027499D01*
X11047500Y9330000D01*
X11000000Y9350000D02*
Y9375000D01*
X11750000Y8550000D02*
X11775000D01*
X11200000Y9350000D02*
Y9375000D01*
X11775000Y8550000D02*
X11800000Y8525000D01*
X11200000Y9375000D02*
X11200000Y9375000D01*
X11000000Y9375000D02*
X11000000Y9375000D01*
D46*
X12550000Y8375000D02*
X12565000D01*
X11595000Y9530000D02*
X11605000Y9520000D01*
X11580000Y9530000D02*
X11595000D01*
X12200000Y8675000D02*
X12200000Y8675000D01*
X12350000Y8375000D02*
X12350000Y8375000D01*
D49*
X13000000Y10750000D02*
D03*
Y11410000D02*
D03*
D50*
X13150000Y12300000D02*
D03*
X10536732Y12505425D02*
D03*
D51*
X13262941Y12039444D02*
D03*
X12986732Y12105425D02*
D03*
X13099673Y11844869D02*
D03*
X10886732Y8594575D02*
D03*
X10773791Y8334020D02*
D03*
X11050000Y8400000D02*
D03*
X14645621Y14314102D02*
D03*
X14750000Y14050000D02*
D03*
X14898654Y14291965D02*
D03*
X10345246Y9606214D02*
D03*
X10150000Y9400000D02*
D03*
X10432119Y9367532D02*
D03*
X14922446Y13273471D02*
D03*
X14700000Y13450000D02*
D03*
X14692244Y13166125D02*
D03*
X10204000Y10527000D02*
D03*
X9950000Y10400000D02*
D03*
X10204000Y10273000D02*
D03*
X10423790Y12765980D02*
D03*
X10700000Y12700000D02*
D03*
X10587059Y12960555D02*
D03*
D52*
X13377879Y12291544D02*
D03*
X10658420Y8751543D02*
D03*
X14373187Y14263654D02*
D03*
X10184389Y9831802D02*
D03*
X15133156Y13453375D02*
D03*
X10130000Y10794000D02*
D03*
X10308854Y12513880D02*
D03*
D53*
X10610523Y8528595D02*
D03*
D54*
X14496967Y14072137D02*
D03*
D55*
X10063127Y9638682D02*
D03*
D56*
X14930202Y13557346D02*
D03*
D57*
X9950000Y10654000D02*
D03*
D58*
X11400000Y11800000D02*
D03*
X14000000Y13600000D02*
D03*
X14400000Y7450000D02*
D03*
D59*
X12250000Y14150000D02*
D03*
X11800000D02*
D03*
X14000000Y12700000D02*
D03*
X12730000Y11650000D02*
D03*
X12347500Y11600000D02*
D03*
X12294800Y12050000D02*
D03*
X12305200Y11850000D02*
D03*
X11250000Y8800000D02*
D03*
X10800000Y9560000D02*
D03*
X10650000Y9650000D02*
D03*
X12750000Y10750000D02*
D03*
Y11400000D02*
D03*
X12570000Y13520000D02*
D03*
X12455200Y10763410D02*
D03*
Y11285156D02*
D03*
X12494800Y10400000D02*
D03*
X12429800D02*
D03*
X12615600Y11300000D02*
D03*
X12642300Y12973900D02*
D03*
X12069800Y12930409D02*
D03*
X12305200Y12900000D02*
D03*
X12194800Y12944800D02*
D03*
X12225104Y12550000D02*
D03*
X12094800Y11213239D02*
D03*
X12058409Y12441590D02*
D03*
X12870000Y11650000D02*
D03*
X15200000Y8200000D02*
D03*
X13200000Y8500000D02*
D03*
X12450000Y8875000D02*
D03*
X10950000Y10215000D02*
D03*
X12100000Y9572500D02*
D03*
X12200000Y9550000D02*
D03*
X11800000Y9950000D02*
D03*
X12850000Y9500000D02*
D03*
X12817500Y9574265D02*
D03*
X11000000Y10150000D02*
D03*
X10577115Y10863481D02*
D03*
X10905984Y12384049D02*
D03*
X11418306Y11480341D02*
D03*
X12850000Y8395000D02*
D03*
Y8250000D02*
D03*
X12800000Y8200000D02*
D03*
X12750000Y8250000D02*
D03*
X12700000Y8200000D02*
D03*
X12650000Y8250000D02*
D03*
X12600000Y8200000D02*
D03*
X12550000Y8250000D02*
D03*
X12800000Y8650000D02*
D03*
X12600000D02*
D03*
X11750000Y9102500D02*
D03*
X11900000D02*
D03*
X11900000Y9400000D02*
D03*
X12000000Y9300000D02*
D03*
X12178410Y8931590D02*
D03*
X12800000Y9350000D02*
D03*
X12300000Y9400000D02*
D03*
X12400000Y9452500D02*
D03*
X12400000Y9345000D02*
D03*
X13050000Y8670000D02*
D03*
X11671172Y8905000D02*
D03*
X11222500Y10027500D02*
D03*
X10750000Y10100000D02*
D03*
X11900000Y8947500D02*
D03*
X11800000Y8697500D02*
D03*
X11200000Y9550000D02*
D03*
X11000000D02*
D03*
X12097130Y8697130D02*
D03*
X11700000Y8695000D02*
D03*
X12650000Y8400000D02*
D03*
X12750000D02*
D03*
X13050000Y8420000D02*
D03*
X13900000Y7000000D02*
D03*
X13800000D02*
D03*
X13700000D02*
D03*
Y7100000D02*
D03*
X13800000D02*
D03*
X13900000D02*
D03*
Y7200000D02*
D03*
X13800000D02*
D03*
X13700000D02*
D03*
X14950000Y7750000D02*
D03*
Y7850000D02*
D03*
Y7650000D02*
D03*
Y7550000D02*
D03*
Y7450000D02*
D03*
Y7350000D02*
D03*
Y7250000D02*
D03*
X14800000Y7650000D02*
D03*
Y7750000D02*
D03*
X14650000Y7150000D02*
D03*
X14800000Y7250000D02*
D03*
Y7350000D02*
D03*
Y7450000D02*
D03*
Y7550000D02*
D03*
X14650000Y7650000D02*
D03*
Y7750000D02*
D03*
X14500000Y7050000D02*
D03*
Y7150000D02*
D03*
X14300000D02*
D03*
Y7050000D02*
D03*
X14100000D02*
D03*
Y7150000D02*
D03*
Y7250000D02*
D03*
Y7350000D02*
D03*
Y7450000D02*
D03*
Y7550000D02*
D03*
Y7650000D02*
D03*
X13700000Y7350000D02*
D03*
X13800000D02*
D03*
X13900000D02*
D03*
Y7450000D02*
D03*
Y7550000D02*
D03*
Y7650000D02*
D03*
Y7750000D02*
D03*
X14499998Y7975000D02*
D03*
X14100000Y7750000D02*
D03*
X14500000D02*
D03*
X14300000D02*
D03*
X14800000Y8000000D02*
D03*
X14650000Y7850000D02*
D03*
Y8000000D02*
D03*
X15063499Y8204700D02*
D03*
X14936501D02*
D03*
X14975000Y8000000D02*
D03*
X14800000Y7850000D02*
D03*
X14099998Y7975000D02*
D03*
X14500000Y7850000D02*
D03*
X14300000D02*
D03*
X14100000D02*
D03*
X13900000D02*
D03*
X13750000Y8000000D02*
D03*
X13650000D02*
D03*
X13700000Y7825000D02*
D03*
X13550000Y7850000D02*
D03*
X13450000D02*
D03*
X13550000Y7950000D02*
D03*
Y8050000D02*
D03*
X13600000Y8150000D02*
D03*
X13450000Y7950000D02*
D03*
X15125000Y8000000D02*
D03*
X14650000Y8150000D02*
D03*
X14450000Y8250000D02*
D03*
X13900000Y7975000D02*
D03*
Y8125000D02*
D03*
X13739999Y8150000D02*
D03*
X13750000Y8350000D02*
D03*
X13300000Y8925000D02*
D03*
X13300000Y12800000D02*
D03*
X12602500Y9000000D02*
D03*
X11989599Y11489599D02*
D03*
X12700000Y13300000D02*
D03*
X12646101Y13503899D02*
D03*
X13600000Y13650000D02*
D03*
X13100000D02*
D03*
X13000000Y13500000D02*
D03*
X12750000Y13000000D02*
D03*
X11889599Y11239599D02*
D03*
X11550000Y11000000D02*
D03*
X11650000D02*
D03*
X11222500Y9800000D02*
D03*
X12253750Y10324640D02*
D03*
X12850000Y10500000D02*
D03*
X12817500Y10312500D02*
D03*
X10950000Y9762500D02*
D03*
X11150000Y13450000D02*
D03*
X13500000Y8925000D02*
D03*
X11050000Y11250000D02*
D03*
Y11750000D02*
D03*
X14300000Y8125000D02*
D03*
X13700000Y9375000D02*
D03*
X13292500Y8075000D02*
D03*
X13700000Y8880000D02*
D03*
X10000000Y12450000D02*
D03*
X10400000Y12250000D02*
D03*
X10300000Y12350000D02*
D03*
X9900000D02*
D03*
X10100000D02*
D03*
X9800000Y12250000D02*
D03*
X10000000D02*
D03*
X10200000D02*
D03*
X10300000Y12150000D02*
D03*
X10100000D02*
D03*
X9900000D02*
D03*
X10200000Y12050000D02*
D03*
X10000000D02*
D03*
X9800000D02*
D03*
X15400000Y8950000D02*
D03*
X15300000D02*
D03*
X15200000D02*
D03*
X15100000D02*
D03*
X15000000Y8950000D02*
D03*
X14900000Y8950000D02*
D03*
X14800000Y8950000D02*
D03*
X14900000Y8850000D02*
D03*
X15000000D02*
D03*
X15100000D02*
D03*
X15200000D02*
D03*
X15300000D02*
D03*
X15400000D02*
D03*
X15500000D02*
D03*
X15600000D02*
D03*
X15750000Y8600000D02*
D03*
X15750000Y8500000D02*
D03*
Y8400000D02*
D03*
Y8300000D02*
D03*
Y8200000D02*
D03*
Y8100000D02*
D03*
Y8000000D02*
D03*
Y7900000D02*
D03*
X15750000Y7800000D02*
D03*
X15650000Y7800000D02*
D03*
X15550000D02*
D03*
X15450000D02*
D03*
X15600000Y7700000D02*
D03*
X15500000D02*
D03*
X15400000D02*
D03*
X15350000Y7800000D02*
D03*
X15300000Y7700000D02*
D03*
X14350000Y8350000D02*
D03*
X14250000D02*
D03*
X13850000Y8250000D02*
D03*
X13950000D02*
D03*
X13850000Y8350000D02*
D03*
X15700000Y7700000D02*
D03*
X15600000Y7600000D02*
D03*
X15500000D02*
D03*
X15400000D02*
D03*
X15300000D02*
D03*
X14550000Y8350000D02*
D03*
X14050000Y8250000D02*
D03*
X13750000D02*
D03*
X14500000Y8125000D02*
D03*
X15550000Y7500000D02*
D03*
X15450000D02*
D03*
X15350000D02*
D03*
X14550000Y8250000D02*
D03*
X14450000Y8350000D02*
D03*
X14250000Y8250000D02*
D03*
X14050000Y8350000D02*
D03*
X15350000Y7400000D02*
D03*
X14650000Y8350000D02*
D03*
Y8250000D02*
D03*
X14350000D02*
D03*
X14150000Y8350000D02*
D03*
Y8250000D02*
D03*
X13950000Y8350000D02*
D03*
X13700002Y7675000D02*
D03*
X12105582Y13064809D02*
D03*
X12140000Y13160001D02*
D03*
X10900000Y10050000D02*
D03*
X12700000Y9000000D02*
D03*
X14800000Y8200000D02*
D03*
X12500000Y14000000D02*
D03*
X12350000Y10500000D02*
D03*
X14100000Y8125000D02*
D03*
X14750000Y9050000D02*
D03*
X13500000Y9375000D02*
D03*
X13300000D02*
D03*
X13550000Y8750000D02*
D03*
X10608082Y10791917D02*
D03*
X10100000Y11000000D02*
D03*
X11650000Y10050000D02*
D03*
X11950000Y8550000D02*
D03*
X11850000D02*
D03*
X11800000Y8500000D02*
D03*
X11750000Y8550000D02*
D03*
X11660000Y8549811D02*
D03*
X11250000Y9400000D02*
D03*
X11200000Y9350000D02*
D03*
X11150000Y9400000D02*
D03*
X11100000Y9350000D02*
D03*
X11050000Y9400000D02*
D03*
X11000000Y9350000D02*
D03*
X10950000Y9400000D02*
D03*
X11100000Y9550000D02*
D03*
X12000000Y12600000D02*
D03*
X11950000Y12700000D02*
D03*
X11595096Y12849490D02*
D03*
X11600000Y13000000D02*
D03*
X12400000Y13350000D02*
D03*
X12350000Y13400000D02*
D03*
X12250000Y13450000D02*
D03*
X12050000Y13600000D02*
D03*
X11550000Y13850000D02*
D03*
X12200000D02*
D03*
X12650000Y14050000D02*
D03*
X12800000D02*
D03*
X13450000D02*
D03*
X13250000Y13850000D02*
D03*
X13980000Y12920000D02*
D03*
X14180000Y13080000D02*
D03*
X14850000Y13900000D02*
D03*
X13850000Y14200000D02*
D03*
Y14450000D02*
D03*
Y14100000D02*
D03*
X11150000Y13600000D02*
D03*
X11550000Y12700000D02*
D03*
X10664032Y11985968D02*
D03*
X10976615Y12300000D02*
D03*
X11488308Y12811691D02*
D03*
X10550000Y11950000D02*
D03*
X10850000Y12500000D02*
D03*
X10250000Y11900000D02*
D03*
X10363500Y11886500D02*
D03*
X10600000Y11850000D02*
D03*
X9850000D02*
D03*
X10900000Y11000000D02*
D03*
X11286500Y11036500D02*
D03*
X11413500Y11036500D02*
D03*
X12050000Y10350000D02*
D03*
X13050000Y11000000D02*
D03*
Y10900000D02*
D03*
X12950000D02*
D03*
X13050000Y11150000D02*
D03*
Y11250000D02*
D03*
X12950000Y11150000D02*
D03*
Y11000000D02*
D03*
Y11250000D02*
D03*
X11650000Y10200000D02*
D03*
X13350000Y7100000D02*
D03*
X12950000Y9300000D02*
D03*
X11900000Y8700000D02*
D03*
X10850000Y10025000D02*
D03*
X13450000Y7000000D02*
D03*
X13350000D02*
D03*
X13450000Y7100000D02*
D03*
X13250000Y7000000D02*
D03*
Y7100000D02*
D03*
X13450000Y7200000D02*
D03*
X13350000D02*
D03*
X13250000D02*
D03*
X15400000Y8200000D02*
D03*
Y8100000D02*
D03*
X15500000Y8200000D02*
D03*
Y8100000D02*
D03*
X15600000Y8200000D02*
D03*
Y8100000D02*
D03*
X15600000Y8000000D02*
D03*
X15500000D02*
D03*
X15400000D02*
D03*
X9850000Y11050000D02*
D03*
%TF.MD5,af39e3aba8805448d67b3fd3099787cc*%
M02*
